<svg width="24" height="24" viewBox="0 0 24 24" fill="none" xmlns="http://www.w3.org/2000/svg">
<path fill-rule="evenodd" clip-rule="evenodd" d="M4.18675 6.35837C7.44378 6.3188 9.57541 5.12546 12 3C14.4244 5.12586 16.5561 6.3196 19.8132 6.35947C19.937 7.07402 20 7.81055 20 8.55918C20 14.303 18 19 12 21C6 19 4 14.3019 4 8.55808C4 7.80835 4.06412 7.07402 4.18675 6.35837ZM16.1704 10.4346C16.3753 10.2273 16.4887 9.94957 16.4861 9.66134C16.4836 9.37311 16.3653 9.09739 16.1567 8.89357C15.9481 8.68975 15.6659 8.57413 15.371 8.57163C15.076 8.56912 14.7918 8.67993 14.5796 8.88018L10.875 12.5002L9.42037 11.0788C9.2082 10.8785 8.92402 10.7677 8.62905 10.7702C8.33408 10.7727 8.05191 10.8884 7.84333 11.0922C7.63475 11.296 7.51643 11.5717 7.51387 11.8599C7.5113 12.1482 7.6247 12.4259 7.82963 12.6332L10.0796 14.8318C10.2906 15.0379 10.5767 15.1537 10.875 15.1537C11.1733 15.1537 11.4594 15.0379 11.6704 14.8318L16.1704 10.4346Z" fill="black"/>
</svg>
