<svg width="24" height="24" viewBox="0 0 24 24" fill="none" xmlns="http://www.w3.org/2000/svg">
<path fill-rule="evenodd" clip-rule="evenodd" d="M17.4995 8.38352C17.0137 8.12784 16.447 8 15.7992 8H12.5322C12.256 8 12.0322 8.22386 12.0322 8.5V16.2273C12.0322 16.5034 12.256 16.7273 12.5322 16.7273H13.9015C14.1776 16.7273 14.4015 16.5034 14.4015 16.2273V14.6364C14.4015 14.3602 14.6254 14.1364 14.9015 14.1364H15.714C16.3788 14.1364 16.9597 14.0128 17.4569 13.7656C17.9569 13.5185 18.3447 13.1662 18.6203 12.7088C18.8987 12.2514 19.0379 11.7102 19.0379 11.0852C19.0379 10.4659 18.9029 9.92472 18.633 9.46165C18.3632 8.99858 17.9853 8.6392 17.4995 8.38352ZM15.9484 10.0369C15.7524 9.94034 15.5151 9.89205 15.2367 9.89205H14.9015C14.6254 9.89205 14.4015 10.1159 14.4015 10.392V11.7955C14.4015 12.0716 14.6254 12.2955 14.9015 12.2955H15.2367C15.5151 12.2955 15.7524 12.2472 15.9484 12.1506C16.1472 12.0511 16.2992 11.9105 16.4043 11.7287C16.5123 11.5469 16.5663 11.3324 16.5663 11.0852C16.5663 10.8352 16.5123 10.6222 16.4043 10.446C16.2992 10.267 16.1472 10.1307 15.9484 10.0369ZM8.86932 16.7273C9.14546 16.7273 9.36932 16.5034 9.36932 16.2273V8.5C9.36932 8.22386 9.14546 8 8.86932 8H7.5C7.22386 8 7 8.22386 7 8.5V16.2273C7 16.5034 7.22386 16.7273 7.5 16.7273H8.86932Z" fill="black"/>
</svg>
