<svg width="24" height="24" viewBox="0 0 24 24" fill="none" xmlns="http://www.w3.org/2000/svg">
<g clip-path="url(#clip0_12_1053)">
<path d="M8.97954 9.37791C8.97954 7.71033 10.3329 6.35693 12.0005 6.35693C13.6681 6.35693 15.0215 7.71033 15.0215 9.37791C15.0215 11.0455 13.6681 12.3989 12.0005 12.3989V14.3572V12.3989" stroke="black" stroke-width="1.5" stroke-miterlimit="1.5" stroke-linecap="round" stroke-linejoin="round"/>
<path d="M12.0021 18.3564C12.5544 18.3564 13.0021 17.9087 13.0021 17.3564C13.0021 16.8041 12.5544 16.3564 12.0021 16.3564C11.4498 16.3564 11.0021 16.8041 11.0021 17.3564C11.0021 17.9087 11.4498 18.3564 12.0021 18.3564Z" fill="black"/>
<path d="M12 21C16.9706 21 21 16.9706 21 12C21 7.02944 16.9706 3 12 3C7.02943 3 3 7.02944 3 12C3 16.9706 7.02943 21 12 21Z" stroke="black" stroke-width="1.5" stroke-miterlimit="1.5" stroke-linecap="round" stroke-linejoin="round"/>
</g>
<defs>
<clipPath id="clip0_12_1053">
<rect width="24" height="24" fill="white"/>
</clipPath>
</defs>
</svg>
