<svg width="24" height="24" viewBox="0 0 24 24" fill="none" xmlns="http://www.w3.org/2000/svg">
<path d="M9 11C10.933 11 12.5 9.433 12.5 7.5C12.5 5.56701 10.933 4 9 4C7.067 4 5.5 5.56701 5.5 7.5C5.5 9.433 7.067 11 9 11Z" stroke="black" stroke-width="1.5" stroke-miterlimit="1.5" stroke-linecap="round" stroke-linejoin="round"/>
<path fill-rule="evenodd" clip-rule="evenodd" d="M4.00046 21C3.73466 21 3.48085 20.895 3.29349 20.7078C3.10614 20.5205 3.00092 20.2659 3 20.0016C3.00185 20.0008 3.00184 20.0007 3.00184 19.9999C3.00184 16.8612 5.68574 14 8.99631 14C12.3069 14 15 16.8612 15 19.9999V20.0008C15 20.2659 14.8948 20.5196 14.7074 20.7078C14.5201 20.895 14.2653 21 14.0005 21C11.7227 21 6.21827 21 4.00046 21Z" stroke="black" stroke-width="1.5" stroke-miterlimit="1.5" stroke-linejoin="round"/>
<path d="M18 8.5V14.5M15 11.5H21" stroke="black" stroke-width="1.5" stroke-linecap="round"/>
</svg>
