<svg width="24" height="24" viewBox="0 0 24 24" fill="none" xmlns="http://www.w3.org/2000/svg">
<path fill-rule="evenodd" clip-rule="evenodd" d="M12 4C9.09656 4 6.74286 6.35983 6.74286 9.27083V11.5625C6.74286 12.6038 6.40601 13.617 5.78286 14.45L4.13715 16.65C3.98131 16.8583 3.95624 17.137 4.0724 17.37C4.18855 17.6029 4.42599 17.75 4.68572 17.75L8.11429 17.75L9.03723 17.75H14.9628L15.4286 17.75L19.3143 17.75C19.574 17.75 19.8114 17.6029 19.9276 17.37C20.0438 17.137 20.0187 16.8583 19.8629 16.65L18.2171 14.45C17.594 13.617 17.2571 12.6038 17.2571 11.5625V9.27083C17.2571 6.35983 14.9034 4 12 4ZM14.7423 18.67H9.25769C9.70629 19.7448 10.7652 20.5 12 20.5C13.2348 20.5 14.2937 19.7448 14.7423 18.67Z" fill="black"/>
</svg>
