<svg width="24" height="24" viewBox="0 0 24 24" fill="none" xmlns="http://www.w3.org/2000/svg">
<path d="M5.11265 3.02423L18.8873 20.9758" stroke="black" stroke-width="1.5" stroke-linecap="round" stroke-linejoin="round"/>
<path fill-rule="evenodd" clip-rule="evenodd" d="M6.35069 7.92303C6.28458 8.27189 6.25 8.63191 6.25 9V11.5C6.25 12.6359 5.88156 13.7412 5.2 14.65L3.4 17.05C3.22955 17.2773 3.20213 17.5813 3.32918 17.8354C3.45622 18.0895 3.71592 18.25 4 18.25H8.75947C8.88713 19.9281 10.2892 21.25 12 21.25C13.3654 21.25 14.5341 20.408 15.0153 19.215L13.1239 16.75H5.5L6.4 15.55C7.2763 14.3816 7.75 12.9605 7.75 11.5V9.74665L6.35069 7.92303ZM9.55253 5.52503C10.2445 5.03679 11.0887 4.75 12 4.75C14.3472 4.75 16.25 6.65279 16.25 9V11.5C16.25 12.9605 16.7237 14.3816 17.6 15.55L19.4 17.95C19.6485 18.2814 20.1186 18.3485 20.45 18.1C20.7814 17.8515 20.8485 17.3814 20.6 17.05L18.8 14.65C18.1184 13.7412 17.75 12.6359 17.75 11.5V9C17.75 5.82436 15.1756 3.25 12 3.25C10.7451 3.25 9.58413 3.65199 8.63878 4.33421L9.55253 5.52503ZM12 19.75C11.1184 19.75 10.389 19.0981 10.2677 18.25H13.7323C13.611 19.0981 12.8816 19.75 12 19.75Z" fill="black"/>
</svg>
