<svg width="24" height="24" viewBox="0 0 24 24" fill="none" xmlns="http://www.w3.org/2000/svg">
<g clip-path="url(#clip0_49_2741)">
<path d="M16.4523 11.3048C16.4225 11.3495 16.3924 11.3946 16.362 11.4402C15.5231 12.6967 14.4808 14.2579 14.4808 16.0667C14.4808 16.1758 14.3955 16.25 14.3077 16.25H9.69231C9.60451 16.25 9.51923 16.1758 9.51923 16.0667C9.51923 14.2579 8.47694 12.6967 7.63801 11.4402C7.60761 11.3947 7.57748 11.3495 7.54768 11.3048C7.04091 10.5443 6.75 9.64782 6.75 8.6875C6.75 5.99789 9.0622 3.75 12 3.75C14.9378 3.75 17.25 5.99789 17.25 8.6875C17.25 9.64782 16.9591 10.5443 16.4523 11.3048Z" stroke="black" stroke-width="1.5"/>
<path d="M12 22C13.6569 22 15 20.5 15 19C15 18.7841 14.7864 18.5 14.5396 18.5H9.46039C9.21364 18.5 9 18.7841 9 19C9 20.5 10.3431 22 12 22Z" fill="black"/>
</g>
<defs>
<clipPath id="clip0_49_2741">
<rect width="24" height="24" fill="white"/>
</clipPath>
</defs>
</svg>
