<svg width="24" height="24" viewBox="0 0 24 24" fill="none" xmlns="http://www.w3.org/2000/svg">
<g clip-path="url(#clip0_49_2742)">
<path d="M12 5.59857C10.1572 4.00061 8.49099 4.00061 8 4.00061C5.20499 3.95469 3 6.50061 3 10.0006C3 15.3667 7.89238 17.5361 12 20.0006C13.0312 19.3819 14.1118 18.7824 15.1521 18.1457M19.871 14.0012C20.5753 12.8859 21 11.5823 21 10.0012C21 6.50122 18.795 3.9553 16 4.00122C15.3333 4.00122 12.5 4.00122 10 8.00122L8.65404 10.1548C8.03519 11.1449 8.40319 12.4528 9.44756 12.975C10.6564 13.5794 12.121 13.2914 13.0109 12.2742L14.36 10.7321C14.7641 10.2703 15.3616 10.0025 15.9616 10.1314C17.5656 10.4763 19.5658 11.5329 19.871 14.0012ZM19.871 14.0012C19.3847 14.7715 18.765 15.4521 18.0598 16.0723M15.1521 18.1457L12.5 16.5006M15.1521 18.1457C16.1915 17.5095 17.1906 16.8367 18.0598 16.0723M18.0598 16.0723L15.5 14.5006" stroke="black" stroke-width="1.5" stroke-linecap="round" stroke-linejoin="round"/>
<g clip-path="url(#clip1_49_2742)">
<path d="M12 20.0006L11.6141 20.6437C11.8516 20.7863 12.1484 20.7863 12.3859 20.6437L12 20.0006ZM8 4.00063L7.98768 4.75063H8V4.00063ZM11.5086 6.16522C11.8216 6.43659 12.2953 6.40288 12.5666 6.08994C12.838 5.777 12.8043 5.30332 12.4914 5.03196L11.5086 6.16522ZM16 4.00124V4.75134L16.0123 4.75114L16 4.00124ZM10 8.00124L9.364 7.60374L10 8.00124ZM8.65404 10.1548L9.29004 10.5523L8.65404 10.1548ZM13.0109 12.2742L12.4465 11.7804L13.0109 12.2742ZM14.36 10.7321L14.9245 11.226L14.36 10.7321ZM15.9616 10.1315L16.1192 9.39823L15.9616 10.1315ZM15.1521 18.1457L15.5436 18.7854L15.1521 18.1457ZM12.8953 15.8633C12.5434 15.6449 12.081 15.7533 11.8627 16.1053C11.6443 16.4573 11.7527 16.9196 12.1047 17.1379L12.8953 15.8633ZM15.8924 13.8615C15.5394 13.6447 15.0776 13.7552 14.8609 14.1082C14.6441 14.4612 14.7546 14.923 15.1076 15.1398L15.8924 13.8615ZM9.44756 12.975L9.78297 12.3042L9.44756 12.975ZM12.3859 19.3575C10.2693 18.0876 8.1232 16.9869 6.45383 15.5245C4.82939 14.1016 3.75 12.4085 3.75 10.0006H2.25C2.25 12.9589 3.6168 15.0335 5.46545 16.6529C7.26919 18.2329 9.62304 19.4491 11.6141 20.6437L12.3859 19.3575ZM3.75 10.0006C3.75 6.78096 5.73818 4.71357 7.98768 4.75053L8.01232 3.25074C4.67181 3.19586 2.25 6.2203 2.25 10.0006H3.75ZM8 4.75063C8.40792 4.75063 9.86125 4.73667 11.5086 6.16522L12.4914 5.03196C10.4532 3.26459 8.57407 3.25063 8 3.25063V4.75063ZM21.75 10.0012C21.75 6.22091 19.3282 3.19647 15.9877 3.25135L16.0123 4.75114C18.2618 4.71418 20.25 6.78157 20.25 10.0012H21.75ZM16 3.25125C15.626 3.25124 14.6256 3.25314 13.3781 3.81803C12.1281 4.38409 10.6855 5.48928 9.364 7.60374L10.636 8.39874C11.8145 6.5132 13.0386 5.6184 13.9969 5.18446C14.9578 4.74934 15.7074 4.75124 16 4.75124V3.25125ZM9.364 7.60374L8.01804 9.75728L9.29004 10.5523L10.636 8.39874L9.364 7.60374ZM13.5754 12.768L14.9245 11.226L13.7956 10.2383L12.4465 11.7804L13.5754 12.768ZM20.5052 14.4016C21.2832 13.1694 21.75 11.7276 21.75 10.0012H20.25C20.25 11.4371 19.8673 12.6023 19.2369 13.6008L20.5052 14.4016ZM15.8039 10.8647C17.2725 11.1805 18.879 12.09 19.1267 14.0933L20.6154 13.9092C20.2527 10.9759 17.8587 9.77223 16.1192 9.39823L15.8039 10.8647ZM12.3859 20.6437C13.366 20.0557 14.5211 19.4113 15.5436 18.7854L14.7605 17.506C13.7025 18.1536 12.6963 18.7082 11.6141 19.3575L12.3859 20.6437ZM15.5474 17.5084L12.8953 15.8633L12.1047 17.1379L14.7567 18.783L15.5474 17.5084ZM15.5436 18.7854C16.5978 18.1401 17.6387 17.4414 18.5551 16.6354L17.5645 15.5091C16.7424 16.2321 15.7851 16.8789 14.7605 17.506L15.5436 18.7854ZM18.5551 16.6354C19.3002 15.9801 19.9718 15.2464 20.5052 14.4016L19.2369 13.6008C18.7975 14.2966 18.2297 14.924 17.5645 15.5091L18.5551 16.6354ZM18.4522 15.4331L15.8924 13.8615L15.1076 15.1398L17.6674 16.7114L18.4522 15.4331ZM14.9245 11.226C15.194 10.918 15.5308 10.806 15.8039 10.8647L16.1192 9.39823C15.1925 9.19898 14.3342 9.62262 13.7956 10.2383L14.9245 11.226ZM9.11215 13.6458C10.6263 14.4029 12.4607 14.0421 13.5754 12.768L12.4465 11.7804C11.7813 12.5407 10.6866 12.756 9.78297 12.3042L9.11215 13.6458ZM8.01804 9.75728C7.16477 11.1225 7.67217 12.9259 9.11215 13.6458L9.78297 12.3042C9.13421 11.9798 8.90561 11.1674 9.29004 10.5523L8.01804 9.75728Z" fill="black"/>
</g>
</g>
<defs>
<clipPath id="clip0_49_2742">
<rect width="24" height="24" fill="white"/>
</clipPath>
<clipPath id="clip1_49_2742">
<rect width="20" height="18" fill="white" transform="translate(2 3)"/>
</clipPath>
</defs>
</svg>
