<svg width="24" height="24" viewBox="0 0 24 24" fill="none" xmlns="http://www.w3.org/2000/svg">
<path fill-rule="evenodd" clip-rule="evenodd" d="M14.3452 5.38742C13.257 3.53753 10.5818 3.53753 9.49359 5.38742L3.39284 15.7587C2.28922 17.6348 3.64196 20 5.81863 20H18.0201C20.1968 20 21.5495 17.6348 20.4459 15.7587L14.3452 5.38742ZM11.9194 14.3713C12.8575 14.3713 12.8575 12.0122 12.8575 9.68068C12.8575 7.34919 12.4375 6.86632 11.9194 6.86632C11.4013 6.86632 10.9813 7.34919 10.9813 9.68068C10.9813 12.0122 10.9813 14.3713 11.9194 14.3713ZM11.9194 18.5928C12.6965 18.5928 13.3266 17.9628 13.3266 17.1856C13.3266 16.4085 12.6965 15.7785 11.9194 15.7785C11.1422 15.7785 10.5122 16.4085 10.5122 17.1856C10.5122 17.9628 11.1422 18.5928 11.9194 18.5928Z" fill="black"/>
</svg>
