<svg width="24" height="24" viewBox="0 0 24 24" fill="none" xmlns="http://www.w3.org/2000/svg">
<path fill-rule="evenodd" clip-rule="evenodd" d="M12.625 7.69645C12.625 7.24017 12.9481 6.85864 13.3338 6.61487C14.0346 6.17197 14.5 5.39034 14.5 4.5C14.5 3.11929 13.3807 2 12 2C10.6193 2 9.5 3.11929 9.5 4.5C9.5 5.39033 9.96542 6.17196 10.6662 6.61487C11.0519 6.85863 11.375 7.24016 11.375 7.69645V8.92208C11.375 9.3086 11.0995 9.63516 10.7637 9.82658C10.4281 10.0179 10.0145 10.0798 9.68321 9.88106L7.51486 8.58005C7.15157 8.36208 7 7.92366 7 7.5C7 6.11929 5.88071 5 4.5 5C3.11929 5 2 6.11929 2 7.5C2 8.88071 3.11929 10 4.5 10C4.90573 10 5.28888 9.90335 5.62769 9.73182C6.03454 9.52584 6.52731 9.44526 6.91834 9.67988L8.98514 10.92C9.34843 11.1379 9.5 11.5763 9.5 12C9.5 12.4237 9.34843 12.8621 8.98514 13.08L6.91834 14.3201C6.52731 14.5547 6.03454 14.4742 5.62769 14.2682C5.28888 14.0967 4.90573 14 4.5 14C3.11929 14 2 15.1193 2 16.5C2 17.8807 3.11929 19 4.5 19C5.88071 19 7 17.8807 7 16.5C7 16.0763 7.15157 15.6379 7.51486 15.42L9.68321 14.1189C10.0145 13.9202 10.4281 13.9821 10.7637 14.1734C11.0995 14.3648 11.375 14.6914 11.375 15.0779V16.3036C11.375 16.7598 11.0519 17.1414 10.6662 17.3851C9.96542 17.828 9.5 18.6097 9.5 19.5C9.5 20.8807 10.6193 22 12 22C13.3807 22 14.5 20.8807 14.5 19.5C14.5 18.6097 14.0346 17.828 13.3338 17.3851C12.9481 17.1414 12.625 16.7598 12.625 16.3035V15.0779C12.625 14.6914 12.9005 14.3648 13.2363 14.1734C13.5719 13.9821 13.9855 13.9202 14.3168 14.1189L16.4851 15.42C16.8484 15.6379 17 16.0763 17 16.5C17 17.8807 18.1193 19 19.5 19C20.8807 19 22 17.8807 22 16.5C22 15.1193 20.8807 14 19.5 14C19.0943 14 18.7111 14.0967 18.3723 14.2682C17.9655 14.4742 17.4727 14.5547 17.0817 14.3201L15.0149 13.08C14.6516 12.8621 14.5 12.4237 14.5 12C14.5 11.5763 14.6516 11.1379 15.0149 10.92L17.0817 9.67987C17.4727 9.44526 17.9655 9.52584 18.3723 9.73182C18.7111 9.90335 19.0943 10 19.5 10C20.8807 10 22 8.88071 22 7.5C22 6.11929 20.8807 5 19.5 5C18.1193 5 17 6.11929 17 7.5C17 7.92366 16.8484 8.36207 16.4851 8.58004L14.3168 9.88106C13.9855 10.0798 13.5719 10.0179 13.2363 9.82658C12.9005 9.63516 12.625 9.30859 12.625 8.92207V7.69645Z" fill="black"/>
</svg>
