<svg width="24" height="24" viewBox="0 0 24 24" fill="none" xmlns="http://www.w3.org/2000/svg">
<path d="M5.95147 17.2267C5.82086 17.2267 5.7175 17.1238 5.67505 17.0003C5.63474 16.883 5.56928 16.7851 5.47868 16.7067C5.33709 16.5822 5.12148 16.52 4.83186 16.52C4.64736 16.52 4.49611 16.5433 4.37812 16.59C4.26227 16.6344 4.17646 16.6956 4.12068 16.7733C4.0649 16.8511 4.03593 16.94 4.03379 17.04C4.0295 17.1222 4.04344 17.1967 4.07562 17.2633C4.10995 17.3278 4.16358 17.3867 4.23652 17.44C4.30947 17.4911 4.40279 17.5378 4.51649 17.58C4.6302 17.6222 4.76535 17.66 4.92196 17.6933L5.46259 17.8133C5.8273 17.8933 6.13945 17.9989 6.39903 18.13C6.65862 18.2611 6.87101 18.4156 7.0362 18.5933C7.2014 18.7689 7.32261 18.9667 7.39984 19.1867C7.47922 19.4067 7.51998 19.6467 7.52212 19.9067C7.51998 20.3556 7.41164 20.7356 7.1971 21.0467C6.98257 21.3578 6.67578 21.5944 6.27675 21.7567C5.87986 21.9189 5.40252 22 4.84473 22C4.27192 22 3.77206 21.9122 3.34513 21.7367C2.92035 21.5611 2.58997 21.2911 2.35398 20.9267C2.15531 20.6152 2.04026 20.2299 2.00883 19.7708C1.99938 19.6327 2.1125 19.52 2.25094 19.52H3.46162C3.59471 19.52 3.70086 19.6254 3.73112 19.755C3.75661 19.8642 3.79636 19.9614 3.85036 20.0467C3.94047 20.1889 4.06704 20.2967 4.23009 20.37C4.39528 20.4433 4.59158 20.48 4.81899 20.48C5.00992 20.48 5.16975 20.4556 5.29847 20.4067C5.42719 20.3578 5.52481 20.29 5.59131 20.2033C5.65782 20.1167 5.69214 20.0178 5.69429 19.9067C5.69214 19.8022 5.65889 19.7111 5.59453 19.6333C5.53231 19.5533 5.42934 19.4822 5.2856 19.42C5.14186 19.3556 4.94771 19.2956 4.70314 19.24L4.04666 19.0933C3.46313 18.9622 3.00295 18.7433 2.66613 18.4367C2.33146 18.1278 2.16519 17.7067 2.16734 17.1733C2.16519 16.74 2.27675 16.3611 2.50201 16.0367C2.72942 15.71 3.04371 15.4556 3.44489 15.2733C3.84822 15.0911 4.31054 15 4.83186 15C5.3639 15 5.82408 15.0922 6.21239 15.2767C6.6007 15.4611 6.89997 15.7211 7.11022 16.0567C7.28186 16.3261 7.38485 16.6325 7.41918 16.9759C7.43296 17.1137 7.31936 17.2267 7.18082 17.2267H5.95147Z" fill="black"/>
<path d="M8.20274 15.3433C8.20274 15.2053 8.31466 15.0933 8.45274 15.0933H10.2597C10.3623 15.0933 10.4544 15.1559 10.4922 15.2513L11.9472 18.9241C11.9557 18.9458 11.9767 18.96 12 18.96C12.0233 18.96 12.0443 18.9458 12.0528 18.9241L13.5078 15.2513C13.5456 15.1559 13.6377 15.0933 13.7403 15.0933H15.5473C15.6853 15.0933 15.7973 15.2053 15.7973 15.3433V21.67C15.7973 21.8081 15.6853 21.92 15.5473 21.92H14.2967C14.1586 21.92 14.0467 21.8081 14.0467 21.67V18.0038C14.0467 17.987 14.033 17.9733 14.0162 17.9733C14.0036 17.9733 13.9922 17.9812 13.9877 17.993L12.5887 21.7048C12.552 21.8022 12.4589 21.8667 12.3548 21.8667H11.6456C11.5413 21.8667 11.448 21.802 11.4115 21.7043L10.0122 17.9664C10.0078 17.9545 9.99642 17.9467 9.98374 17.9467C9.96695 17.9467 9.95334 17.9603 9.95334 17.9771V21.67C9.95334 21.8081 9.84141 21.92 9.70334 21.92H8.45274C8.31466 21.92 8.20274 21.8081 8.20274 21.67V15.3433Z" fill="black"/>
<path d="M20.4293 17.2267C20.2987 17.2267 20.1954 17.1238 20.1529 17.0003C20.1126 16.883 20.0472 16.7851 19.9566 16.7067C19.815 16.5822 19.5994 16.52 19.3097 16.52C19.1252 16.52 18.974 16.5433 18.856 16.59C18.7401 16.6344 18.6543 16.6956 18.5986 16.7733C18.5428 16.8511 18.5138 16.94 18.5117 17.04C18.5074 17.1222 18.5213 17.1967 18.5535 17.2633C18.5878 17.3278 18.6415 17.3867 18.7144 17.44C18.7873 17.4911 18.8807 17.5378 18.9944 17.58C19.1081 17.6222 19.2432 17.66 19.3998 17.6933L19.9405 17.8133C20.3052 17.8933 20.6173 17.9989 20.8769 18.13C21.1365 18.2611 21.3489 18.4156 21.5141 18.5933C21.6793 18.7689 21.8005 18.9667 21.8777 19.1867C21.9571 19.4067 21.9979 19.6467 22 19.9067C21.9979 20.3556 21.8895 20.7356 21.675 21.0467C21.4604 21.3578 21.1537 21.5944 20.7546 21.7567C20.3577 21.9189 19.8804 22 19.3226 22C18.7498 22 18.2499 21.9122 17.823 21.7367C17.3982 21.5611 17.0678 21.2911 16.8319 20.9267C16.6332 20.6152 16.5181 20.2299 16.4867 19.7708C16.4773 19.6327 16.5904 19.52 16.7288 19.52H17.9395C18.0726 19.52 18.1787 19.6254 18.209 19.755C18.2345 19.8642 18.2742 19.9614 18.3282 20.0467C18.4183 20.1889 18.5449 20.2967 18.708 20.37C18.8732 20.4433 19.0695 20.48 19.2969 20.48C19.4878 20.48 19.6476 20.4556 19.7763 20.4067C19.9051 20.3578 20.0027 20.29 20.0692 20.2033C20.1357 20.1167 20.17 20.0178 20.1722 19.9067C20.17 19.8022 20.1368 19.7111 20.0724 19.6333C20.0102 19.5533 19.9072 19.4822 19.7635 19.42C19.6197 19.3556 19.4256 19.2956 19.181 19.24L18.5245 19.0933C17.941 18.9622 17.4808 18.7433 17.144 18.4367C16.8093 18.1278 16.6431 17.7067 16.6452 17.1733C16.6431 16.74 16.7546 16.3611 16.9799 16.0367C17.2073 15.71 17.5216 15.4556 17.9228 15.2733C18.3261 15.0911 18.7884 15 19.3097 15C19.8418 15 20.302 15.0922 20.6903 15.2767C21.0786 15.4611 21.3778 15.7211 21.5881 16.0567C21.7597 16.3261 21.8627 16.6325 21.8971 16.9759C21.9108 17.1137 21.7972 17.2267 21.6587 17.2267H20.4293Z" fill="black"/>
<path d="M18 12.5V5C18 3.89543 17.1046 3 16 3H8C6.89543 3 6 3.89543 6 5V12.5" stroke="black" stroke-width="1.5" stroke-linecap="round" stroke-linejoin="round"/>
<path d="M9 6H9.5" stroke="black" stroke-width="1.5" stroke-linecap="round" stroke-linejoin="round"/>
</svg>
