<svg width="24" height="24" viewBox="0 0 24 24" fill="none" xmlns="http://www.w3.org/2000/svg">
<path d="M9 7V20L12.333 18L9 20L4 17V4L9 7ZM9 7L14 4L19 7V9" stroke="black" stroke-width="1.5" stroke-miterlimit="1.5" stroke-linecap="round" stroke-linejoin="round"/>
<path d="M14 10V4" stroke="black" stroke-width="1.5" stroke-miterlimit="1.5" stroke-linecap="round" stroke-linejoin="round"/>
<path fill-rule="evenodd" clip-rule="evenodd" d="M17.5 11C19.432 11 21 12.6358 21 14.6512C21 16.3206 18.5962 19.7367 17.773 20.8583C17.7086 20.9474 17.6078 21 17.5 21C17.3922 21 17.2914 20.9474 17.227 20.8583C16.4038 19.7367 14 16.3206 14 14.6512C14 12.6358 15.568 11 17.5 11ZM17.5 12.8203C18.2532 12.8203 18.865 13.4585 18.865 14.2443C18.865 15.0315 18.2532 15.6697 17.5 15.6697C16.7468 15.6697 16.135 15.0315 16.135 14.2443C16.135 13.4585 16.7468 12.8203 17.5 12.8203Z" fill="black"/>
</svg>
