<svg width="24" height="24" viewBox="0 0 24 24" fill="none" xmlns="http://www.w3.org/2000/svg">
<path fill-rule="evenodd" clip-rule="evenodd" d="M21 12C21 14.3869 20.0518 16.6761 18.364 18.364C16.6761 20.0518 14.3869 21 12 21C9.61305 21 7.32387 20.0518 5.63604 18.364C3.94821 16.6761 3 14.3869 3 12C3 9.61305 3.94821 7.32387 5.63604 5.63604C7.32387 3.94821 9.61305 3 12 3C14.3869 3 16.6761 3.94821 18.364 5.63604C20.0518 7.32387 21 9.61305 21 12ZM13.125 16.5C13.125 16.7984 13.0065 17.0845 12.7955 17.2955C12.5845 17.5065 12.2984 17.625 12 17.625C11.7016 17.625 11.4155 17.5065 11.2045 17.2955C10.9935 17.0845 10.875 16.7984 10.875 16.5C10.875 16.2016 10.9935 15.9155 11.2045 15.7045C11.4155 15.4935 11.7016 15.375 12 15.375C12.2984 15.375 12.5845 15.4935 12.7955 15.7045C13.0065 15.9155 13.125 16.2016 13.125 16.5ZM12 6.375C11.7016 6.375 11.4155 6.49353 11.2045 6.7045C10.9935 6.91548 10.875 7.20163 10.875 7.5V12C10.875 12.2984 10.9935 12.5845 11.2045 12.7955C11.4155 13.0065 11.7016 13.125 12 13.125C12.2984 13.125 12.5845 13.0065 12.7955 12.7955C13.0065 12.5845 13.125 12.2984 13.125 12V7.5C13.125 7.20163 13.0065 6.91548 12.7955 6.7045C12.5845 6.49353 12.2984 6.375 12 6.375Z" fill="black"/>
</svg>
