<svg width="24" height="24" viewBox="0 0 24 24" fill="none" xmlns="http://www.w3.org/2000/svg">
<path fill-rule="evenodd" clip-rule="evenodd" d="M12 21C14.3869 21 16.6761 20.0518 18.364 18.364C20.0518 16.6761 21 14.3869 21 12C21 9.61305 20.0518 7.32387 18.364 5.63604C16.6761 3.94821 14.3869 3 12 3C9.61305 3 7.32387 3.94821 5.63604 5.63604C3.94821 7.32387 3 9.61305 3 12C3 14.3869 3.94821 16.6761 5.63604 18.364C7.32387 20.0518 9.61305 21 12 21ZM10.5454 8.95463C10.3332 8.7497 10.049 8.6363 9.75405 8.63887C9.45908 8.64143 9.17691 8.75975 8.96833 8.96833C8.75975 9.17691 8.64143 9.45908 8.63887 9.75405C8.6363 10.049 8.7497 10.3332 8.95463 10.5454L10.4093 12L8.95463 13.4546C8.84718 13.5584 8.76147 13.6825 8.70251 13.8198C8.64355 13.9571 8.61252 14.1047 8.61122 14.254C8.60992 14.4034 8.63838 14.5516 8.69495 14.6898C8.75152 14.8281 8.83505 14.9537 8.94068 15.0593C9.04631 15.1649 9.17192 15.2485 9.31018 15.305C9.44844 15.3616 9.59657 15.3901 9.74595 15.3888C9.89533 15.3875 10.043 15.3564 10.1802 15.2975C10.3175 15.2385 10.4416 15.1528 10.5454 15.0454L12 13.5907L13.4546 15.0454C13.6668 15.2503 13.951 15.3637 14.246 15.3611C14.5409 15.3586 14.8231 15.2403 15.0317 15.0317C15.2403 14.8231 15.3586 14.5409 15.3611 14.246C15.3637 13.951 15.2503 13.6668 15.0454 13.4546L13.5907 12L15.0454 10.5454C15.2503 10.3332 15.3637 10.049 15.3611 9.75405C15.3586 9.45908 15.2403 9.17691 15.0317 8.96833C14.8231 8.75975 14.5409 8.64143 14.246 8.63887C13.951 8.6363 13.6668 8.7497 13.4546 8.95463L12 10.4093L10.5454 8.95463Z" fill="black"/>
</svg>
