<svg width="24" height="24" viewBox="0 0 24 24" fill="none" xmlns="http://www.w3.org/2000/svg">
<path fill-rule="evenodd" clip-rule="evenodd" d="M12 21C16.9706 21 21 16.9706 21 12C21 7.02944 16.9706 3 12 3C7.02944 3 3 7.02944 3 12C3 16.9706 7.02944 21 12 21ZM16.4862 9.75401C16.4888 10.049 16.3754 10.3332 16.1704 10.5453L11.6704 15.0454C11.4594 15.2563 11.1733 15.3748 10.875 15.3748C10.5767 15.3748 10.2906 15.2563 10.0796 15.0454L7.82955 12.7954C7.62462 12.5832 7.51122 12.299 7.51379 12.004C7.51635 11.7091 7.63467 11.4269 7.84326 11.2183C8.05184 11.0097 8.33401 10.8914 8.62899 10.8888C8.92397 10.8863 9.20815 10.9997 9.42033 11.2046L10.875 12.6593L14.5797 8.95457C14.7919 8.74964 15.076 8.63624 15.371 8.63881C15.666 8.64137 15.9482 8.75969 16.1567 8.96827C16.3653 9.17686 16.4837 9.45903 16.4862 9.75401Z" fill="black"/>
</svg>
