<svg width="24" height="24" viewBox="0 0 24 24" fill="none" xmlns="http://www.w3.org/2000/svg">
<path fill-rule="evenodd" clip-rule="evenodd" d="M21 12C21 16.9706 16.9706 21 12 21C7.02944 21 3 16.9706 3 12C3 7.02944 7.02944 3 12 3C16.9706 3 21 7.02944 21 12ZM13.125 7.5C13.125 8.12132 12.6213 8.625 12 8.625C11.3787 8.625 10.875 8.12132 10.875 7.5C10.875 6.87868 11.3787 6.375 12 6.375C12.6213 6.375 13.125 6.87868 13.125 7.5ZM10.875 10.875C10.2537 10.875 9.75 11.3787 9.75 12C9.75 12.6213 10.2537 13.125 10.875 13.125V16.5C10.875 17.1213 11.3787 17.625 12 17.625H13.125C13.7463 17.625 14.25 17.1213 14.25 16.5C14.25 15.8787 13.7463 15.375 13.125 15.375V12C13.125 11.3787 12.6213 10.875 12 10.875H10.875Z" fill="black"/>
</svg>
