<svg width="24" height="24" viewBox="0 0 24 24" fill="none" xmlns="http://www.w3.org/2000/svg">
<path fill-rule="evenodd" clip-rule="evenodd" d="M21 12C21 16.9706 16.9706 21 12 21C7.02944 21 3 16.9706 3 12C3 7.02944 7.02944 3 12 3C16.9706 3 21 7.02944 21 12ZM12.0135 8C11.1066 8 10.37 8.73656 10.37 9.64348C10.37 10.1958 9.92228 10.6435 9.37 10.6435C8.81772 10.6435 8.37 10.1958 8.37 9.64348C8.37 7.63199 10.002 6 12.0135 6C14.025 6 15.657 7.63199 15.657 9.64348C15.657 11.3082 14.5391 12.713 13.0135 13.1479V14.0006C13.0135 14.5529 12.5658 15.0006 12.0135 15.0006C11.4612 15.0006 11.0135 14.5529 11.0135 14.0006V12.287C11.0135 11.7347 11.4612 11.287 12.0135 11.287C12.9204 11.287 13.657 10.5504 13.657 9.64348C13.657 8.73656 12.9204 8 12.0135 8ZM13 17.5C13 18.0523 12.5523 18.5 12 18.5C11.4477 18.5 11 18.0523 11 17.5C11 16.9477 11.4477 16.5 12 16.5C12.5523 16.5 13 16.9477 13 17.5Z" fill="black"/>
</svg>
