<svg width="24" height="24" viewBox="0 0 24 24" fill="none" xmlns="http://www.w3.org/2000/svg">
<path d="M19 11C19 9.41775 18.5308 7.87103 17.6518 6.55544C16.7727 5.23985 15.5233 4.21447 14.0615 3.60897C12.5997 3.00347 10.9911 2.84504 9.43928 3.15372C7.88743 3.4624 6.46197 4.22433 5.34315 5.34315C4.22433 6.46197 3.4624 7.88743 3.15372 9.43928C2.84504 10.9911 3.00347 12.5997 3.60897 14.0615C4.21447 15.5233 5.23985 16.7727 6.55544 17.6518C7.87104 18.5308 9.41775 19 11 19" stroke="black" stroke-width="1.5" stroke-linecap="round" stroke-linejoin="round"/>
<path d="M14.6806 9.43373C14.423 8.82845 14.0201 8.29604 13.5077 7.88365C12.9952 7.47126 12.3889 7.19163 11.7425 7.06952C11.0962 6.94741 10.4296 6.9866 9.80203 7.1836C9.17442 7.38061 8.60509 7.72936 8.14445 8.19896C7.68382 8.66855 7.34611 9.24451 7.16123 9.8758C6.97635 10.5071 6.95002 11.1742 7.08456 11.8181C7.2191 12.462 7.51037 13.0628 7.93255 13.5672C8.35474 14.0717 8.89482 14.4642 9.50494 14.7101" stroke="black" stroke-width="1.5" stroke-linecap="round" stroke-linejoin="round"/>
<path d="M15.0711 20.9636L16.2849 17.5089C16.4861 16.9363 16.9363 16.4861 17.5089 16.2849L20.9636 15.0711L10.9463 10.9463L15.0711 20.9636Z" fill="black" stroke="black" stroke-width="1.5" stroke-linecap="round" stroke-linejoin="round"/>
</svg>
