<svg width="24" height="24" viewBox="0 0 24 24" fill="none" xmlns="http://www.w3.org/2000/svg">
<g clip-path="url(#clip0_12_1051)">
<path d="M12 11.5C13.6569 11.5 15 10.1569 15 8.5C15 6.84315 13.6569 5.5 12 5.5C10.3431 5.5 9 6.84315 9 8.5C9 10.1569 10.3431 11.5 12 11.5Z" stroke="black" stroke-width="1.5" stroke-miterlimit="1.5" stroke-linecap="round" stroke-linejoin="round"/>
<path d="M16.9212 18.5C16.5238 16.064 14.6527 14.5 11.998 14.5C9.34702 14.5 7.47637 16.0638 7.07883 18.5" stroke="black" stroke-width="1.5" stroke-miterlimit="1.5" stroke-linecap="round" stroke-linejoin="round"/>
<path d="M21 7V4C21 3.448 20.552 3 20 3H17" stroke="black" stroke-width="1.5" stroke-miterlimit="1.5" stroke-linecap="round" stroke-linejoin="round"/>
<path d="M17 21H20C20.552 21 21 20.552 21 20V17" stroke="black" stroke-width="1.5" stroke-miterlimit="1.5" stroke-linecap="round" stroke-linejoin="round"/>
<path d="M3 17V20C3 20.552 3.448 21 4 21H7" stroke="black" stroke-width="1.5" stroke-miterlimit="1.5" stroke-linecap="round" stroke-linejoin="round"/>
<path d="M7 3H4C3.448 3 3 3.448 3 4V7" stroke="black" stroke-width="1.5" stroke-miterlimit="1.5" stroke-linecap="round" stroke-linejoin="round"/>
</g>
<defs>
<clipPath id="clip0_12_1051">
<rect width="24" height="24" fill="white"/>
</clipPath>
</defs>
</svg>
