<svg width="24" height="24" viewBox="0 0 24 24" fill="none" xmlns="http://www.w3.org/2000/svg">
<path d="M10 6.75V2.75H14V6.75H10ZM10 14V10H14V14H10ZM10 21.25V17.25H14V21.25H10ZM2.75 6.75V2.75H6.75V6.75H2.75ZM2.75 14V10H6.75V14H2.75ZM2.75 21.25V17.25H6.75V21.25H2.75ZM17.75 6.75V2.75H21.75V6.75H17.75ZM17.75 14V10H21.75V14H17.75ZM17.75 21.25V17.25H21.75V21.25H17.75Z" stroke="black" stroke-width="1.5"/>
<path d="M18 18L13.5 13.5M14 12H17.5M13.5 10.5L18 6M12 6V10M6 6L10.5 10.5M6 12H10M6 18L10.5 13.5M12 18V14" stroke="black" stroke-width="2"/>
</svg>
