<svg width="24" height="24" viewBox="0 0 24 24" fill="none" xmlns="http://www.w3.org/2000/svg">
<g clip-path="url(#clip0_12_1009)">
<path d="M8.829 6.99976C8.4165 8.16451 7.305 9.00001 6 9.00001C4.344 9.00001 3 7.65601 3 6C3 4.344 4.344 3 6 3" stroke="black" stroke-width="1.5" stroke-miterlimit="1.5" stroke-linecap="round" stroke-linejoin="round"/>
<path d="M8.82848 7.00105H15.1706" stroke="black" stroke-width="1.5" stroke-miterlimit="1.5" stroke-linecap="round" stroke-linejoin="round"/>
<path d="M18.0021 3C19.6581 3 21.0021 4.344 21.0021 6C21.0021 7.65601 19.6581 9.00001 18.0021 9.00001C16.6971 9.00001 15.5856 8.16451 15.1731 6.99976" stroke="black" stroke-width="1.5" stroke-miterlimit="1.5" stroke-linecap="round" stroke-linejoin="round"/>
<path d="M18.0003 3H6.00026" stroke="black" stroke-width="1.5" stroke-miterlimit="1.5" stroke-linecap="round" stroke-linejoin="round"/>
<path d="M6.00026 9.00052V21.0005" stroke="black" stroke-width="1.5" stroke-miterlimit="1.5" stroke-linecap="round" stroke-linejoin="round"/>
<path d="M18.0013 9.00052V21.0005" stroke="black" stroke-width="1.5" stroke-miterlimit="1.5" stroke-linecap="round" stroke-linejoin="round"/>
<path d="M13.9982 20V11" stroke="black" stroke-width="1.5" stroke-miterlimit="1.5" stroke-linecap="round" stroke-linejoin="round"/>
<path d="M9.99921 20L9.99921 11" stroke="black" stroke-width="1.5" stroke-miterlimit="1.5" stroke-linecap="round" stroke-linejoin="round"/>
</g>
<defs>
<clipPath id="clip0_12_1009">
<rect width="24" height="24" fill="white"/>
</clipPath>
</defs>
</svg>
