<svg width="24" height="24" viewBox="0 0 24 24" fill="none" xmlns="http://www.w3.org/2000/svg">
<path d="M20 20V10M4 20V10M6.5 20V13H10V20" stroke="black" stroke-width="1.5" stroke-linecap="round" stroke-linejoin="round"/>
<path d="M5.55279 10.2764L4.31947 9.65973C4.11836 9.55917 3.88165 9.55917 3.68054 9.65973C3.09302 9.95348 2.45386 9.36536 2.69781 8.75549L3.80256 5.9936C3.92601 5.68498 4.19537 5.45722 4.52073 5.38921C10.2744 4.18643 13.7235 4.19807 19.4778 5.38996C19.804 5.45753 20.0742 5.68554 20.198 5.99485L21.3022 8.75549C21.5462 9.36537 20.907 9.95348 20.3195 9.65973C20.1184 9.55917 19.8816 9.55917 19.6805 9.65973L18.4472 10.2764C18.1657 10.4171 17.8343 10.4172 17.5528 10.2764L16.4472 9.7236C16.1657 9.58284 15.8343 9.58284 15.5528 9.7236L14.4472 10.2764C14.1657 10.4171 13.8343 10.4172 13.5528 10.2764L12.4472 9.7236C12.1657 9.58284 11.8343 9.58284 11.5528 9.7236L10.4472 10.2764C10.1657 10.4171 9.83432 10.4172 9.55279 10.2764L8.44722 9.7236C8.16569 9.58284 7.83432 9.58284 7.55279 9.7236L6.44722 10.2764C6.16569 10.4171 5.83432 10.4172 5.55279 10.2764Z" stroke="black" stroke-width="1.5" stroke-linecap="round"/>
<path d="M7 5L6 10H10L10.5 5H7Z" fill="black"/>
<path d="M17 5L18 10H14L13.5 5H17Z" fill="black"/>
<path d="M12.5 17V13H17.5V17H12.5Z" stroke="black" stroke-width="1.5" stroke-linecap="round" stroke-linejoin="round"/>
<path d="M3 20H21" stroke="black" stroke-width="1.5" stroke-linecap="round" stroke-linejoin="round"/>
</svg>
