<svg width="24" height="24" viewBox="0 0 24 24" fill="none" xmlns="http://www.w3.org/2000/svg">
<path fill-rule="evenodd" clip-rule="evenodd" d="M10 4.167C10 3.522 9.478 3 8.833 3C7.539 3 5.461 3 4.167 3C3.857 3 3.561 3.123 3.342 3.342C3.123 3.561 3 3.857 3 4.167V8.833C3 9.478 3.522 10 4.167 10C5.118 10 6.491 10 7.667 10C8.955 10 10 8.955 10 7.667V4.167Z" stroke="black" stroke-width="1.5" stroke-miterlimit="1.5" stroke-linecap="round" stroke-linejoin="round"/>
<path fill-rule="evenodd" clip-rule="evenodd" d="M10 16.333C10 15.045 8.955 14 7.667 14H4.167C3.522 14 3 14.522 3 15.167C3 16.461 3 18.539 3 19.833C3 20.143 3.123 20.439 3.342 20.658C3.561 20.877 3.857 21 4.167 21H8.833C9.478 21 10 20.478 10 19.833C10 18.882 10 17.509 10 16.333Z" stroke="black" stroke-width="1.5" stroke-miterlimit="1.5" stroke-linecap="round" stroke-linejoin="round"/>
<path fill-rule="evenodd" clip-rule="evenodd" d="M21 4.167C21 3.857 20.877 3.561 20.658 3.342C20.439 3.123 20.143 3 19.833 3H15.167C14.522 3 14 3.522 14 4.167C14 5.118 14 6.491 14 7.667C14 8.955 15.045 10 16.333 10H19.833C20.478 10 21 9.478 21 8.833C21 7.539 21 5.461 21 4.167Z" stroke="black" stroke-width="1.5" stroke-miterlimit="1.5" stroke-linecap="round" stroke-linejoin="round"/>
<path fill-rule="evenodd" clip-rule="evenodd" d="M21 15.167C21 14.522 20.478 14 19.833 14C18.882 14 17.509 14 16.333 14C15.045 14 14 15.045 14 16.333V19.833C14 20.478 14.522 21 15.167 21C16.461 21 18.539 21 19.833 21C20.143 21 20.439 20.877 20.658 20.658C20.877 20.439 21 20.143 21 19.833V15.167Z" stroke="black" stroke-width="1.5" stroke-miterlimit="1.5" stroke-linecap="round" stroke-linejoin="round"/>
</svg>
