<svg width="24" height="24" viewBox="0 0 24 24" fill="none" xmlns="http://www.w3.org/2000/svg">
<path d="M15 16V18C15 18.53 14.789 19.039 14.414 19.414C14.039 19.789 13.53 20 13 20C11.257 20 8.743 20 7 20C5.895 20 5 19.105 5 18C5 15.339 5 8.66101 5 6C5 4.895 5.895 4 7 4C8.743 4 11.257 4 13 4C13.53 4 14.039 4.211 14.414 4.586C14.789 4.961 15 5.47 15 6C15 6.551 15 8 15 8" stroke="black" stroke-width="1.5" stroke-miterlimit="1.5" stroke-linecap="round" stroke-linejoin="round"/>
<path d="M18 9L21 12L18 15" stroke="black" stroke-width="1.5" stroke-miterlimit="1.5" stroke-linecap="round" stroke-linejoin="round"/>
<path d="M12 12L21 12" stroke="black" stroke-width="1.5" stroke-miterlimit="1.5" stroke-linecap="round" stroke-linejoin="round"/>
</svg>
