<svg width="24" height="24" viewBox="0 0 24 24" fill="none" xmlns="http://www.w3.org/2000/svg">
<path d="M21 11.5C21 9.11305 20.0518 6.82387 18.364 5.13604C16.6761 3.44821 14.3869 2.5 12 2.5M21 11.5H3M21 11.5C21 12.1784 20.9234 12.8489 20.775 13.5M12 2.5C13.657 2.5 16 6.53 16 11.5C16 12.1874 15.9552 12.8568 15.8736 13.5M12 2.5C10.343 2.5 8 6.53 8 11.5C8 12.1874 8.04482 12.8568 8.12644 13.5M12 2.5C9.61305 2.5 7.32387 3.44821 5.63604 5.13604C3.94821 6.82387 3 9.11305 3 11.5M12 2.5V13.5M3 11.5C3 12.1784 3.0766 12.8489 3.225 13.5" stroke="black" stroke-width="1.25" stroke-linecap="round" stroke-linejoin="round"/>
<path d="M4.76107 21.92H2.5C2.22386 21.92 2 21.6961 2 21.42V15.5933C2 15.3172 2.22386 15.0933 2.5 15.0933H4.73304C5.47119 15.0933 6.1089 15.23 6.64617 15.5033C7.18577 15.7744 7.60156 16.1656 7.89356 16.6767C8.18788 17.1856 8.33505 17.7956 8.33505 18.5067C8.33505 19.2178 8.18905 19.8289 7.89706 20.34C7.60507 20.8489 7.19161 21.24 6.65668 21.5133C6.12175 21.7844 5.48988 21.92 4.76107 21.92ZM3.94817 19.8467C3.94817 20.1228 4.17202 20.3467 4.44817 20.3467H4.69099C5.04605 20.3467 5.34856 20.2922 5.5985 20.1833C5.85078 20.0744 6.04233 19.8867 6.17314 19.62C6.30629 19.3533 6.37286 18.9822 6.37286 18.5067C6.37286 18.0311 6.30512 17.66 6.16964 17.3933C6.03649 17.1267 5.84027 16.9389 5.58098 16.83C5.32403 16.7211 5.00868 16.6667 4.63493 16.6667H4.44817C4.17202 16.6667 3.94817 16.8905 3.94817 17.1667V19.8467Z" fill="black"/>
<path d="M14.8467 15.0933C15.1228 15.0933 15.3467 15.3172 15.3467 15.5933V21.42C15.3467 21.6961 15.1228 21.92 14.8467 21.92H13.9764C13.8159 21.92 13.6652 21.843 13.5712 21.7129L11.1363 18.3449C11.1311 18.3376 11.1227 18.3333 11.1137 18.3333C11.0984 18.3333 11.0859 18.3458 11.0859 18.3612V21.42C11.0859 21.6961 10.8621 21.92 10.5859 21.92H9.63775C9.36161 21.92 9.13775 21.6961 9.13775 21.42V15.5933C9.13775 15.3172 9.36161 15.0933 9.63775 15.0933H10.5342C10.6957 15.0933 10.8473 15.1714 10.9411 15.3028L13.3314 18.6512C13.3383 18.6609 13.3495 18.6667 13.3615 18.6667C13.3819 18.6667 13.3985 18.6501 13.3985 18.6297V15.5933C13.3985 15.3172 13.6223 15.0933 13.8985 15.0933H14.8467Z" fill="black"/>
<path d="M20.4975 17.2267C20.2376 17.2267 20.0422 17.0039 19.8755 16.8044C19.846 16.769 19.8125 16.7364 19.775 16.7067C19.6209 16.5822 19.3861 16.52 19.0707 16.52C18.8699 16.52 18.7052 16.5433 18.5767 16.59C18.4506 16.6344 18.3571 16.6956 18.2964 16.7733C18.2356 16.8511 18.2041 16.94 18.2018 17.04C18.1971 17.1222 18.2123 17.1967 18.2473 17.2633C18.2847 17.3278 18.3431 17.3867 18.4225 17.44C18.5019 17.4911 18.6036 17.5378 18.7274 17.58C18.8512 17.6222 18.9983 17.66 19.1689 17.6933L19.7575 17.8133C20.1546 17.8933 20.4945 17.9989 20.7771 18.13C21.0598 18.2611 21.291 18.4156 21.4709 18.5933C21.6508 18.7689 21.7828 18.9667 21.8669 19.1867C21.9533 19.4067 21.9977 19.6467 22 19.9067C21.9977 20.3556 21.8797 20.7356 21.6461 21.0467C21.4125 21.3578 21.0785 21.5944 20.644 21.7567C20.2118 21.9189 19.6921 22 19.0848 22C18.4611 22 17.9168 21.9122 17.4519 21.7367C16.9894 21.5611 16.6297 21.2911 16.3727 20.9267C16.1968 20.6733 16.0811 20.3711 16.0256 20.0201C15.9824 19.7466 16.2124 19.52 16.4894 19.52H17.3645C17.6298 19.52 17.8296 19.7407 17.9569 19.9734C17.9708 19.9987 17.9858 20.0232 18.0021 20.0467C18.1002 20.1889 18.238 20.2967 18.4155 20.37C18.5954 20.4433 18.8091 20.48 19.0567 20.48C19.2646 20.48 19.4387 20.4556 19.5788 20.4067C19.719 20.3578 19.8252 20.29 19.8977 20.2033C19.9701 20.1167 20.0075 20.0178 20.0098 19.9067C20.0075 19.8022 19.9712 19.7111 19.9012 19.6333C19.8334 19.5533 19.7213 19.4822 19.5648 19.42C19.4083 19.3556 19.1969 19.2956 18.9306 19.24L18.2158 19.0933C17.5804 18.9622 17.0794 18.7433 16.7126 18.4367C16.3482 18.1278 16.1672 17.7067 16.1695 17.1733C16.1672 16.74 16.2886 16.3611 16.5339 16.0367C16.7815 15.71 17.1237 15.4556 17.5606 15.2733C17.9997 15.0911 18.5031 15 19.0707 15C19.6501 15 20.1511 15.0922 20.5739 15.2767C20.9967 15.4611 21.3226 15.7211 21.5515 16.0567C21.6922 16.2595 21.7906 16.4833 21.8465 16.7281C21.9083 16.9983 21.6764 17.2267 21.3993 17.2267H20.4975Z" fill="black"/>
</svg>
