<svg width="24" height="24" viewBox="0 0 24 24" fill="none" xmlns="http://www.w3.org/2000/svg">
<g clip-path="url(#clip0_12_1049)">
<path fill-rule="evenodd" clip-rule="evenodd" d="M5.00001 7.99974C3.89501 7.99974 3.00001 8.89474 3.00001 9.99974C3.00001 12.2197 3.00001 15.7798 3.00001 17.9998C3.00001 19.1048 3.89501 19.9998 5.00001 19.9998C8.463 19.9998 15.537 19.9998 19 19.9998C19.53 19.9998 20.039 19.7888 20.414 19.4138C20.789 19.0388 21 18.5298 21 17.9998C21 16.5118 21 14.4877 21 12.9997C21 11.8947 20.105 10.9997 19 10.9997C17.604 10.9997 15.771 10.9997 14.5 10.9997C14.102 10.9997 13.721 10.8417 13.439 10.5607C13.158 10.2787 13 9.89774 13 9.49974C13 9.10174 12.842 8.72074 12.561 8.43874C12.279 8.15774 11.898 7.99974 11.5 7.99974C9.77 7.99974 6.918 7.99974 5.00001 7.99974Z" stroke="black" stroke-width="1.5" stroke-miterlimit="1.5" stroke-linecap="round" stroke-linejoin="round"/>
<path d="M19.0016 8.00001V5C19.0016 3.895 18.1066 3 17.0016 3C14.3396 3 9.66058 3 6.99958 3C5.89658 3 5.00158 3.895 5.00158 4.998C5.00158 4.999 5.00158 5 5.00158 5" stroke="black" stroke-width="1.5" stroke-miterlimit="1.5" stroke-linecap="round" stroke-linejoin="round"/>
<path d="M6.00027 12.0008H10.0003" stroke="black" stroke-width="1.5" stroke-miterlimit="1.5" stroke-linecap="round" stroke-linejoin="round"/>
</g>
<defs>
<clipPath id="clip0_12_1049">
<rect width="24" height="24" fill="white"/>
</clipPath>
</defs>
</svg>
