<svg width="24" height="24" viewBox="0 0 24 24" fill="none" xmlns="http://www.w3.org/2000/svg">
<g clip-path="url(#clip0_12_1044)">
<path fill-rule="evenodd" clip-rule="evenodd" d="M12.0013 3C12.0013 3 8.85228 8.66701 7.55228 11.008C7.41328 11.259 7.38828 11.558 7.48428 11.828C7.58128 12.099 7.78828 12.315 8.05528 12.422C8.84028 12.736 9.91427 13.165 10.7443 13.497C11.5033 13.801 12.0013 14.536 12.0013 15.354C12.0013 17.389 12.0013 21 12.0013 21C12.0013 21 15.1503 15.333 16.4503 12.992C16.5893 12.741 16.6143 12.442 16.5183 12.172C16.4213 11.901 16.2143 11.685 15.9473 11.578C15.1623 11.264 14.0883 10.835 13.2583 10.503C12.4993 10.199 12.0013 9.46401 12.0013 8.64601C12.0013 6.611 12.0013 3 12.0013 3Z" stroke="black" stroke-width="1.5" stroke-miterlimit="1.5" stroke-linecap="round" stroke-linejoin="round"/>
<path d="M16.0015 7.99949C16.8299 7.99949 17.5015 7.32791 17.5015 6.49948C17.5015 5.67105 16.8299 4.99948 16.0015 4.99948C15.173 4.99948 14.5014 5.67105 14.5014 6.49948C14.5014 7.32791 15.173 7.99949 16.0015 7.99949Z" fill="black"/>
<path d="M7.9987 17.001C8.55099 17.001 8.9987 16.5533 8.9987 16.001C8.9987 15.4488 8.55099 15.001 7.9987 15.001C7.44642 15.001 6.9987 15.4488 6.9987 16.001C6.9987 16.5533 7.44642 17.001 7.9987 17.001Z" fill="black"/>
<path d="M6.50001 18.9992C6.77616 18.9992 7.00001 18.7753 7.00001 18.4992C7.00001 18.2231 6.77616 17.9992 6.50001 17.9992C6.22387 17.9992 6.00002 18.2231 6.00002 18.4992C6.00002 18.7753 6.22387 18.9992 6.50001 18.9992Z" fill="black"/>
</g>
<defs>
<clipPath id="clip0_12_1044">
<rect width="24" height="24" fill="white"/>
</clipPath>
</defs>
</svg>
