<svg width="24" height="24" viewBox="0 0 24 24" fill="none" xmlns="http://www.w3.org/2000/svg">
<g clip-path="url(#clip0_12_1703)">
<path d="M8.5 5.99998H5C4.47 5.99998 3.961 6.21098 3.586 6.58598C3.211 6.96098 3 7.46999 3 7.99999V18C3 19.105 3.895 20 5 20H19C20.1046 20 21 19.104 21 17.9994V9.99998C21 9.99998 15.298 13.1683 12.971 14.4603C12.367 14.7963 11.633 14.7963 11.029 14.4603C8.702 13.1683 3 10.0003 3 10.0003" stroke="black" stroke-width="1.5" stroke-miterlimit="1.5" stroke-linecap="round" stroke-linejoin="round"/>
<path d="M17.9997 2L20.9997 5M20.9997 5L17.9997 8.00001M20.9997 5C17 5 12 4 12 10" stroke="black" stroke-width="1.5" stroke-miterlimit="1.5" stroke-linecap="round" stroke-linejoin="round"/>
</g>
<defs>
<clipPath id="clip0_12_1703">
<rect width="24" height="24" fill="white"/>
</clipPath>
</defs>
</svg>
