<svg width="24" height="24" viewBox="0 0 24 24" fill="none" xmlns="http://www.w3.org/2000/svg">
<path d="M18 13.5C20 14.5 21 16.5 21 19" stroke="black" stroke-width="1.5" stroke-miterlimit="1.5" stroke-linecap="round" stroke-linejoin="round"/>
<path d="M12 11C13.933 11 15.5 9.433 15.5 7.5C15.5 5.567 13.933 4 12 4C10.067 4 8.49997 5.567 8.49997 7.5C8.49997 9.433 10.067 11 12 11Z" stroke="black" stroke-width="1.5" stroke-miterlimit="1.5" stroke-linecap="round" stroke-linejoin="round"/>
<path fill-rule="evenodd" clip-rule="evenodd" d="M7.00043 21C6.73555 21 6.48082 20.895 6.29346 20.7078C6.10611 20.5205 5.99997 20.2659 5.99997 20.0008C6.00182 19.9999 6.00181 19.9999 6.00181 19.9999C6.00181 16.8612 8.68571 14 11.9963 14C15.3068 14 18 16.8612 18 19.9999C18 19.9999 18 19.9999 18 20.0008C18 20.2659 17.8938 20.5196 17.7065 20.7069C17.5191 20.895 17.2653 21 17.0004 21C14.7217 21 9.21917 21 7.00043 21Z" stroke="black" stroke-width="1.5" stroke-miterlimit="1.5" stroke-linejoin="round"/>
<path d="M18 10C19.1045 10 20 9.10457 20 8C20 6.89543 19.1045 6 18 6" stroke="black" stroke-width="1.5" stroke-linecap="round"/>
<path d="M5.99997 13.5C3.99997 14.5 2.99997 16.5 2.99996 19" stroke="black" stroke-width="1.5" stroke-miterlimit="1.5" stroke-linecap="round" stroke-linejoin="round"/>
<path d="M5.99997 10C4.8954 10 3.99997 9.10457 3.99997 8C3.99997 6.89543 4.8954 6 5.99997 6" stroke="black" stroke-width="1.5" stroke-linecap="round"/>
</svg>
