<svg width="24" height="24" viewBox="0 0 24 24" fill="none" xmlns="http://www.w3.org/2000/svg">
<path d="M14 21L18.8304 21C19.4486 21.0027 19.9519 20.495 19.9546 19.8661L20 9.22655C20.0051 8.01849 19.5383 6.85786 18.7023 6" stroke="black" stroke-width="1.5" stroke-linecap="round" stroke-linejoin="round"/>
<path d="M8.73036 20.4616L2.92867 17.0788C2.39464 16.7674 2.21734 16.0815 2.53267 15.5467L7.86712 6.49924C8.47282 5.47195 9.46121 4.72434 10.6149 4.42086L14.9647 3.27659L16.0847 7.61014C16.3818 8.75947 16.2084 9.98228 15.6027 11.0096L10.2683 20.057C9.95293 20.5918 9.26439 20.7729 8.73036 20.4616Z" stroke="black" stroke-width="1.5" stroke-linecap="round" stroke-linejoin="round"/>
<path d="M12.7865 9.35528C13.5039 8.94107 13.7526 8.02207 13.3418 7.30264C12.9311 6.58321 12.0165 6.33579 11.299 6.75C10.5816 7.16422 10.333 8.08321 10.7437 8.80264C11.1545 9.52207 12.069 9.7695 12.7865 9.35528Z" fill="black"/>
</svg>
