<svg width="24" height="24" viewBox="0 0 24 24" fill="none" xmlns="http://www.w3.org/2000/svg">
<path d="M11.0948 3.92862C11.4547 3.16182 12.5453 3.16181 12.9052 3.92862L14.7089 7.77138C14.8506 8.07326 15.1335 8.28464 15.4631 8.33501L19.5762 8.96343C20.3808 9.08636 20.7093 10.0677 20.1409 10.6503L17.1025 13.7645C16.8808 13.9917 16.7802 14.3106 16.8313 14.6238L17.5398 18.9676C17.6742 19.7914 16.7996 20.4076 16.069 20.0037L12.4838 18.0219C12.1827 17.8554 11.8173 17.8554 11.5162 18.0219L7.93095 20.0037C7.20039 20.4076 6.32582 19.7914 6.46021 18.9676L7.16875 14.6238C7.21985 14.3106 7.1192 13.9917 6.89755 13.7645L3.85908 10.6503C3.29066 10.0677 3.6192 9.08636 4.4238 8.96343L8.53686 8.33501C8.86651 8.28464 9.14937 8.07326 9.29106 7.77138L11.0948 3.92862Z" fill="black"/>
</svg>
