<svg width="24" height="24" viewBox="0 0 24 24" fill="none" xmlns="http://www.w3.org/2000/svg">
<g clip-path="url(#clip0_49_2753)">
<path fill-rule="evenodd" clip-rule="evenodd" d="M3 10C3 9.44772 3.51659 9 4.15385 9H19.8462C20.4834 9 21 9.44771 21 10V14C21 14.5523 20.4834 15 19.8462 15H4.15385C3.5166 15 3 14.5523 3 14V10ZM4.5 12C4.5 11.1716 5.17157 10.5 6 10.5C6.82843 10.5 7.5 11.1716 7.5 12C7.5 12.8284 6.82843 13.5 6 13.5C5.17157 13.5 4.5 12.8284 4.5 12ZM10 11C9.44772 11 9 11.4477 9 12C9 12.5523 9.44772 13 10 13H18.5C19.0523 13 19.5 12.5523 19.5 12C19.5 11.4477 19.0523 11 18.5 11H10Z" fill="black"/>
<path d="M5 6H19" stroke="black" stroke-width="1.5" stroke-linecap="round"/>
<path d="M5 18H19" stroke="black" stroke-width="1.5" stroke-linecap="round"/>
</g>
<defs>
<clipPath id="clip0_49_2753">
<rect width="24" height="24" fill="white"/>
</clipPath>
</defs>
</svg>
