<svg width="24" height="24" viewBox="0 0 24 24" fill="none" xmlns="http://www.w3.org/2000/svg">
<path d="M20.893 13.393L19.758 12.258C19.5872 12.0869 19.445 11.8893 19.337 11.673L18.257 9.51299C18.2276 9.45437 18.1847 9.40357 18.1318 9.36477C18.079 9.32597 18.0176 9.30029 17.9529 9.28984C17.8881 9.2794 17.8218 9.28448 17.7594 9.30467C17.697 9.32486 17.6403 9.35959 17.594 9.40599C17.4897 9.51021 17.3594 9.58464 17.2166 9.62156C17.0738 9.65849 16.9238 9.65656 16.782 9.61599L15.509 9.25299C15.3053 9.19573 15.0879 9.2129 14.8958 9.30142C14.7036 9.38995 14.5492 9.54403 14.4604 9.73604C14.3716 9.92806 14.354 10.1454 14.4109 10.3492C14.4679 10.553 14.5955 10.7298 14.771 10.848L15.358 11.238C15.948 11.633 16.032 12.468 15.53 12.97L15.33 13.17C15.118 13.382 15 13.668 15 13.966V14.376C15 14.785 14.89 15.185 14.68 15.534L13.365 17.725C13.1775 18.0376 12.9123 18.2964 12.5951 18.476C12.2779 18.6557 11.9195 18.75 11.555 18.75C11.2752 18.75 11.0069 18.6388 10.809 18.441C10.6112 18.2431 10.5 17.9748 10.5 17.695V16.523C10.5 15.603 9.94 14.776 9.086 14.434L8.431 14.173C7.95444 13.9822 7.55744 13.6342 7.30588 13.1868C7.05432 12.7393 6.96332 12.2193 7.048 11.713L7.055 11.671C7.10148 11.3928 7.19986 11.1258 7.345 10.884L7.435 10.734C7.67382 10.3363 8.02972 10.0221 8.45398 9.83454C8.87824 9.64694 9.35011 9.59505 9.805 9.68599L10.983 9.92199C11.2602 9.97728 11.5481 9.92619 11.7893 9.77888C12.0306 9.63157 12.2075 9.39884 12.285 9.12699L12.493 8.39699C12.5651 8.1448 12.5467 7.87535 12.4412 7.63523C12.3356 7.39512 12.1495 7.19943 11.915 7.08199L11.25 6.74999L11.159 6.84099C10.9501 7.04992 10.702 7.21565 10.429 7.32873C10.1561 7.4418 9.86347 7.49999 9.568 7.49999H9.388C9.139 7.49999 8.901 7.59999 8.726 7.77399C8.56562 7.93583 8.35145 8.03323 8.12407 8.04775C7.89669 8.06228 7.67187 7.99292 7.4922 7.8528C7.31253 7.71269 7.19048 7.51155 7.14916 7.28748C7.10784 7.06342 7.15012 6.83197 7.268 6.63699L8.679 4.28399C8.81964 4.0501 8.91655 3.79257 8.965 3.52399M20.893 13.393C21.1352 11.8501 20.9718 10.2708 20.4188 8.81022C19.8657 7.34965 18.9422 6.05812 17.7388 5.0626C16.5355 4.06708 15.0938 3.40182 13.5555 3.13224C12.0172 2.86265 10.4352 2.998 8.965 3.52499M20.893 13.393C20.6466 14.9626 19.989 16.4391 18.9871 17.6722C17.9852 18.9054 16.6747 19.8514 15.1888 20.414C13.7029 20.9766 12.0945 21.1358 10.5271 20.8755C8.95974 20.6151 7.48921 19.9445 6.26498 18.9317C5.04076 17.9189 4.10647 16.6 3.55707 15.1092C3.00767 13.6183 2.86274 12.0086 3.13701 10.4436C3.41127 8.87855 4.09497 7.41403 5.1186 6.19885C6.14223 4.98366 7.46932 4.06113 8.965 3.52499" stroke="black" stroke-width="1.5" stroke-linecap="round" stroke-linejoin="round"/>
</svg>
