<svg width="24" height="24" viewBox="0 0 24 24" fill="none" xmlns="http://www.w3.org/2000/svg">
<path fill-rule="evenodd" clip-rule="evenodd" d="M12 3C15.588 3 18.5 5.94436 18.5 9.57222C18.5 12.577 14.0358 18.726 12.507 20.745C12.3874 20.9054 12.2002 21 12 21C11.7998 21 11.6126 20.9054 11.493 20.745C9.9642 18.726 5.5 12.577 5.5 9.57222C5.5 5.94436 8.412 3 12 3ZM12 6.2765C13.3988 6.2765 14.535 7.42532 14.535 8.83966C14.535 10.2566 13.3988 11.4055 12 11.4055C10.6012 11.4055 9.465 10.2566 9.465 8.83966C9.465 7.42532 10.6012 6.2765 12 6.2765Z" fill="black"/>
</svg>
