<svg width="24" height="24" viewBox="0 0 24 24" fill="none" xmlns="http://www.w3.org/2000/svg">
<path d="M19 3L4.99999 21" stroke="black" stroke-width="1.5" stroke-linecap="round" stroke-linejoin="round" stroke-dasharray="2 3"/>
<path fill-rule="evenodd" clip-rule="evenodd" d="M3.35617 9.67165C3.30278 9.83339 3.42324 10 3.59357 10H5.1928C5.30304 10 5.40027 9.9278 5.43213 9.82226L5.74505 8.78571C5.77691 8.68017 5.87414 8.60796 5.98438 8.60796H8.01119C8.12143 8.60796 8.21866 8.68017 8.25052 8.78571L8.56344 9.82226C8.59531 9.9278 8.69253 10 8.80278 10H10.402C10.5723 10 10.6928 9.83339 10.6394 9.67165L8.40387 2.89892C8.37006 2.79648 8.27435 2.72728 8.16647 2.72728H5.8291C5.72122 2.72728 5.62551 2.79648 5.5917 2.89892L3.35617 9.67165ZM7.41428 7.13069C7.58193 7.13069 7.70206 6.96893 7.65361 6.80844L7.03441 4.75732C7.02953 4.74117 7.01465 4.73012 6.99779 4.73012C6.98092 4.73012 6.96604 4.74117 6.96117 4.75732L6.34196 6.80844C6.29351 6.96893 6.41365 7.13069 6.58129 7.13069H7.41428ZM15.3789 13.7273C15.2408 13.7273 15.1289 13.8392 15.1289 13.9773V20.75C15.1289 20.8881 15.2408 21 15.3789 21H18.5522C19.0801 21 19.5347 20.9112 19.9158 20.7337C20.297 20.5561 20.5906 20.3123 20.7965 20.0021C21.0049 19.692 21.109 19.3381 21.109 18.9403C21.109 18.5971 21.0333 18.2988 20.8818 18.0455C20.7302 17.7898 20.5266 17.5897 20.271 17.4453C20.0258 17.3046 19.7545 17.2259 19.457 17.2092C19.4356 17.208 19.4187 17.1904 19.4187 17.169C19.4187 17.15 19.4321 17.1337 19.4506 17.1297C19.7191 17.0718 19.9546 16.9722 20.1573 16.831C20.368 16.6818 20.5314 16.4972 20.6474 16.277C20.7657 16.0568 20.8249 15.813 20.8249 15.5455C20.8249 15.1761 20.7279 14.8554 20.5337 14.5831C20.342 14.3109 20.0567 14.1001 19.6779 13.951C19.3015 13.8019 18.8363 13.7273 18.2823 13.7273H15.3789ZM18.0266 19.4233H17.3533C17.2153 19.4233 17.1033 19.3114 17.1033 19.1733V18.1392C17.1033 18.0011 17.2153 17.8892 17.3533 17.8892H18.055C18.2563 17.8892 18.4279 17.92 18.57 17.9815C18.7144 18.0431 18.8256 18.1331 18.9038 18.2514C18.9819 18.3698 19.021 18.5142 19.021 18.6847C19.021 18.9285 18.9381 19.1132 18.7724 19.2386C18.6067 19.3617 18.3581 19.4233 18.0266 19.4233ZM17.913 16.6676H17.3533C17.2153 16.6676 17.1033 16.5557 17.1033 16.4176V15.5256C17.1033 15.3875 17.2153 15.2756 17.3533 15.2756H17.9414C18.1876 15.2756 18.3912 15.3359 18.5522 15.4567C18.7132 15.5751 18.7937 15.7467 18.7937 15.9716C18.7937 16.1207 18.7558 16.2474 18.68 16.3516C18.6067 16.4534 18.5037 16.5315 18.3711 16.5859C18.2385 16.6404 18.0858 16.6676 17.913 16.6676Z" fill="black"/>
</svg>
