<svg width="24" height="24" viewBox="0 0 24 24" fill="none" xmlns="http://www.w3.org/2000/svg">
<path d="M15 21C13.343 21 12 19.657 12 18C12 16.937 12 16 12 16H3V18C3 19.657 4.343 21 6 21C8.614 21 12.386 21 15 21ZM15 21C16.657 21 18 19.657 18 18C18 14.671 18 9.329 18 6C18 4.343 19.343 3 21 3H10C8.343 3 7 4.343 7 6C7 9.839 7 16 7 16" stroke="black" stroke-width="1.5" stroke-miterlimit="1.5" stroke-linecap="round" stroke-linejoin="round"/>
<path d="M11 8H14" stroke="black" stroke-width="1.5" stroke-miterlimit="1.5" stroke-linecap="round" stroke-linejoin="round"/>
<path d="M11 12H14" stroke="black" stroke-width="1.5" stroke-miterlimit="1.5" stroke-linecap="round" stroke-linejoin="round"/>
</svg>
