<svg width="24" height="24" viewBox="0 0 24 24" fill="none" xmlns="http://www.w3.org/2000/svg">
<path d="M10.7078 15.6628L9.54336 20.5144C9.49678 20.702 9.3687 20.8586 9.19404 20.9414C9.02197 21.019 8.82272 21.019 8.65065 20.9414L7 19L4.38117 19.0654C4.19616 18.98 4.06161 18.8118 4.01891 18.6126C3.96975 18.4172 4.01762 18.2089 4.14829 18.0563L6.99979 14.0003" stroke="black" stroke-width="1.5" stroke-linecap="round" stroke-linejoin="round"/>
<path d="M13.2884 15.6628L14.4528 20.5144C14.4994 20.702 14.6275 20.8586 14.8021 20.9414C14.9742 21.019 15.1735 21.019 15.3455 20.9414L17 19L19.615 19.0654C19.8 18.98 19.9346 18.8118 19.9773 18.6126C20.0264 18.4172 19.9786 18.2089 19.8479 18.0563L16.9964 14.0003" stroke="black" stroke-width="1.5" stroke-linecap="round" stroke-linejoin="round"/>
<path d="M11.9986 15.644C15.4901 15.644 18.3206 12.8136 18.3206 9.32201C18.3206 5.83046 15.4901 3 11.9986 3C8.50704 3 5.67657 5.83046 5.67657 9.32201C5.67657 12.8136 8.50704 15.644 11.9986 15.644Z" stroke="black" stroke-width="1.5" stroke-linecap="round" stroke-linejoin="round"/>
<path d="M11.9985 12.1318C13.5503 12.1318 14.8083 10.8738 14.8083 9.32198C14.8083 7.77018 13.5503 6.51219 11.9985 6.51219C10.4467 6.51219 9.18875 7.77018 9.18875 9.32198C9.18875 10.8738 10.4467 12.1318 11.9985 12.1318Z" stroke="black" stroke-width="1.5" stroke-linecap="round" stroke-linejoin="round"/>
</svg>
