<svg width="24" height="24" viewBox="0 0 24 24" fill="none" xmlns="http://www.w3.org/2000/svg">
<g clip-path="url(#clip0_12_1050)">
<path d="M5 6.00026C4.47 6.00026 3.961 6.21126 3.586 6.58626C3.211 6.96126 3 7.47026 3 8.00026C3 10.4443 3 12.5563 3 15.0003C3 15.5303 3.211 16.0393 3.586 16.4143C3.961 16.7893 4.47 17.0003 5 17.0003H7V21.0003L9.99999 17.0003H18C18.53 17.0003 19.039 16.7893 19.414 16.4143C19.789 16.0393 20 15.5303 20 15.0003C20 12.5563 20 10.4443 20 8.00026C20 7.47026 19.789 6.96126 19.414 6.58626C19.039 6.21126 18.53 6.00026 18 6.00026" stroke="black" stroke-width="1.5" stroke-miterlimit="1.5" stroke-linecap="round" stroke-linejoin="round"/>
<path d="M11.4984 14.0004C12.0505 14.0004 12.4981 13.5527 12.4981 13.0006C12.4981 12.4484 12.0505 12.0008 11.4984 12.0008C10.9462 12.0008 10.4986 12.4484 10.4986 13.0006C10.4986 13.5527 10.9462 14.0004 11.4984 14.0004Z" fill="black"/>
<path d="M9.05927 5C9.29093 3.85917 10.3009 3 11.5093 3C12.8893 3 14.0093 4.12 14.0093 5.5C14.0093 6.88 12.8893 8 11.5093 8C11.5076 8 11.5001 9.99584 11.5001 9.99584" stroke="black" stroke-width="1.5" stroke-miterlimit="1.5" stroke-linecap="round" stroke-linejoin="round"/>
</g>
<defs>
<clipPath id="clip0_12_1050">
<rect width="24" height="24" fill="white"/>
</clipPath>
</defs>
</svg>
