<svg width="24" height="24" viewBox="0 0 24 24" fill="none" xmlns="http://www.w3.org/2000/svg">
<path d="M15 8.5C15 4 12.0376 3 9 3C5.96243 3 3 4 3 8.5C3 9.83702 3.26152 10.8651 3.70882 11.6497C3.87329 11.9382 3.93527 12.2815 3.82724 12.5955L3 15L8 13.96C8.32982 13.9878 8.66445 14 9 14C12.0376 14 15 13 15 8.5Z" stroke="black" stroke-width="1.5" stroke-linecap="round" stroke-linejoin="round"/>
<path d="M9.40379 17C10.3146 19.3936 12.6345 20 15 20C15.3355 20 15.6702 19.9878 16 19.96L21 21L20.1728 18.5955C20.0647 18.2815 20.1267 17.9382 20.2912 17.6497C20.7385 16.8651 21 15.837 21 14.5C21 11.5534 19.7298 10.1074 18 9.4603" stroke="black" stroke-width="1.5" stroke-linecap="round" stroke-linejoin="round"/>
<circle cx="6" cy="8.5" r="1" fill="black"/>
<circle cx="9" cy="8.5" r="1" fill="black"/>
<circle cx="12" cy="8.5" r="1" fill="black"/>
</svg>
