<svg width="24" height="24" viewBox="0 0 24 24" fill="none" xmlns="http://www.w3.org/2000/svg">
<path d="M9 13V7C9 5.34315 10.3431 4 12 4C13.6569 4 15 5.34315 15 7V13C15 14.6569 13.6569 16 12 16C10.3431 16 9 14.6569 9 13Z" stroke="black" stroke-width="1.5" stroke-linejoin="round"/>
<path d="M18 13C18 14.5913 17.3679 16.1174 16.2426 17.2426C15.1174 18.3679 13.5913 19 12 19M12 19C10.4087 19 8.88258 18.3679 7.75736 17.2426C6.63214 16.1174 6 14.5913 6 13M12 19L12 21.5" stroke="black" stroke-width="1.5" stroke-linecap="round" stroke-linejoin="round"/>
</svg>
