<svg width="24" height="24" viewBox="0 0 24 24" fill="none" xmlns="http://www.w3.org/2000/svg">
<path d="M8.45321 18.7273C8.45321 19.456 8.31152 20.0707 8.02814 20.5714C7.74476 21.07 7.3623 21.4481 6.88076 21.706C6.39923 21.9616 5.8623 22.0895 5.26997 22.0895C4.67338 22.0895 4.13432 21.9606 3.65278 21.7028C3.17338 21.4428 2.79199 21.0636 2.50861 20.565C2.22736 20.0643 2.08673 19.4517 2.08673 18.7273C2.08673 17.9986 2.22736 17.3849 2.50861 16.8864C2.79199 16.3856 3.17338 16.0075 3.65278 15.7518C4.13432 15.494 4.67338 15.3651 5.26997 15.3651C5.8623 15.3651 6.39923 15.494 6.88076 15.7518C7.3623 16.0075 7.74476 16.3856 8.02814 16.8864C8.31152 17.3849 8.45321 17.9986 8.45321 18.7273ZM6.62508 18.7273C6.62508 18.3352 6.57288 18.005 6.46848 17.7365C6.36621 17.4659 6.21386 17.2614 6.01145 17.1229C5.81116 16.9822 5.564 16.9119 5.26997 16.9119C4.97594 16.9119 4.72771 16.9822 4.5253 17.1229C4.32501 17.2614 4.17267 17.4659 4.06827 17.7365C3.96599 18.005 3.91486 18.3352 3.91486 18.7273C3.91486 19.1193 3.96599 19.4506 4.06827 19.7212C4.17267 19.9897 4.32501 20.1942 4.5253 20.3349C4.72771 20.4734 4.97594 20.5426 5.26997 20.5426C5.564 20.5426 5.81116 20.4734 6.01145 20.3349C6.21386 20.1942 6.36621 19.9897 6.46848 19.7212C6.57288 19.4506 6.62508 19.1193 6.62508 18.7273Z" fill="black"/>
<path d="M14.4387 15.4545C14.7149 15.4545 14.9387 15.6784 14.9387 15.9545V21.5C14.9387 21.7761 14.7149 22 14.4387 22H13.7187C13.5541 22 13.4001 21.919 13.3068 21.7833L11.0982 18.572C11.0935 18.5651 11.0858 18.5611 11.0775 18.5611C11.0636 18.5611 11.0524 18.5723 11.0524 18.5862V21.5C11.0524 21.7761 10.8285 22 10.5524 22H9.77538C9.49924 22 9.27538 21.7761 9.27538 21.5V15.9545C9.27538 15.6784 9.49924 15.4545 9.77538 15.4545H10.5191C10.6847 15.4545 10.8396 15.5366 10.9327 15.6736L13.1007 18.866C13.1069 18.8752 13.1172 18.8807 13.1283 18.8807C13.1468 18.8807 13.1617 18.8657 13.1617 18.8472V15.9545C13.1617 15.6784 13.3856 15.4545 13.6617 15.4545H14.4387Z" fill="black"/>
<path d="M20.3567 17.6151C20.1649 17.6151 20.009 17.475 19.899 17.3178C19.8393 17.2305 19.7647 17.157 19.6752 17.0973C19.5879 17.0355 19.4856 16.9897 19.3684 16.9599C19.2534 16.9279 19.1266 16.9119 18.9881 16.9119C18.6898 16.9119 18.4352 16.9833 18.2242 17.1261C18.0154 17.2688 17.8556 17.4744 17.7448 17.7429C17.6362 18.0114 17.5818 18.3352 17.5818 18.7145C17.5818 19.098 17.634 19.4261 17.7385 19.6989C17.8429 19.9716 17.9984 20.1804 18.2051 20.3253C18.4117 20.4702 18.6685 20.5426 18.9753 20.5426C19.2459 20.5426 19.4707 20.5032 19.6497 20.4244C19.8308 20.3455 19.9661 20.2337 20.0556 20.0888C20.2007 19.8538 19.948 19.6094 19.6719 19.6094H19.5009C19.2247 19.6094 19.0009 19.3855 19.0009 19.1094V18.8437C19.0009 18.5676 19.2247 18.3437 19.5009 18.3437H21.4029C21.679 18.3437 21.9029 18.5676 21.9029 18.8437V19.2514C21.9029 19.848 21.7761 20.3583 21.5225 20.7823C21.2711 21.2042 20.9238 21.528 20.4806 21.7539C20.0396 21.9776 19.5336 22.0895 18.9625 22.0895C18.3255 22.0895 17.7662 21.9542 17.2846 21.6836C16.8031 21.413 16.427 21.0273 16.1564 20.5266C15.888 20.0259 15.7537 19.4304 15.7537 18.7401C15.7537 18.1989 15.8358 17.7195 15.9998 17.3018C16.166 16.8842 16.3961 16.5316 16.6902 16.244C16.9842 15.9542 17.324 15.7358 17.7097 15.5888C18.0953 15.4396 18.5087 15.3651 18.9497 15.3651C19.3375 15.3651 19.6976 15.4204 20.03 15.5312C20.3645 15.6399 20.6596 15.7954 20.9153 15.9979C21.1731 16.1981 21.3809 16.4357 21.5385 16.7106C21.6054 16.8272 21.6612 16.9487 21.7059 17.0749C21.8048 17.3545 21.5681 17.6151 21.2715 17.6151H20.3567Z" fill="black"/>
<path d="M21 11.5C21 9.11305 20.0518 6.82387 18.364 5.13604C16.6761 3.44821 14.3869 2.5 12 2.5M21 11.5H3M21 11.5C21 12.1784 20.9234 12.8489 20.775 13.5M12 2.5C13.657 2.5 16 6.53 16 11.5C16 12.1874 15.9552 12.8568 15.8736 13.5M12 2.5C10.343 2.5 8 6.53 8 11.5C8 12.1874 8.04482 12.8568 8.12644 13.5M12 2.5C9.61305 2.5 7.32387 3.44821 5.63604 5.13604C3.94821 6.82387 3 9.11305 3 11.5M12 2.5V13.5M3 11.5C3 12.1784 3.0766 12.8489 3.225 13.5" stroke="black" stroke-width="1.5" stroke-linecap="round" stroke-linejoin="round"/>
</svg>
