<svg width="24" height="24" viewBox="0 0 24 24" fill="none" xmlns="http://www.w3.org/2000/svg">
<g clip-path="url(#clip0_49_2736)">
<path d="M3 14V5C3 3.89543 3.89543 3 5 3H19C20.1046 3 21 3.89543 21 5V14C21 15.1046 20.1046 16 19 16H5C3.89543 16 3 15.1046 3 14Z" stroke="black" stroke-width="1.5" stroke-linecap="round" stroke-linejoin="round"/>
<path d="M17.5 6H18" stroke="black" stroke-width="1.5" stroke-linecap="round" stroke-linejoin="round"/>
<path d="M11 16L10.291 18.8358C10.1119 19.5524 9.5524 20.1119 8.83583 20.291L6 21H18L15.1642 20.291C14.4476 20.1119 13.8881 19.5524 13.709 18.8358L13 16" stroke="black" stroke-width="1.5" stroke-linecap="round" stroke-linejoin="round"/>
</g>
<defs>
<clipPath id="clip0_49_2736">
<rect width="24" height="24" fill="white"/>
</clipPath>
</defs>
</svg>
