<svg width="24" height="24" viewBox="0 0 24 24" fill="none" xmlns="http://www.w3.org/2000/svg">
<path d="M7.64214 3C6.81371 3 6.14214 3.67157 6.14214 4.5C6.14214 5.32843 6.81371 6 7.64214 6C8.47056 6 9.14214 5.32843 9.14214 4.5C9.14214 3.67157 8.47056 3 7.64214 3Z" fill="black"/>
<path d="M5.14214 7C4.58985 7 4.14214 7.44772 4.14214 8C4.14214 8.55228 4.58985 9 5.14214 9C5.69442 9 6.14214 8.55228 6.14214 8C6.14214 7.44772 5.69442 7 5.14214 7Z" fill="black"/>
<path d="M4.64214 11C4.36599 11 4.14214 11.2239 4.14214 11.5C4.14214 11.7761 4.36599 12 4.64214 12C4.91828 12 5.14214 11.7761 5.14214 11.5C5.14214 11.2239 4.91828 11 4.64214 11Z" fill="black"/>
<path d="M13.6421 21C14.4706 21 15.1421 20.3284 15.1421 19.5C15.1421 18.6716 14.4706 18 13.6421 18C12.8137 18 12.1421 18.6716 12.1421 19.5C12.1421 20.3284 12.8137 21 13.6421 21Z" fill="black"/>
<path d="M18.1421 19C18.6944 19 19.1421 18.5523 19.1421 18C19.1421 17.4477 18.6944 17 18.1421 17C17.5899 17 17.1421 17.4477 17.1421 18C17.1421 18.5523 17.5899 19 18.1421 19Z" fill="black"/>
<path d="M19.6421 15C19.9183 15 20.1421 14.7761 20.1421 14.5C20.1421 14.2239 19.9183 14 19.6421 14C19.366 14 19.1421 14.2239 19.1421 14.5C19.1421 14.7761 19.366 15 19.6421 15Z" fill="black"/>
<path fill-rule="evenodd" clip-rule="evenodd" d="M16.2969 3.22678C16.5837 3.37127 16.785 3.64374 16.8384 3.95949C16.891 4.27453 16.7899 4.59488 16.5659 4.81889C16.2177 5.16711 15.8178 5.56697 15.4403 5.9445C15.0704 6.31436 14.8644 6.81876 14.8679 7.34561C14.8714 7.87247 15.084 8.37963 15.4588 8.75439C15.8336 9.12916 16.3407 9.34184 16.8676 9.34531C17.3944 9.34879 17.8988 9.14278 18.2687 8.77293C18.6462 8.3954 19.0461 7.99554 19.3943 7.64732C19.6183 7.42331 19.9387 7.32216 20.2537 7.37482C20.5695 7.42818 20.8419 7.62947 20.9864 7.91632C21.0362 8.01499 21.0868 8.11436 21.1366 8.21303C21.5245 8.98055 21.3803 9.90402 20.7794 10.5049L19.4528 11.8314C18.7124 12.5719 17.705 12.9839 16.6499 12.9769C16.2059 12.974 15.7339 12.9709 15.3166 12.9681C14.5256 12.9629 13.7697 13.2719 13.2143 13.8274C11.9756 15.066 8.82275 18.2189 7.34403 19.6976C6.57431 20.4673 5.31689 20.459 4.53695 19.6791L4.53553 19.6777C4.16077 19.3029 3.94809 18.7957 3.94462 18.2689C3.94114 17.742 4.14714 17.2376 4.517 16.8678C5.99572 15.3891 9.14786 12.2369 10.3858 10.999C10.9413 10.4435 11.2503 9.68757 11.2451 8.89659C11.2423 8.47932 11.2392 8.00726 11.2363 7.5633C11.2293 6.50818 11.6414 5.50079 12.3818 4.76038C12.8109 4.33121 13.2938 3.8483 13.7083 3.43379C14.3092 2.83295 15.2327 2.68872 16.0002 3.07661C16.0988 3.12643 16.1982 3.17696 16.2969 3.22678Z" stroke="black" stroke-width="1.5" stroke-miterlimit="1.5" stroke-linecap="round" stroke-linejoin="round"/>
</svg>
