<svg width="24" height="24" viewBox="0 0 24 24" fill="none" xmlns="http://www.w3.org/2000/svg">
<path d="M12 15C13.6568 15 15 13.6569 15 12C15 10.3431 13.6568 9 12 9C10.3431 9 8.99999 10.3431 8.99999 12C8.99999 13.6569 10.3431 15 12 15Z" stroke="black" stroke-width="1.5" stroke-miterlimit="1.5" stroke-linecap="round" stroke-linejoin="round"/>
<path d="M9.47982 5.42415L10.093 3.88801C10.3037 3.35617 10.8296 3.00242 11.4154 3H12.5845C13.1703 3.00242 13.6975 3.35496 13.9082 3.88679L14.5214 5.42294L16.6003 6.58595L18.2817 6.3376C18.8525 6.26248 19.4171 6.53143 19.7063 7.01602L20.2759 7.98519C20.5738 8.47826 20.5289 9.10217 20.1625 9.5492L19.1218 10.837V13.163L20.1899 14.4508C20.5563 14.8978 20.6024 15.5217 20.3046 16.0148L19.735 16.984C19.4458 17.4686 18.8812 17.7375 18.3104 17.6624L16.629 17.4141L14.5501 18.5771L13.9368 20.1132C13.7262 20.645 13.1977 20.9988 12.612 21H11.4154C10.8296 20.9976 10.3024 20.645 10.0918 20.1132L9.47858 18.5771L7.39963 17.4141L5.71827 17.6624C5.14744 17.7375 4.58283 17.4686 4.29367 16.984L3.72408 16.0148C3.4262 15.5217 3.47107 14.8978 3.8375 14.4508L4.87822 13.163V10.8382L3.81008 9.55041C3.44365 9.10338 3.39753 8.47947 3.69541 7.9864L4.26501 7.01723C4.55416 6.53264 5.11877 6.2637 5.68961 6.33881L7.37096 6.58716L9.47982 5.42415Z" stroke="black" stroke-width="1.5" stroke-linecap="round" stroke-linejoin="round"/>
</svg>
