<svg width="24" height="24" viewBox="0 0 24 24" fill="none" xmlns="http://www.w3.org/2000/svg">
<g clip-path="url(#clip0_12_1057)">
<path d="M10 19H7C6.47 19 5.961 18.789 5.586 18.414C5.211 18.039 5 17.53 5 17C5 14.339 5 7.66101 5 5C5 4.47 5.211 3.961 5.586 3.586C5.961 3.211 6.47 3 7 3C8.986 3 14.014 3 16 3C16.53 3 17.039 3.211 17.414 3.586C17.789 3.961 18 4.47 18 5" stroke="black" stroke-width="1.5" stroke-miterlimit="1.5" stroke-linecap="round" stroke-linejoin="round"/>
<path d="M15.9979 15.8448L15.9979 9.49974C15.9979 9.10174 15.8399 8.72074 15.5589 8.43874C15.2769 8.15774 14.8959 7.99974 14.4979 7.99974C14.0999 7.99974 13.7189 8.15774 13.4369 8.43874C13.1559 8.72074 12.9979 9.10174 12.9979 9.49974C12.9979 11.1637 12.9979 14.8927 12.9979 16.9998C12.9979 17.7958 13.3139 18.5588 13.8769 19.1208C14.4389 19.6838 15.2019 19.9998 15.9979 19.9998C17.6549 19.9998 18.9979 18.6568 18.9979 16.9998C18.9979 14.7297 18.9979 10.9997 18.9979 10.9997" stroke="black" stroke-width="1.5" stroke-miterlimit="1.5" stroke-linecap="round" stroke-linejoin="round"/>
</g>
<defs>
<clipPath id="clip0_12_1057">
<rect width="24" height="24" fill="white"/>
</clipPath>
</defs>
</svg>
