<svg width="24" height="24" viewBox="0 0 24 24" fill="none" xmlns="http://www.w3.org/2000/svg">
<g clip-path="url(#clip0_12_1048)">
<path d="M11.0003 20.0003H10.0003C9.47026 20.0003 8.96126 19.7893 8.58626 19.4143C8.21126 19.0393 8.00026 18.5303 8.00026 18.0003C8.00026 15.3393 8.00026 10.6613 8.00026 8.00026C8.00026 7.47026 8.21126 6.96126 8.58626 6.58626C8.96126 6.21126 9.47026 6.00026 10.0003 6.00026C11.9863 6.00026 15.0143 6.00026 17.0003 6.00026C17.5303 6.00026 18.0393 6.21126 18.4143 6.58626C18.7893 6.96126 19.0003 7.47026 19.0003 8.00026" stroke="black" stroke-width="1.5" stroke-miterlimit="1.5" stroke-linecap="round" stroke-linejoin="round"/>
<path d="M8 17H7C6.47 17 5.961 16.789 5.586 16.414C5.211 16.039 5 15.53 5 15C5 12.339 5 7.66101 5 5C5 4.47 5.211 3.961 5.586 3.586C5.961 3.211 6.47 3 7 3C8.986 3 12.014 3 14 3C14.53 3 15.039 3.211 15.414 3.586C15.789 3.961 16 4.47 16 5C16 5.551 16 6 16 6" stroke="black" stroke-width="1.5" stroke-miterlimit="1.5" stroke-linecap="round" stroke-linejoin="round"/>
<path d="M17.0008 17.8442L17.0008 11.4992C17.0008 11.1012 16.8428 10.7202 16.5618 10.4382C16.2798 10.1572 15.8988 9.99921 15.5008 9.99921C15.1028 9.99921 14.7218 10.1572 14.4398 10.4382C14.1588 10.7202 14.0008 11.1012 14.0008 11.4992C14.0008 13.1632 14.0008 15.8922 14.0008 17.9992C14.0008 18.7952 14.3168 19.5582 14.8798 20.1202C15.4418 20.6832 16.2048 20.9992 17.0008 20.9992C18.6578 20.9992 20.0008 19.6562 20.0008 17.9992C20.0008 15.7292 20.0008 12.9992 20.0008 12.9992" stroke="black" stroke-width="1.5" stroke-miterlimit="1.5" stroke-linecap="round" stroke-linejoin="round"/>
</g>
<defs>
<clipPath id="clip0_12_1048">
<rect width="24" height="24" fill="white"/>
</clipPath>
</defs>
</svg>
