<svg width="24" height="24" viewBox="0 0 24 24" fill="none" xmlns="http://www.w3.org/2000/svg">
<path d="M10 17H9.25V17L10 17ZM4 20L3.4 19.55C3.22955 19.7773 3.20214 20.0813 3.32918 20.3354C3.45622 20.5895 3.71592 20.75 4 20.75V20ZM9.25 17C9.25 17.7818 8.88773 18.31 8.32597 18.6743C7.73437 19.058 6.92245 19.25 6.14286 19.25V20.75C7.13032 20.75 8.24696 20.5134 9.14218 19.9328C10.0672 19.3329 10.75 18.361 10.75 17L9.25 17ZM5.60714 16.5714C5.60714 16.2527 5.70396 15.7519 5.94656 15.3564C6.16898 14.9938 6.48538 14.75 7 14.75V13.25C5.85777 13.25 5.10273 13.8633 4.66794 14.5721C4.25332 15.2481 4.10714 16.0331 4.10714 16.5714H5.60714ZM7 14.75C8.24264 14.75 9.25 15.7574 9.25 17H10.75C10.75 14.9289 9.07107 13.25 7 13.25V14.75ZM6.14286 19.25C6.14035 19.25 6.13784 19.25 6.13534 19.25C6.13285 19.25 6.13035 19.25 6.12787 19.25C6.12538 19.25 6.12291 19.25 6.12043 19.25C6.11796 19.25 6.1155 19.25 6.11304 19.25C6.11058 19.25 6.10812 19.25 6.10568 19.25C6.10323 19.25 6.10079 19.25 6.09836 19.25C6.09592 19.25 6.0935 19.25 6.09108 19.25C6.08866 19.25 6.08624 19.25 6.08383 19.25C6.08142 19.25 6.07902 19.25 6.07663 19.25C6.07423 19.25 6.07184 19.25 6.06946 19.25C6.06708 19.25 6.0647 19.25 6.06233 19.25C6.05996 19.25 6.0576 19.25 6.05524 19.25C6.05288 19.25 6.05053 19.25 6.04818 19.25C6.04584 19.25 6.0435 19.25 6.04116 19.25C6.03883 19.25 6.0365 19.25 6.03418 19.25C6.03186 19.25 6.02955 19.25 6.02724 19.25C6.02493 19.25 6.02263 19.25 6.02033 19.25C6.01804 19.25 6.01575 19.25 6.01346 19.25C6.01118 19.25 6.0089 19.25 6.00663 19.25C6.00436 19.25 6.00209 19.25 5.99983 19.25C5.99757 19.25 5.99532 19.25 5.99307 19.25C5.99082 19.25 5.98858 19.25 5.98634 19.25C5.98411 19.25 5.98188 19.25 5.97966 19.25C5.97743 19.25 5.97521 19.25 5.973 19.25C5.97079 19.25 5.96858 19.25 5.96638 19.25C5.96418 19.25 5.96199 19.25 5.9598 19.25C5.95761 19.25 5.95543 19.25 5.95325 19.25C5.95108 19.25 5.94891 19.25 5.94674 19.25C5.94458 19.25 5.94242 19.25 5.94026 19.25C5.93811 19.25 5.93596 19.25 5.93382 19.25C5.93168 19.25 5.92954 19.25 5.92741 19.25C5.92528 19.25 5.92316 19.25 5.92104 19.25C5.91892 19.25 5.91681 19.25 5.9147 19.25C5.91259 19.25 5.91049 19.25 5.90839 19.25C5.9063 19.25 5.90421 19.25 5.90212 19.25C5.90004 19.25 5.89796 19.25 5.89589 19.25C5.89381 19.25 5.89175 19.25 5.88968 19.25C5.88762 19.25 5.88556 19.25 5.88351 19.25C5.88146 19.25 5.87942 19.25 5.87738 19.25C5.87534 19.25 5.8733 19.25 5.87127 19.25C5.86924 19.25 5.86722 19.25 5.8652 19.25C5.86319 19.25 5.86117 19.25 5.85917 19.25C5.85716 19.25 5.85516 19.25 5.85316 19.25C5.85117 19.25 5.84918 19.25 5.84719 19.25C5.8452 19.25 5.84323 19.25 5.84125 19.25C5.83928 19.25 5.83731 19.25 5.83534 19.25C5.83338 19.25 5.83142 19.25 5.82947 19.25C5.82752 19.25 5.82557 19.25 5.82363 19.25C5.82168 19.25 5.81975 19.25 5.81782 19.25C5.81588 19.25 5.81396 19.25 5.81204 19.25C5.81012 19.25 5.8082 19.25 5.80629 19.25C5.80438 19.25 5.80247 19.25 5.80057 19.25C5.79867 19.25 5.79678 19.25 5.79489 19.25C5.793 19.25 5.79111 19.25 5.78923 19.25C5.78736 19.25 5.78548 19.25 5.78361 19.25C5.78174 19.25 5.77988 19.25 5.77802 19.25C5.77616 19.25 5.77431 19.25 5.77246 19.25C5.77061 19.25 5.76877 19.25 5.76693 19.25C5.76509 19.25 5.76326 19.25 5.76143 19.25C5.7596 19.25 5.75778 19.25 5.75596 19.25C5.75414 19.25 5.75233 19.25 5.75052 19.25C5.74871 19.25 5.74691 19.25 5.74511 19.25C5.74331 19.25 5.74152 19.25 5.73973 19.25C5.73794 19.25 5.73615 19.25 5.73438 19.25C5.7326 19.25 5.73082 19.25 5.72905 19.25C5.72729 19.25 5.72552 19.25 5.72376 19.25C5.722 19.25 5.72025 19.25 5.7185 19.25C5.71675 19.25 5.715 19.25 5.71326 19.25C5.71152 19.25 5.70979 19.25 5.70806 19.25C5.70633 19.25 5.7046 19.25 5.70288 19.25C5.70116 19.25 5.69945 19.25 5.69773 19.25C5.69602 19.25 5.69432 19.25 5.69261 19.25C5.69091 19.25 5.68922 19.25 5.68752 19.25C5.68583 19.25 5.68414 19.25 5.68246 19.25C5.68078 19.25 5.6791 19.25 5.67742 19.25C5.67575 19.25 5.67408 19.25 5.67242 19.25C5.67075 19.25 5.66909 19.25 5.66744 19.25C5.66578 19.25 5.66413 19.25 5.66248 19.25C5.66084 19.25 5.65919 19.25 5.65756 19.25C5.65592 19.25 5.65429 19.25 5.65266 19.25C5.65103 19.25 5.64941 19.25 5.64779 19.25C5.64617 19.25 5.64455 19.25 5.64294 19.25C5.64133 19.25 5.63973 19.25 5.63812 19.25C5.63652 19.25 5.63493 19.25 5.63333 19.25C5.63174 19.25 5.63015 19.25 5.62857 19.25C5.62698 19.25 5.6254 19.25 5.62383 19.25C5.62225 19.25 5.62068 19.25 5.61912 19.25C5.61755 19.25 5.61599 19.25 5.61443 19.25C5.61287 19.25 5.61132 19.25 5.60977 19.25C5.60822 19.25 5.60667 19.25 5.60513 19.25C5.60359 19.25 5.60205 19.25 5.60052 19.25C5.59899 19.25 5.59746 19.25 5.59594 19.25C5.59441 19.25 5.59289 19.25 5.59138 19.25C5.58986 19.25 5.58835 19.25 5.58684 19.25C5.58533 19.25 5.58383 19.25 5.58233 19.25C5.58083 19.25 5.57934 19.25 5.57785 19.25C5.57636 19.25 5.57487 19.25 5.57339 19.25C5.5719 19.25 5.57042 19.25 5.56895 19.25C5.56747 19.25 5.566 19.25 5.56454 19.25C5.56307 19.25 5.56161 19.25 5.56015 19.25C5.55869 19.25 5.55724 19.25 5.55578 19.25C5.55433 19.25 5.55289 19.25 5.55144 19.25C5.55 19.25 5.54856 19.25 5.54713 19.25C5.54569 19.25 5.54426 19.25 5.54283 19.25C5.54141 19.25 5.53998 19.25 5.53856 19.25C5.53714 19.25 5.53573 19.25 5.53432 19.25C5.53291 19.25 5.5315 19.25 5.53009 19.25C5.52869 19.25 5.52729 19.25 5.52589 19.25C5.5245 19.25 5.5231 19.25 5.52171 19.25C5.52032 19.25 5.51894 19.25 5.51756 19.25C5.51618 19.25 5.5148 19.25 5.51342 19.25C5.51205 19.25 5.51068 19.25 5.50931 19.25C5.50795 19.25 5.50658 19.25 5.50522 19.25C5.50386 19.25 5.50251 19.25 5.50116 19.25C5.4998 19.25 5.49846 19.25 5.49711 19.25C5.49577 19.25 5.49442 19.25 5.49309 19.25C5.49175 19.25 5.49041 19.25 5.48908 19.25C5.48775 19.25 5.48643 19.25 5.4851 19.25C5.48378 19.25 5.48246 19.25 5.48114 19.25C5.47983 19.25 5.47851 19.25 5.4772 19.25C5.47589 19.25 5.47459 19.25 5.47329 19.25C5.47198 19.25 5.47068 19.25 5.46939 19.25C5.46809 19.25 5.4668 19.25 5.46551 19.25C5.46422 19.25 5.46294 19.25 5.46165 19.25C5.46037 19.25 5.45909 19.25 5.45782 19.25C5.45654 19.25 5.45527 19.25 5.454 19.25C5.45273 19.25 5.45147 19.25 5.45021 19.25C5.44894 19.25 5.44768 19.25 5.44643 19.25C5.44517 19.25 5.44392 19.25 5.44267 19.25C5.44142 19.25 5.44018 19.25 5.43893 19.25C5.43769 19.25 5.43645 19.25 5.43522 19.25C5.43398 19.25 5.43275 19.25 5.43152 19.25C5.43029 19.25 5.42906 19.25 5.42784 19.25C5.42661 19.25 5.42539 19.25 5.42418 19.25C5.42296 19.25 5.42174 19.25 5.42053 19.25C5.41932 19.25 5.41811 19.25 5.41691 19.25C5.41571 19.25 5.4145 19.25 5.4133 19.25C5.41211 19.25 5.41091 19.25 5.40972 19.25C5.40852 19.25 5.40733 19.25 5.40615 19.25C5.40496 19.25 5.40378 19.25 5.4026 19.25C5.40142 19.25 5.40024 19.25 5.39906 19.25C5.39789 19.25 5.39672 19.25 5.39555 19.25C5.39438 19.25 5.39321 19.25 5.39205 19.25C5.39089 19.25 5.38973 19.25 5.38857 19.25C5.38741 19.25 5.38626 19.25 5.3851 19.25C5.38395 19.25 5.3828 19.25 5.38166 19.25C5.38051 19.25 5.37937 19.25 5.37823 19.25C5.37709 19.25 5.37595 19.25 5.37481 19.25C5.37368 19.25 5.37255 19.25 5.37142 19.25C5.37029 19.25 5.36916 19.25 5.36804 19.25C5.36691 19.25 5.36579 19.25 5.36467 19.25C5.36355 19.25 5.36244 19.25 5.36132 19.25C5.36021 19.25 5.3591 19.25 5.35799 19.25C5.35688 19.25 5.35578 19.25 5.35468 19.25C5.35357 19.25 5.35247 19.25 5.35138 19.25C5.35028 19.25 5.34918 19.25 5.34809 19.25C5.347 19.25 5.34591 19.25 5.34482 19.25C5.34373 19.25 5.34265 19.25 5.34157 19.25C5.34048 19.25 5.3394 19.25 5.33833 19.25C5.33725 19.25 5.33617 19.25 5.3351 19.25C5.33403 19.25 5.33296 19.25 5.33189 19.25C5.33082 19.25 5.32976 19.25 5.3287 19.25C5.32763 19.25 5.32657 19.25 5.32551 19.25C5.32446 19.25 5.3234 19.25 5.32235 19.25C5.32129 19.25 5.32024 19.25 5.31919 19.25C5.31815 19.25 5.3171 19.25 5.31606 19.25C5.31501 19.25 5.31397 19.25 5.31293 19.25C5.31189 19.25 5.31085 19.25 5.30982 19.25C5.30878 19.25 5.30775 19.25 5.30672 19.25C5.30569 19.25 5.30466 19.25 5.30364 19.25C5.30261 19.25 5.30159 19.25 5.30057 19.25C5.29954 19.25 5.29852 19.25 5.29751 19.25C5.29649 19.25 5.29547 19.25 5.29446 19.25C5.29345 19.25 5.29244 19.25 5.29143 19.25C5.29042 19.25 5.28941 19.25 5.28841 19.25C5.2874 19.25 5.2864 19.25 5.2854 19.25C5.2844 19.25 5.2834 19.25 5.28241 19.25C5.28141 19.25 5.28041 19.25 5.27942 19.25C5.27843 19.25 5.27744 19.25 5.27645 19.25C5.27546 19.25 5.27448 19.25 5.27349 19.25C5.27251 19.25 5.27152 19.25 5.27054 19.25C5.26956 19.25 5.26858 19.25 5.26761 19.25C5.26663 19.25 5.26565 19.25 5.26468 19.25C5.26371 19.25 5.26274 19.25 5.26177 19.25C5.2608 19.25 5.25983 19.25 5.25886 19.25C5.2579 19.25 5.25693 19.25 5.25597 19.25C5.25501 19.25 5.25405 19.25 5.25309 19.25C5.25213 19.25 5.25118 19.25 5.25022 19.25C5.24926 19.25 5.24831 19.25 5.24736 19.25C5.24641 19.25 5.24546 19.25 5.24451 19.25C5.24356 19.25 5.24261 19.25 5.24167 19.25C5.24072 19.25 5.23978 19.25 5.23884 19.25C5.2379 19.25 5.23696 19.25 5.23602 19.25C5.23508 19.25 5.23414 19.25 5.23321 19.25C5.23227 19.25 5.23134 19.25 5.23041 19.25C5.22948 19.25 5.22855 19.25 5.22762 19.25C5.22669 19.25 5.22576 19.25 5.22483 19.25C5.22391 19.25 5.22298 19.25 5.22206 19.25C5.22114 19.25 5.22022 19.25 5.2193 19.25C5.21838 19.25 5.21746 19.25 5.21654 19.25C5.21562 19.25 5.21471 19.25 5.21379 19.25C5.21288 19.25 5.21197 19.25 5.21105 19.25C5.21014 19.25 5.20923 19.25 5.20832 19.25C5.20741 19.25 5.20651 19.25 5.2056 19.25C5.2047 19.25 5.20379 19.25 5.20289 19.25C5.20198 19.25 5.20108 19.25 5.20018 19.25C5.19928 19.25 5.19838 19.25 5.19748 19.25C5.19658 19.25 5.19569 19.25 5.19479 19.25C5.19389 19.25 5.193 19.25 5.19211 19.25C5.19121 19.25 5.19032 19.25 5.18943 19.25C5.18854 19.25 5.18765 19.25 5.18676 19.25C5.18587 19.25 5.18498 19.25 5.1841 19.25C5.18321 19.25 5.18232 19.25 5.18144 19.25C5.18056 19.25 5.17967 19.25 5.17879 19.25C5.17791 19.25 5.17703 19.25 5.17615 19.25C5.17527 19.25 5.17439 19.25 5.17351 19.25C5.17263 19.25 5.17176 19.25 5.17088 19.25C5.17 19.25 5.16913 19.25 5.16825 19.25C5.16738 19.25 5.16651 19.25 5.16564 19.25C5.16476 19.25 5.16389 19.25 5.16302 19.25C5.16215 19.25 5.16128 19.25 5.16041 19.25C5.15955 19.25 5.15868 19.25 5.15781 19.25C5.15695 19.25 5.15608 19.25 5.15522 19.25C5.15435 19.25 5.15349 19.25 5.15262 19.25C5.15176 19.25 5.1509 19.25 5.15004 19.25C5.14917 19.25 5.14831 19.25 5.14745 19.25C5.14659 19.25 5.14573 19.25 5.14488 19.25C5.14402 19.25 5.14316 19.25 5.1423 19.25C5.14145 19.25 5.14059 19.25 5.13973 19.25C5.13888 19.25 5.13802 19.25 5.13717 19.25C5.13631 19.25 5.13546 19.25 5.13461 19.25C5.13375 19.25 5.1329 19.25 5.13205 19.25C5.1312 19.25 5.13035 19.25 5.1295 19.25C5.12865 19.25 5.1278 19.25 5.12695 19.25C5.1261 19.25 5.12525 19.25 5.1244 19.25C5.12355 19.25 5.1227 19.25 5.12186 19.25C5.12101 19.25 5.12016 19.25 5.11932 19.25C5.11847 19.25 5.11762 19.25 5.11678 19.25C5.11593 19.25 5.11509 19.25 5.11424 19.25C5.1134 19.25 5.11256 19.25 5.11171 19.25C5.11087 19.25 5.11003 19.25 5.10918 19.25C5.10834 19.25 5.1075 19.25 5.10666 19.25C5.10581 19.25 5.10497 19.25 5.10413 19.25C5.10329 19.25 5.10245 19.25 5.10161 19.25C5.10077 19.25 5.09993 19.25 5.09909 19.25C5.09825 19.25 5.09741 19.25 5.09657 19.25C5.09573 19.25 5.09489 19.25 5.09405 19.25C5.09321 19.25 5.09237 19.25 5.09153 19.25C5.09069 19.25 5.08985 19.25 5.08902 19.25C5.08818 19.25 5.08734 19.25 5.0865 19.25C5.08566 19.25 5.08483 19.25 5.08399 19.25C5.08315 19.25 5.08231 19.25 5.08148 19.25C5.08064 19.25 5.0798 19.25 5.07896 19.25C5.07813 19.25 5.07729 19.25 5.07645 19.25C5.07561 19.25 5.07478 19.25 5.07394 19.25C5.0731 19.25 5.07227 19.25 5.07143 19.25C5.07059 19.25 5.06975 19.25 5.06892 19.25C5.06808 19.25 5.06724 19.25 5.06641 19.25C5.06557 19.25 5.06473 19.25 5.06389 19.25C5.06306 19.25 5.06222 19.25 5.06138 19.25C5.06055 19.25 5.05971 19.25 5.05887 19.25C5.05803 19.25 5.05719 19.25 5.05636 19.25C5.05552 19.25 5.05468 19.25 5.05384 19.25C5.053 19.25 5.05217 19.25 5.05133 19.25C5.05049 19.25 5.04965 19.25 5.04881 19.25C5.04797 19.25 5.04713 19.25 5.04629 19.25C5.04545 19.25 5.04461 19.25 5.04377 19.25C5.04293 19.25 5.04209 19.25 5.04125 19.25C5.04041 19.25 5.03957 19.25 5.03873 19.25C5.03789 19.25 5.03704 19.25 5.0362 19.25C5.03536 19.25 5.03452 19.25 5.03368 19.25C5.03283 19.25 5.03199 19.25 5.03115 19.25C5.0303 19.25 5.02946 19.25 5.02861 19.25C5.02777 19.25 5.02692 19.25 5.02608 19.25C5.02523 19.25 5.02439 19.25 5.02354 19.25C5.0227 19.25 5.02185 19.25 5.021 19.25C5.02015 19.25 5.01931 19.25 5.01846 19.25C5.01761 19.25 5.01676 19.25 5.01591 19.25C5.01506 19.25 5.01421 19.25 5.01336 19.25C5.01251 19.25 5.01166 19.25 5.01081 19.25C5.00996 19.25 5.0091 19.25 5.00825 19.25C5.0074 19.25 5.00654 19.25 5.00569 19.25C5.00484 19.25 5.00398 19.25 5.00312 19.25C5.00227 19.25 5.00141 19.25 5.00056 19.25C4.9997 19.25 4.99884 19.25 4.99798 19.25C4.99712 19.25 4.99626 19.25 4.9954 19.25C4.99454 19.25 4.99368 19.25 4.99282 19.25C4.99196 19.25 4.9911 19.25 4.99023 19.25C4.98937 19.25 4.98851 19.25 4.98764 19.25C4.98678 19.25 4.98591 19.25 4.98505 19.25C4.98418 19.25 4.98331 19.25 4.98244 19.25C4.98157 19.25 4.98071 19.25 4.97984 19.25C4.97897 19.25 4.97809 19.25 4.97722 19.25C4.97635 19.25 4.97548 19.25 4.9746 19.25C4.97373 19.25 4.97285 19.25 4.97198 19.25C4.9711 19.25 4.97023 19.25 4.96935 19.25C4.96847 19.25 4.96759 19.25 4.96671 19.25C4.96583 19.25 4.96495 19.25 4.96407 19.25C4.96319 19.25 4.9623 19.25 4.96142 19.25C4.96053 19.25 4.95965 19.25 4.95876 19.25C4.95788 19.25 4.95699 19.25 4.9561 19.25C4.95521 19.25 4.95432 19.25 4.95343 19.25C4.95254 19.25 4.95165 19.25 4.95075 19.25C4.94986 19.25 4.94896 19.25 4.94807 19.25C4.94717 19.25 4.94628 19.25 4.94538 19.25C4.94448 19.25 4.94358 19.25 4.94268 19.25C4.94178 19.25 4.94087 19.25 4.93997 19.25C4.93907 19.25 4.93816 19.25 4.93726 19.25C4.93635 19.25 4.93544 19.25 4.93453 19.25C4.93363 19.25 4.93272 19.25 4.9318 19.25C4.93089 19.25 4.92998 19.25 4.92907 19.25C4.92815 19.25 4.92724 19.25 4.92632 19.25C4.9254 19.25 4.92448 19.25 4.92356 19.25C4.92264 19.25 4.92172 19.25 4.9208 19.25C4.91987 19.25 4.91895 19.25 4.91802 19.25C4.9171 19.25 4.91617 19.25 4.91524 19.25C4.91431 19.25 4.91338 19.25 4.91245 19.25C4.91152 19.25 4.91058 19.25 4.90965 19.25C4.90871 19.25 4.90778 19.25 4.90684 19.25C4.9059 19.25 4.90496 19.25 4.90402 19.25C4.90308 19.25 4.90213 19.25 4.90119 19.25C4.90024 19.25 4.8993 19.25 4.89835 19.25C4.8974 19.25 4.89645 19.25 4.8955 19.25C4.89455 19.25 4.89359 19.25 4.89264 19.25C4.89168 19.25 4.89073 19.25 4.88977 19.25C4.88881 19.25 4.88785 19.25 4.88689 19.25C4.88592 19.25 4.88496 19.25 4.88399 19.25C4.88303 19.25 4.88206 19.25 4.88109 19.25C4.88012 19.25 4.87915 19.25 4.87818 19.25C4.8772 19.25 4.87623 19.25 4.87525 19.25C4.87427 19.25 4.8733 19.25 4.87232 19.25C4.87133 19.25 4.87035 19.25 4.86937 19.25C4.86838 19.25 4.8674 19.25 4.86641 19.25C4.86542 19.25 4.86443 19.25 4.86344 19.25C4.86244 19.25 4.86145 19.25 4.86045 19.25C4.85946 19.25 4.85846 19.25 4.85746 19.25C4.85646 19.25 4.85545 19.25 4.85445 19.25C4.85344 19.25 4.85244 19.25 4.85143 19.25C4.85042 19.25 4.84941 19.25 4.8484 19.25C4.84738 19.25 4.84637 19.25 4.84535 19.25C4.84433 19.25 4.84331 19.25 4.84229 19.25C4.84127 19.25 4.84025 19.25 4.83922 19.25C4.8382 19.25 4.83717 19.25 4.83614 19.25C4.83511 19.25 4.83407 19.25 4.83304 19.25C4.832 19.25 4.83097 19.25 4.82993 19.25C4.82889 19.25 4.82785 19.25 4.8268 19.25C4.82576 19.25 4.82471 19.25 4.82366 19.25C4.82261 19.25 4.82156 19.25 4.82051 19.25C4.81946 19.25 4.8184 19.25 4.81734 19.25C4.81629 19.25 4.81523 19.25 4.81416 19.25C4.8131 19.25 4.81203 19.25 4.81097 19.25C4.8099 19.25 4.80883 19.25 4.80776 19.25C4.80668 19.25 4.80561 19.25 4.80453 19.25C4.80345 19.25 4.80237 19.25 4.80129 19.25C4.80021 19.25 4.79913 19.25 4.79804 19.25C4.79695 19.25 4.79586 19.25 4.79477 19.25C4.79368 19.25 4.79258 19.25 4.79148 19.25C4.79039 19.25 4.78928 19.25 4.78818 19.25C4.78708 19.25 4.78597 19.25 4.78487 19.25C4.78376 19.25 4.78265 19.25 4.78153 19.25C4.78042 19.25 4.7793 19.25 4.77819 19.25C4.77707 19.25 4.77595 19.25 4.77482 19.25C4.7737 19.25 4.77257 19.25 4.77144 19.25C4.77031 19.25 4.76918 19.25 4.76804 19.25C4.76691 19.25 4.76577 19.25 4.76463 19.25C4.76349 19.25 4.76235 19.25 4.7612 19.25C4.76005 19.25 4.75891 19.25 4.75775 19.25C4.7566 19.25 4.75545 19.25 4.75429 19.25C4.75313 19.25 4.75197 19.25 4.75081 19.25C4.74965 19.25 4.74848 19.25 4.74731 19.25C4.74614 19.25 4.74497 19.25 4.74379 19.25C4.74262 19.25 4.74144 19.25 4.74026 19.25C4.73908 19.25 4.7379 19.25 4.73671 19.25C4.73552 19.25 4.73433 19.25 4.73314 19.25C4.73195 19.25 4.73075 19.25 4.72955 19.25C4.72835 19.25 4.72715 19.25 4.72595 19.25C4.72474 19.25 4.72354 19.25 4.72232 19.25C4.72111 19.25 4.7199 19.25 4.71868 19.25C4.71746 19.25 4.71624 19.25 4.71502 19.25C4.7138 19.25 4.71257 19.25 4.71134 19.25C4.71011 19.25 4.70888 19.25 4.70764 19.25C4.70641 19.25 4.70517 19.25 4.70392 19.25C4.70268 19.25 4.70143 19.25 4.70019 19.25C4.69894 19.25 4.69768 19.25 4.69643 19.25C4.69517 19.25 4.69391 19.25 4.69265 19.25C4.69139 19.25 4.69012 19.25 4.68886 19.25C4.68759 19.25 4.68632 19.25 4.68504 19.25C4.68376 19.25 4.68249 19.25 4.6812 19.25C4.67992 19.25 4.67864 19.25 4.67735 19.25C4.67606 19.25 4.67477 19.25 4.67347 19.25C4.67217 19.25 4.67087 19.25 4.66957 19.25C4.66827 19.25 4.66696 19.25 4.66565 19.25C4.66434 19.25 4.66303 19.25 4.66172 19.25C4.6604 19.25 4.65908 19.25 4.65775 19.25C4.65643 19.25 4.6551 19.25 4.65377 19.25C4.65244 19.25 4.65111 19.25 4.64977 19.25C4.64843 19.25 4.64709 19.25 4.64575 19.25C4.6444 19.25 4.64305 19.25 4.6417 19.25C4.64035 19.25 4.63899 19.25 4.63763 19.25C4.63627 19.25 4.63491 19.25 4.63355 19.25C4.63218 19.25 4.63081 19.25 4.62943 19.25C4.62806 19.25 4.62668 19.25 4.6253 19.25C4.62392 19.25 4.62253 19.25 4.62114 19.25C4.61976 19.25 4.61836 19.25 4.61697 19.25C4.61557 19.25 4.61417 19.25 4.61276 19.25C4.61136 19.25 4.60995 19.25 4.60854 19.25C4.60713 19.25 4.60571 19.25 4.60429 19.25C4.60287 19.25 4.60145 19.25 4.60002 19.25C4.5986 19.25 4.59717 19.25 4.59573 19.25C4.5943 19.25 4.59286 19.25 4.59141 19.25C4.58997 19.25 4.58852 19.25 4.58707 19.25C4.58562 19.25 4.58417 19.25 4.58271 19.25C4.58125 19.25 4.57979 19.25 4.57832 19.25C4.57685 19.25 4.57538 19.25 4.57391 19.25C4.57243 19.25 4.57096 19.25 4.56947 19.25C4.56799 19.25 4.5665 19.25 4.56501 19.25C4.56352 19.25 4.56203 19.25 4.56053 19.25C4.55903 19.25 4.55752 19.25 4.55602 19.25C4.55451 19.25 4.553 19.25 4.55148 19.25C4.54997 19.25 4.54845 19.25 4.54692 19.25C4.5454 19.25 4.54387 19.25 4.54234 19.25C4.5408 19.25 4.53927 19.25 4.53773 19.25C4.53619 19.25 4.53464 19.25 4.53309 19.25C4.53154 19.25 4.52999 19.25 4.52843 19.25C4.52687 19.25 4.52531 19.25 4.52374 19.25C4.52218 19.25 4.5206 19.25 4.51903 19.25C4.51745 19.25 4.51587 19.25 4.51429 19.25C4.51271 19.25 4.51112 19.25 4.50953 19.25C4.50793 19.25 4.50634 19.25 4.50473 19.25C4.50313 19.25 4.50153 19.25 4.49992 19.25C4.49831 19.25 4.49669 19.25 4.49507 19.25C4.49345 19.25 4.49183 19.25 4.4902 19.25C4.48857 19.25 4.48694 19.25 4.4853 19.25C4.48366 19.25 4.48202 19.25 4.48038 19.25C4.47873 19.25 4.47708 19.25 4.47542 19.25C4.47377 19.25 4.47211 19.25 4.47044 19.25C4.46878 19.25 4.46711 19.25 4.46543 19.25C4.46376 19.25 4.46208 19.25 4.4604 19.25C4.45872 19.25 4.45703 19.25 4.45534 19.25C4.45364 19.25 4.45195 19.25 4.45024 19.25C4.44854 19.25 4.44683 19.25 4.44512 19.25C4.44341 19.25 4.4417 19.25 4.43998 19.25C4.43825 19.25 4.43653 19.25 4.4348 19.25C4.43307 19.25 4.43133 19.25 4.42959 19.25C4.42785 19.25 4.42611 19.25 4.42436 19.25C4.42261 19.25 4.42086 19.25 4.4191 19.25C4.41734 19.25 4.41557 19.25 4.4138 19.25C4.41203 19.25 4.41026 19.25 4.40848 19.25C4.4067 19.25 4.40492 19.25 4.40313 19.25C4.40134 19.25 4.39955 19.25 4.39775 19.25C4.39595 19.25 4.39415 19.25 4.39234 19.25C4.39053 19.25 4.38872 19.25 4.3869 19.25C4.38508 19.25 4.38326 19.25 4.38143 19.25C4.3796 19.25 4.37777 19.25 4.37593 19.25C4.37409 19.25 4.37225 19.25 4.3704 19.25C4.36855 19.25 4.3667 19.25 4.36484 19.25C4.36298 19.25 4.36112 19.25 4.35925 19.25C4.35738 19.25 4.3555 19.25 4.35362 19.25C4.35174 19.25 4.34986 19.25 4.34797 19.25C4.34608 19.25 4.34418 19.25 4.34228 19.25C4.34038 19.25 4.33848 19.25 4.33657 19.25C4.33466 19.25 4.33274 19.25 4.33082 19.25C4.3289 19.25 4.32697 19.25 4.32504 19.25C4.32311 19.25 4.32117 19.25 4.31923 19.25C4.31729 19.25 4.31534 19.25 4.31339 19.25C4.31144 19.25 4.30948 19.25 4.30751 19.25C4.30555 19.25 4.30358 19.25 4.30161 19.25C4.29963 19.25 4.29765 19.25 4.29567 19.25C4.29368 19.25 4.29169 19.25 4.2897 19.25C4.2877 19.25 4.2857 19.25 4.28369 19.25C4.28169 19.25 4.27967 19.25 4.27765 19.25C4.27564 19.25 4.27361 19.25 4.27158 19.25C4.26956 19.25 4.26752 19.25 4.26548 19.25C4.26344 19.25 4.2614 19.25 4.25935 19.25C4.25729 19.25 4.25524 19.25 4.25318 19.25C4.25111 19.25 4.24905 19.25 4.24697 19.25C4.2449 19.25 4.24282 19.25 4.24073 19.25C4.23865 19.25 4.23656 19.25 4.23446 19.25C4.23237 19.25 4.23027 19.25 4.22816 19.25C4.22605 19.25 4.22394 19.25 4.22182 19.25C4.2197 19.25 4.21758 19.25 4.21545 19.25C4.21332 19.25 4.21118 19.25 4.20904 19.25C4.2069 19.25 4.20475 19.25 4.20259 19.25C4.20044 19.25 4.19828 19.25 4.19612 19.25C4.19395 19.25 4.19178 19.25 4.18961 19.25C4.18743 19.25 4.18525 19.25 4.18306 19.25C4.18087 19.25 4.17867 19.25 4.17647 19.25C4.17427 19.25 4.17207 19.25 4.16986 19.25C4.16764 19.25 4.16543 19.25 4.1632 19.25C4.16098 19.25 4.15875 19.25 4.15651 19.25C4.15428 19.25 4.15204 19.25 4.14979 19.25C4.14754 19.25 4.14529 19.25 4.14303 19.25C4.14077 19.25 4.1385 19.25 4.13623 19.25C4.13396 19.25 4.13168 19.25 4.1294 19.25C4.12711 19.25 4.12482 19.25 4.12253 19.25C4.12023 19.25 4.11793 19.25 4.11562 19.25C4.11331 19.25 4.111 19.25 4.10867 19.25C4.10635 19.25 4.10403 19.25 4.10169 19.25C4.09936 19.25 4.09702 19.25 4.09468 19.25C4.09233 19.25 4.08998 19.25 4.08762 19.25C4.08526 19.25 4.0829 19.25 4.08053 19.25C4.07816 19.25 4.07578 19.25 4.0734 19.25C4.07102 19.25 4.06863 19.25 4.06623 19.25C4.06384 19.25 4.06143 19.25 4.05903 19.25C4.05662 19.25 4.0542 19.25 4.05178 19.25C4.04936 19.25 4.04693 19.25 4.0445 19.25C4.04207 19.25 4.03963 19.25 4.03718 19.25C4.03473 19.25 4.03228 19.25 4.02982 19.25C4.02736 19.25 4.0249 19.25 4.02242 19.25C4.01995 19.25 4.01747 19.25 4.01499 19.25C4.0125 19.25 4.01001 19.25 4.00751 19.25C4.00502 19.25 4.00251 19.25 4 19.25V20.75C4.00251 20.75 4.00502 20.75 4.00751 20.75C4.01001 20.75 4.0125 20.75 4.01499 20.75C4.01747 20.75 4.01995 20.75 4.02242 20.75C4.0249 20.75 4.02736 20.75 4.02982 20.75C4.03228 20.75 4.03473 20.75 4.03718 20.75C4.03963 20.75 4.04207 20.75 4.0445 20.75C4.04693 20.75 4.04936 20.75 4.05178 20.75C4.0542 20.75 4.05662 20.75 4.05903 20.75C4.06143 20.75 4.06384 20.75 4.06623 20.75C4.06863 20.75 4.07102 20.75 4.0734 20.75C4.07578 20.75 4.07816 20.75 4.08053 20.75C4.0829 20.75 4.08526 20.75 4.08762 20.75C4.08998 20.75 4.09233 20.75 4.09468 20.75C4.09702 20.75 4.09936 20.75 4.10169 20.75C4.10403 20.75 4.10635 20.75 4.10867 20.75C4.111 20.75 4.11331 20.75 4.11562 20.75C4.11793 20.75 4.12023 20.75 4.12253 20.75C4.12482 20.75 4.12711 20.75 4.1294 20.75C4.13168 20.75 4.13396 20.75 4.13623 20.75C4.1385 20.75 4.14077 20.75 4.14303 20.75C4.14529 20.75 4.14754 20.75 4.14979 20.75C4.15204 20.75 4.15428 20.75 4.15651 20.75C4.15875 20.75 4.16098 20.75 4.1632 20.75C4.16543 20.75 4.16764 20.75 4.16986 20.75C4.17207 20.75 4.17427 20.75 4.17647 20.75C4.17867 20.75 4.18087 20.75 4.18306 20.75C4.18525 20.75 4.18743 20.75 4.18961 20.75C4.19178 20.75 4.19395 20.75 4.19612 20.75C4.19828 20.75 4.20044 20.75 4.20259 20.75C4.20475 20.75 4.2069 20.75 4.20904 20.75C4.21118 20.75 4.21332 20.75 4.21545 20.75C4.21758 20.75 4.2197 20.75 4.22182 20.75C4.22394 20.75 4.22605 20.75 4.22816 20.75C4.23027 20.75 4.23237 20.75 4.23446 20.75C4.23656 20.75 4.23865 20.75 4.24073 20.75C4.24282 20.75 4.2449 20.75 4.24697 20.75C4.24905 20.75 4.25111 20.75 4.25318 20.75C4.25524 20.75 4.25729 20.75 4.25935 20.75C4.2614 20.75 4.26344 20.75 4.26548 20.75C4.26752 20.75 4.26956 20.75 4.27158 20.75C4.27361 20.75 4.27564 20.75 4.27765 20.75C4.27967 20.75 4.28169 20.75 4.28369 20.75C4.2857 20.75 4.2877 20.75 4.2897 20.75C4.29169 20.75 4.29368 20.75 4.29567 20.75C4.29765 20.75 4.29963 20.75 4.30161 20.75C4.30358 20.75 4.30555 20.75 4.30751 20.75C4.30948 20.75 4.31144 20.75 4.31339 20.75C4.31534 20.75 4.31729 20.75 4.31923 20.75C4.32117 20.75 4.32311 20.75 4.32504 20.75C4.32697 20.75 4.3289 20.75 4.33082 20.75C4.33274 20.75 4.33466 20.75 4.33657 20.75C4.33848 20.75 4.34038 20.75 4.34228 20.75C4.34418 20.75 4.34608 20.75 4.34797 20.75C4.34986 20.75 4.35174 20.75 4.35362 20.75C4.3555 20.75 4.35738 20.75 4.35925 20.75C4.36112 20.75 4.36298 20.75 4.36484 20.75C4.3667 20.75 4.36855 20.75 4.3704 20.75C4.37225 20.75 4.37409 20.75 4.37593 20.75C4.37777 20.75 4.3796 20.75 4.38143 20.75C4.38326 20.75 4.38508 20.75 4.3869 20.75C4.38872 20.75 4.39053 20.75 4.39234 20.75C4.39415 20.75 4.39595 20.75 4.39775 20.75C4.39955 20.75 4.40134 20.75 4.40313 20.75C4.40492 20.75 4.4067 20.75 4.40848 20.75C4.41026 20.75 4.41203 20.75 4.4138 20.75C4.41557 20.75 4.41734 20.75 4.4191 20.75C4.42086 20.75 4.42261 20.75 4.42436 20.75C4.42611 20.75 4.42785 20.75 4.42959 20.75C4.43133 20.75 4.43307 20.75 4.4348 20.75C4.43653 20.75 4.43825 20.75 4.43998 20.75C4.4417 20.75 4.44341 20.75 4.44512 20.75C4.44683 20.75 4.44854 20.75 4.45024 20.75C4.45195 20.75 4.45364 20.75 4.45534 20.75C4.45703 20.75 4.45872 20.75 4.4604 20.75C4.46208 20.75 4.46376 20.75 4.46543 20.75C4.46711 20.75 4.46878 20.75 4.47044 20.75C4.47211 20.75 4.47377 20.75 4.47542 20.75C4.47708 20.75 4.47873 20.75 4.48038 20.75C4.48202 20.75 4.48366 20.75 4.4853 20.75C4.48694 20.75 4.48857 20.75 4.4902 20.75C4.49183 20.75 4.49345 20.75 4.49507 20.75C4.49669 20.75 4.49831 20.75 4.49992 20.75C4.50153 20.75 4.50313 20.75 4.50473 20.75C4.50634 20.75 4.50793 20.75 4.50953 20.75C4.51112 20.75 4.51271 20.75 4.51429 20.75C4.51587 20.75 4.51745 20.75 4.51903 20.75C4.5206 20.75 4.52218 20.75 4.52374 20.75C4.52531 20.75 4.52687 20.75 4.52843 20.75C4.52999 20.75 4.53154 20.75 4.53309 20.75C4.53464 20.75 4.53619 20.75 4.53773 20.75C4.53927 20.75 4.5408 20.75 4.54234 20.75C4.54387 20.75 4.5454 20.75 4.54692 20.75C4.54845 20.75 4.54997 20.75 4.55148 20.75C4.553 20.75 4.55451 20.75 4.55602 20.75C4.55752 20.75 4.55903 20.75 4.56053 20.75C4.56203 20.75 4.56352 20.75 4.56501 20.75C4.5665 20.75 4.56799 20.75 4.56947 20.75C4.57096 20.75 4.57243 20.75 4.57391 20.75C4.57538 20.75 4.57685 20.75 4.57832 20.75C4.57979 20.75 4.58125 20.75 4.58271 20.75C4.58417 20.75 4.58562 20.75 4.58707 20.75C4.58852 20.75 4.58997 20.75 4.59141 20.75C4.59286 20.75 4.5943 20.75 4.59573 20.75C4.59717 20.75 4.5986 20.75 4.60002 20.75C4.60145 20.75 4.60287 20.75 4.60429 20.75C4.60571 20.75 4.60713 20.75 4.60854 20.75C4.60995 20.75 4.61136 20.75 4.61276 20.75C4.61417 20.75 4.61557 20.75 4.61697 20.75C4.61836 20.75 4.61976 20.75 4.62114 20.75C4.62253 20.75 4.62392 20.75 4.6253 20.75C4.62668 20.75 4.62806 20.75 4.62943 20.75C4.63081 20.75 4.63218 20.75 4.63355 20.75C4.63491 20.75 4.63627 20.75 4.63763 20.75C4.63899 20.75 4.64035 20.75 4.6417 20.75C4.64305 20.75 4.6444 20.75 4.64575 20.75C4.64709 20.75 4.64843 20.75 4.64977 20.75C4.65111 20.75 4.65244 20.75 4.65377 20.75C4.6551 20.75 4.65643 20.75 4.65775 20.75C4.65908 20.75 4.6604 20.75 4.66172 20.75C4.66303 20.75 4.66434 20.75 4.66565 20.75C4.66696 20.75 4.66827 20.75 4.66957 20.75C4.67087 20.75 4.67217 20.75 4.67347 20.75C4.67477 20.75 4.67606 20.75 4.67735 20.75C4.67864 20.75 4.67992 20.75 4.6812 20.75C4.68249 20.75 4.68376 20.75 4.68504 20.75C4.68632 20.75 4.68759 20.75 4.68886 20.75C4.69012 20.75 4.69139 20.75 4.69265 20.75C4.69391 20.75 4.69517 20.75 4.69643 20.75C4.69768 20.75 4.69894 20.75 4.70019 20.75C4.70143 20.75 4.70268 20.75 4.70392 20.75C4.70517 20.75 4.70641 20.75 4.70764 20.75C4.70888 20.75 4.71011 20.75 4.71134 20.75C4.71257 20.75 4.7138 20.75 4.71502 20.75C4.71624 20.75 4.71746 20.75 4.71868 20.75C4.7199 20.75 4.72111 20.75 4.72232 20.75C4.72354 20.75 4.72474 20.75 4.72595 20.75C4.72715 20.75 4.72835 20.75 4.72955 20.75C4.73075 20.75 4.73195 20.75 4.73314 20.75C4.73433 20.75 4.73552 20.75 4.73671 20.75C4.7379 20.75 4.73908 20.75 4.74026 20.75C4.74144 20.75 4.74262 20.75 4.74379 20.75C4.74497 20.75 4.74614 20.75 4.74731 20.75C4.74848 20.75 4.74965 20.75 4.75081 20.75C4.75197 20.75 4.75313 20.75 4.75429 20.75C4.75545 20.75 4.7566 20.75 4.75775 20.75C4.75891 20.75 4.76005 20.75 4.7612 20.75C4.76235 20.75 4.76349 20.75 4.76463 20.75C4.76577 20.75 4.76691 20.75 4.76804 20.75C4.76918 20.75 4.77031 20.75 4.77144 20.75C4.77257 20.75 4.7737 20.75 4.77482 20.75C4.77595 20.75 4.77707 20.75 4.77819 20.75C4.7793 20.75 4.78042 20.75 4.78153 20.75C4.78265 20.75 4.78376 20.75 4.78487 20.75C4.78597 20.75 4.78708 20.75 4.78818 20.75C4.78928 20.75 4.79039 20.75 4.79148 20.75C4.79258 20.75 4.79368 20.75 4.79477 20.75C4.79586 20.75 4.79695 20.75 4.79804 20.75C4.79913 20.75 4.80021 20.75 4.80129 20.75C4.80237 20.75 4.80345 20.75 4.80453 20.75C4.80561 20.75 4.80668 20.75 4.80776 20.75C4.80883 20.75 4.8099 20.75 4.81097 20.75C4.81203 20.75 4.8131 20.75 4.81416 20.75C4.81523 20.75 4.81629 20.75 4.81734 20.75C4.8184 20.75 4.81946 20.75 4.82051 20.75C4.82156 20.75 4.82261 20.75 4.82366 20.75C4.82471 20.75 4.82576 20.75 4.8268 20.75C4.82785 20.75 4.82889 20.75 4.82993 20.75C4.83097 20.75 4.832 20.75 4.83304 20.75C4.83407 20.75 4.83511 20.75 4.83614 20.75C4.83717 20.75 4.8382 20.75 4.83922 20.75C4.84025 20.75 4.84127 20.75 4.84229 20.75C4.84331 20.75 4.84433 20.75 4.84535 20.75C4.84637 20.75 4.84738 20.75 4.8484 20.75C4.84941 20.75 4.85042 20.75 4.85143 20.75C4.85244 20.75 4.85344 20.75 4.85445 20.75C4.85545 20.75 4.85646 20.75 4.85746 20.75C4.85846 20.75 4.85946 20.75 4.86045 20.75C4.86145 20.75 4.86244 20.75 4.86344 20.75C4.86443 20.75 4.86542 20.75 4.86641 20.75C4.8674 20.75 4.86838 20.75 4.86937 20.75C4.87035 20.75 4.87133 20.75 4.87232 20.75C4.8733 20.75 4.87427 20.75 4.87525 20.75C4.87623 20.75 4.8772 20.75 4.87818 20.75C4.87915 20.75 4.88012 20.75 4.88109 20.75C4.88206 20.75 4.88303 20.75 4.88399 20.75C4.88496 20.75 4.88592 20.75 4.88689 20.75C4.88785 20.75 4.88881 20.75 4.88977 20.75C4.89073 20.75 4.89168 20.75 4.89264 20.75C4.89359 20.75 4.89455 20.75 4.8955 20.75C4.89645 20.75 4.8974 20.75 4.89835 20.75C4.8993 20.75 4.90024 20.75 4.90119 20.75C4.90213 20.75 4.90308 20.75 4.90402 20.75C4.90496 20.75 4.9059 20.75 4.90684 20.75C4.90778 20.75 4.90871 20.75 4.90965 20.75C4.91058 20.75 4.91152 20.75 4.91245 20.75C4.91338 20.75 4.91431 20.75 4.91524 20.75C4.91617 20.75 4.9171 20.75 4.91802 20.75C4.91895 20.75 4.91987 20.75 4.9208 20.75C4.92172 20.75 4.92264 20.75 4.92356 20.75C4.92448 20.75 4.9254 20.75 4.92632 20.75C4.92724 20.75 4.92815 20.75 4.92907 20.75C4.92998 20.75 4.93089 20.75 4.9318 20.75C4.93272 20.75 4.93363 20.75 4.93453 20.75C4.93544 20.75 4.93635 20.75 4.93726 20.75C4.93816 20.75 4.93907 20.75 4.93997 20.75C4.94087 20.75 4.94178 20.75 4.94268 20.75C4.94358 20.75 4.94448 20.75 4.94538 20.75C4.94628 20.75 4.94717 20.75 4.94807 20.75C4.94896 20.75 4.94986 20.75 4.95075 20.75C4.95165 20.75 4.95254 20.75 4.95343 20.75C4.95432 20.75 4.95521 20.75 4.9561 20.75C4.95699 20.75 4.95788 20.75 4.95876 20.75C4.95965 20.75 4.96053 20.75 4.96142 20.75C4.9623 20.75 4.96319 20.75 4.96407 20.75C4.96495 20.75 4.96583 20.75 4.96671 20.75C4.96759 20.75 4.96847 20.75 4.96935 20.75C4.97023 20.75 4.9711 20.75 4.97198 20.75C4.97285 20.75 4.97373 20.75 4.9746 20.75C4.97548 20.75 4.97635 20.75 4.97722 20.75C4.97809 20.75 4.97897 20.75 4.97984 20.75C4.98071 20.75 4.98157 20.75 4.98244 20.75C4.98331 20.75 4.98418 20.75 4.98505 20.75C4.98591 20.75 4.98678 20.75 4.98764 20.75C4.98851 20.75 4.98937 20.75 4.99023 20.75C4.9911 20.75 4.99196 20.75 4.99282 20.75C4.99368 20.75 4.99454 20.75 4.9954 20.75C4.99626 20.75 4.99712 20.75 4.99798 20.75C4.99884 20.75 4.9997 20.75 5.00056 20.75C5.00141 20.75 5.00227 20.75 5.00312 20.75C5.00398 20.75 5.00484 20.75 5.00569 20.75C5.00654 20.75 5.0074 20.75 5.00825 20.75C5.0091 20.75 5.00996 20.75 5.01081 20.75C5.01166 20.75 5.01251 20.75 5.01336 20.75C5.01421 20.75 5.01506 20.75 5.01591 20.75C5.01676 20.75 5.01761 20.75 5.01846 20.75C5.01931 20.75 5.02015 20.75 5.021 20.75C5.02185 20.75 5.0227 20.75 5.02354 20.75C5.02439 20.75 5.02523 20.75 5.02608 20.75C5.02692 20.75 5.02777 20.75 5.02861 20.75C5.02946 20.75 5.0303 20.75 5.03115 20.75C5.03199 20.75 5.03283 20.75 5.03368 20.75C5.03452 20.75 5.03536 20.75 5.0362 20.75C5.03704 20.75 5.03789 20.75 5.03873 20.75C5.03957 20.75 5.04041 20.75 5.04125 20.75C5.04209 20.75 5.04293 20.75 5.04377 20.75C5.04461 20.75 5.04545 20.75 5.04629 20.75C5.04713 20.75 5.04797 20.75 5.04881 20.75C5.04965 20.75 5.05049 20.75 5.05133 20.75C5.05217 20.75 5.053 20.75 5.05384 20.75C5.05468 20.75 5.05552 20.75 5.05636 20.75C5.05719 20.75 5.05803 20.75 5.05887 20.75C5.05971 20.75 5.06055 20.75 5.06138 20.75C5.06222 20.75 5.06306 20.75 5.06389 20.75C5.06473 20.75 5.06557 20.75 5.06641 20.75C5.06724 20.75 5.06808 20.75 5.06892 20.75C5.06975 20.75 5.07059 20.75 5.07143 20.75C5.07227 20.75 5.0731 20.75 5.07394 20.75C5.07478 20.75 5.07561 20.75 5.07645 20.75C5.07729 20.75 5.07813 20.75 5.07896 20.75C5.0798 20.75 5.08064 20.75 5.08148 20.75C5.08231 20.75 5.08315 20.75 5.08399 20.75C5.08483 20.75 5.08566 20.75 5.0865 20.75C5.08734 20.75 5.08818 20.75 5.08902 20.75C5.08985 20.75 5.09069 20.75 5.09153 20.75C5.09237 20.75 5.09321 20.75 5.09405 20.75C5.09489 20.75 5.09573 20.75 5.09657 20.75C5.09741 20.75 5.09825 20.75 5.09909 20.75C5.09993 20.75 5.10077 20.75 5.10161 20.75C5.10245 20.75 5.10329 20.75 5.10413 20.75C5.10497 20.75 5.10581 20.75 5.10666 20.75C5.1075 20.75 5.10834 20.75 5.10918 20.75C5.11003 20.75 5.11087 20.75 5.11171 20.75C5.11256 20.75 5.1134 20.75 5.11424 20.75C5.11509 20.75 5.11593 20.75 5.11678 20.75C5.11762 20.75 5.11847 20.75 5.11932 20.75C5.12016 20.75 5.12101 20.75 5.12186 20.75C5.1227 20.75 5.12355 20.75 5.1244 20.75C5.12525 20.75 5.1261 20.75 5.12695 20.75C5.1278 20.75 5.12865 20.75 5.1295 20.75C5.13035 20.75 5.1312 20.75 5.13205 20.75C5.1329 20.75 5.13375 20.75 5.13461 20.75C5.13546 20.75 5.13631 20.75 5.13717 20.75C5.13802 20.75 5.13888 20.75 5.13973 20.75C5.14059 20.75 5.14145 20.75 5.1423 20.75C5.14316 20.75 5.14402 20.75 5.14488 20.75C5.14573 20.75 5.14659 20.75 5.14745 20.75C5.14831 20.75 5.14917 20.75 5.15004 20.75C5.1509 20.75 5.15176 20.75 5.15262 20.75C5.15349 20.75 5.15435 20.75 5.15522 20.75C5.15608 20.75 5.15695 20.75 5.15781 20.75C5.15868 20.75 5.15955 20.75 5.16041 20.75C5.16128 20.75 5.16215 20.75 5.16302 20.75C5.16389 20.75 5.16476 20.75 5.16564 20.75C5.16651 20.75 5.16738 20.75 5.16825 20.75C5.16913 20.75 5.17 20.75 5.17088 20.75C5.17176 20.75 5.17263 20.75 5.17351 20.75C5.17439 20.75 5.17527 20.75 5.17615 20.75C5.17703 20.75 5.17791 20.75 5.17879 20.75C5.17967 20.75 5.18056 20.75 5.18144 20.75C5.18232 20.75 5.18321 20.75 5.1841 20.75C5.18498 20.75 5.18587 20.75 5.18676 20.75C5.18765 20.75 5.18854 20.75 5.18943 20.75C5.19032 20.75 5.19121 20.75 5.19211 20.75C5.193 20.75 5.19389 20.75 5.19479 20.75C5.19569 20.75 5.19658 20.75 5.19748 20.75C5.19838 20.75 5.19928 20.75 5.20018 20.75C5.20108 20.75 5.20198 20.75 5.20289 20.75C5.20379 20.75 5.2047 20.75 5.2056 20.75C5.20651 20.75 5.20741 20.75 5.20832 20.75C5.20923 20.75 5.21014 20.75 5.21105 20.75C5.21197 20.75 5.21288 20.75 5.21379 20.75C5.21471 20.75 5.21562 20.75 5.21654 20.75C5.21746 20.75 5.21838 20.75 5.2193 20.75C5.22022 20.75 5.22114 20.75 5.22206 20.75C5.22298 20.75 5.22391 20.75 5.22483 20.75C5.22576 20.75 5.22669 20.75 5.22762 20.75C5.22855 20.75 5.22948 20.75 5.23041 20.75C5.23134 20.75 5.23227 20.75 5.23321 20.75C5.23414 20.75 5.23508 20.75 5.23602 20.75C5.23696 20.75 5.2379 20.75 5.23884 20.75C5.23978 20.75 5.24072 20.75 5.24167 20.75C5.24261 20.75 5.24356 20.75 5.24451 20.75C5.24546 20.75 5.24641 20.75 5.24736 20.75C5.24831 20.75 5.24926 20.75 5.25022 20.75C5.25118 20.75 5.25213 20.75 5.25309 20.75C5.25405 20.75 5.25501 20.75 5.25597 20.75C5.25693 20.75 5.2579 20.75 5.25886 20.75C5.25983 20.75 5.2608 20.75 5.26177 20.75C5.26274 20.75 5.26371 20.75 5.26468 20.75C5.26565 20.75 5.26663 20.75 5.26761 20.75C5.26858 20.75 5.26956 20.75 5.27054 20.75C5.27152 20.75 5.27251 20.75 5.27349 20.75C5.27448 20.75 5.27546 20.75 5.27645 20.75C5.27744 20.75 5.27843 20.75 5.27942 20.75C5.28041 20.75 5.28141 20.75 5.28241 20.75C5.2834 20.75 5.2844 20.75 5.2854 20.75C5.2864 20.75 5.2874 20.75 5.28841 20.75C5.28941 20.75 5.29042 20.75 5.29143 20.75C5.29244 20.75 5.29345 20.75 5.29446 20.75C5.29547 20.75 5.29649 20.75 5.29751 20.75C5.29852 20.75 5.29954 20.75 5.30057 20.75C5.30159 20.75 5.30261 20.75 5.30364 20.75C5.30466 20.75 5.30569 20.75 5.30672 20.75C5.30775 20.75 5.30878 20.75 5.30982 20.75C5.31085 20.75 5.31189 20.75 5.31293 20.75C5.31397 20.75 5.31501 20.75 5.31606 20.75C5.3171 20.75 5.31815 20.75 5.31919 20.75C5.32024 20.75 5.32129 20.75 5.32235 20.75C5.3234 20.75 5.32446 20.75 5.32551 20.75C5.32657 20.75 5.32763 20.75 5.3287 20.75C5.32976 20.75 5.33082 20.75 5.33189 20.75C5.33296 20.75 5.33403 20.75 5.3351 20.75C5.33617 20.75 5.33725 20.75 5.33833 20.75C5.3394 20.75 5.34048 20.75 5.34157 20.75C5.34265 20.75 5.34373 20.75 5.34482 20.75C5.34591 20.75 5.347 20.75 5.34809 20.75C5.34918 20.75 5.35028 20.75 5.35138 20.75C5.35247 20.75 5.35357 20.75 5.35468 20.75C5.35578 20.75 5.35688 20.75 5.35799 20.75C5.3591 20.75 5.36021 20.75 5.36132 20.75C5.36244 20.75 5.36355 20.75 5.36467 20.75C5.36579 20.75 5.36691 20.75 5.36804 20.75C5.36916 20.75 5.37029 20.75 5.37142 20.75C5.37255 20.75 5.37368 20.75 5.37481 20.75C5.37595 20.75 5.37709 20.75 5.37823 20.75C5.37937 20.75 5.38051 20.75 5.38166 20.75C5.3828 20.75 5.38395 20.75 5.3851 20.75C5.38626 20.75 5.38741 20.75 5.38857 20.75C5.38973 20.75 5.39089 20.75 5.39205 20.75C5.39321 20.75 5.39438 20.75 5.39555 20.75C5.39672 20.75 5.39789 20.75 5.39906 20.75C5.40024 20.75 5.40142 20.75 5.4026 20.75C5.40378 20.75 5.40496 20.75 5.40615 20.75C5.40733 20.75 5.40852 20.75 5.40972 20.75C5.41091 20.75 5.41211 20.75 5.4133 20.75C5.4145 20.75 5.41571 20.75 5.41691 20.75C5.41811 20.75 5.41932 20.75 5.42053 20.75C5.42174 20.75 5.42296 20.75 5.42418 20.75C5.42539 20.75 5.42661 20.75 5.42784 20.75C5.42906 20.75 5.43029 20.75 5.43152 20.75C5.43275 20.75 5.43398 20.75 5.43522 20.75C5.43645 20.75 5.43769 20.75 5.43893 20.75C5.44018 20.75 5.44142 20.75 5.44267 20.75C5.44392 20.75 5.44517 20.75 5.44643 20.75C5.44768 20.75 5.44894 20.75 5.45021 20.75C5.45147 20.75 5.45273 20.75 5.454 20.75C5.45527 20.75 5.45654 20.75 5.45782 20.75C5.45909 20.75 5.46037 20.75 5.46165 20.75C5.46294 20.75 5.46422 20.75 5.46551 20.75C5.4668 20.75 5.46809 20.75 5.46939 20.75C5.47068 20.75 5.47198 20.75 5.47329 20.75C5.47459 20.75 5.47589 20.75 5.4772 20.75C5.47851 20.75 5.47983 20.75 5.48114 20.75C5.48246 20.75 5.48378 20.75 5.4851 20.75C5.48643 20.75 5.48775 20.75 5.48908 20.75C5.49041 20.75 5.49175 20.75 5.49309 20.75C5.49442 20.75 5.49577 20.75 5.49711 20.75C5.49846 20.75 5.4998 20.75 5.50116 20.75C5.50251 20.75 5.50386 20.75 5.50522 20.75C5.50658 20.75 5.50795 20.75 5.50931 20.75C5.51068 20.75 5.51205 20.75 5.51342 20.75C5.5148 20.75 5.51618 20.75 5.51756 20.75C5.51894 20.75 5.52032 20.75 5.52171 20.75C5.5231 20.75 5.5245 20.75 5.52589 20.75C5.52729 20.75 5.52869 20.75 5.53009 20.75C5.5315 20.75 5.53291 20.75 5.53432 20.75C5.53573 20.75 5.53714 20.75 5.53856 20.75C5.53998 20.75 5.54141 20.75 5.54283 20.75C5.54426 20.75 5.54569 20.75 5.54713 20.75C5.54856 20.75 5.55 20.75 5.55144 20.75C5.55289 20.75 5.55433 20.75 5.55578 20.75C5.55724 20.75 5.55869 20.75 5.56015 20.75C5.56161 20.75 5.56307 20.75 5.56454 20.75C5.566 20.75 5.56747 20.75 5.56895 20.75C5.57042 20.75 5.5719 20.75 5.57339 20.75C5.57487 20.75 5.57636 20.75 5.57785 20.75C5.57934 20.75 5.58083 20.75 5.58233 20.75C5.58383 20.75 5.58533 20.75 5.58684 20.75C5.58835 20.75 5.58986 20.75 5.59138 20.75C5.59289 20.75 5.59441 20.75 5.59594 20.75C5.59746 20.75 5.59899 20.75 5.60052 20.75C5.60205 20.75 5.60359 20.75 5.60513 20.75C5.60667 20.75 5.60822 20.75 5.60977 20.75C5.61132 20.75 5.61287 20.75 5.61443 20.75C5.61599 20.75 5.61755 20.75 5.61912 20.75C5.62068 20.75 5.62225 20.75 5.62383 20.75C5.6254 20.75 5.62698 20.75 5.62857 20.75C5.63015 20.75 5.63174 20.75 5.63333 20.75C5.63493 20.75 5.63652 20.75 5.63812 20.75C5.63973 20.75 5.64133 20.75 5.64294 20.75C5.64455 20.75 5.64617 20.75 5.64779 20.75C5.64941 20.75 5.65103 20.75 5.65266 20.75C5.65429 20.75 5.65592 20.75 5.65756 20.75C5.65919 20.75 5.66084 20.75 5.66248 20.75C5.66413 20.75 5.66578 20.75 5.66744 20.75C5.66909 20.75 5.67075 20.75 5.67242 20.75C5.67408 20.75 5.67575 20.75 5.67742 20.75C5.6791 20.75 5.68078 20.75 5.68246 20.75C5.68414 20.75 5.68583 20.75 5.68752 20.75C5.68922 20.75 5.69091 20.75 5.69261 20.75C5.69432 20.75 5.69602 20.75 5.69773 20.75C5.69945 20.75 5.70116 20.75 5.70288 20.75C5.7046 20.75 5.70633 20.75 5.70806 20.75C5.70979 20.75 5.71152 20.75 5.71326 20.75C5.715 20.75 5.71675 20.75 5.7185 20.75C5.72025 20.75 5.722 20.75 5.72376 20.75C5.72552 20.75 5.72729 20.75 5.72905 20.75C5.73082 20.75 5.7326 20.75 5.73438 20.75C5.73615 20.75 5.73794 20.75 5.73973 20.75C5.74152 20.75 5.74331 20.75 5.74511 20.75C5.74691 20.75 5.74871 20.75 5.75052 20.75C5.75233 20.75 5.75414 20.75 5.75596 20.75C5.75778 20.75 5.7596 20.75 5.76143 20.75C5.76326 20.75 5.76509 20.75 5.76693 20.75C5.76877 20.75 5.77061 20.75 5.77246 20.75C5.77431 20.75 5.77616 20.75 5.77802 20.75C5.77988 20.75 5.78174 20.75 5.78361 20.75C5.78548 20.75 5.78736 20.75 5.78923 20.75C5.79111 20.75 5.793 20.75 5.79489 20.75C5.79678 20.75 5.79867 20.75 5.80057 20.75C5.80247 20.75 5.80438 20.75 5.80629 20.75C5.8082 20.75 5.81012 20.75 5.81204 20.75C5.81396 20.75 5.81588 20.75 5.81782 20.75C5.81975 20.75 5.82168 20.75 5.82363 20.75C5.82557 20.75 5.82752 20.75 5.82947 20.75C5.83142 20.75 5.83338 20.75 5.83534 20.75C5.83731 20.75 5.83928 20.75 5.84125 20.75C5.84323 20.75 5.8452 20.75 5.84719 20.75C5.84918 20.75 5.85117 20.75 5.85316 20.75C5.85516 20.75 5.85716 20.75 5.85917 20.75C5.86117 20.75 5.86319 20.75 5.8652 20.75C5.86722 20.75 5.86924 20.75 5.87127 20.75C5.8733 20.75 5.87534 20.75 5.87738 20.75C5.87942 20.75 5.88146 20.75 5.88351 20.75C5.88556 20.75 5.88762 20.75 5.88968 20.75C5.89175 20.75 5.89381 20.75 5.89589 20.75C5.89796 20.75 5.90004 20.75 5.90212 20.75C5.90421 20.75 5.9063 20.75 5.90839 20.75C5.91049 20.75 5.91259 20.75 5.9147 20.75C5.91681 20.75 5.91892 20.75 5.92104 20.75C5.92316 20.75 5.92528 20.75 5.92741 20.75C5.92954 20.75 5.93168 20.75 5.93382 20.75C5.93596 20.75 5.93811 20.75 5.94026 20.75C5.94242 20.75 5.94458 20.75 5.94674 20.75C5.94891 20.75 5.95108 20.75 5.95325 20.75C5.95543 20.75 5.95761 20.75 5.9598 20.75C5.96199 20.75 5.96418 20.75 5.96638 20.75C5.96858 20.75 5.97079 20.75 5.973 20.75C5.97521 20.75 5.97743 20.75 5.97966 20.75C5.98188 20.75 5.98411 20.75 5.98634 20.75C5.98858 20.75 5.99082 20.75 5.99307 20.75C5.99532 20.75 5.99757 20.75 5.99983 20.75C6.00209 20.75 6.00436 20.75 6.00663 20.75C6.0089 20.75 6.01118 20.75 6.01346 20.75C6.01575 20.75 6.01804 20.75 6.02033 20.75C6.02263 20.75 6.02493 20.75 6.02724 20.75C6.02955 20.75 6.03186 20.75 6.03418 20.75C6.0365 20.75 6.03883 20.75 6.04116 20.75C6.0435 20.75 6.04584 20.75 6.04818 20.75C6.05053 20.75 6.05288 20.75 6.05524 20.75C6.0576 20.75 6.05996 20.75 6.06233 20.75C6.0647 20.75 6.06708 20.75 6.06946 20.75C6.07184 20.75 6.07423 20.75 6.07663 20.75C6.07902 20.75 6.08142 20.75 6.08383 20.75C6.08624 20.75 6.08866 20.75 6.09108 20.75C6.0935 20.75 6.09592 20.75 6.09836 20.75C6.10079 20.75 6.10323 20.75 6.10568 20.75C6.10812 20.75 6.11058 20.75 6.11304 20.75C6.1155 20.75 6.11796 20.75 6.12043 20.75C6.12291 20.75 6.12538 20.75 6.12787 20.75C6.13035 20.75 6.13285 20.75 6.13534 20.75C6.13784 20.75 6.14035 20.75 6.14286 20.75V19.25ZM4.6 20.45C5.27731 19.5469 5.58067 18.9008 5.65596 18.2354C5.69159 17.9205 5.67194 17.6318 5.65163 17.378C5.63058 17.115 5.60714 16.8733 5.60714 16.5714H4.10714C4.10714 16.9472 4.13727 17.2585 4.15641 17.4977C4.17627 17.7459 4.1834 17.9082 4.16547 18.0668C4.13362 18.3482 4.0084 18.7388 3.4 19.55L4.6 20.45Z" fill="black"/>
<path d="M8 14L8.59542 12.958C10.802 9.09649 14.2328 6.08063 18.3453 4.38724L20.5 3.5L19.6128 5.65471C17.9194 9.76723 14.9035 13.198 11.042 15.4046L10 16M10 11C11.8175 11.5052 12.5441 12.0898 13 14" stroke="black" stroke-width="1.5" stroke-linecap="round" stroke-linejoin="round"/>
</svg>
