<svg width="24" height="24" viewBox="0 0 24 24" fill="none" xmlns="http://www.w3.org/2000/svg">
<path d="M4.91883 15.001C4.91883 15.001 4.15984 17.278 3.57684 19.027C3.42484 19.484 3.50083 19.987 3.78283 20.378C4.06483 20.769 4.51782 21.001 4.99982 21.001C8.46382 21.001 15.3738 21.001 18.8378 21.001C19.3198 21.001 19.7728 20.769 20.0548 20.378C20.3368 19.987 20.4128 19.484 20.2608 19.027C19.6778 17.278 18.9188 15.001 18.9188 15.001" stroke="black" stroke-width="1.5" stroke-miterlimit="1.5" stroke-linecap="round" stroke-linejoin="round"/>
<path d="M14.9178 20.9992V17.9992" stroke="black" stroke-width="1.5" stroke-miterlimit="1.5" stroke-linecap="round" stroke-linejoin="round"/>
<path fill-rule="evenodd" clip-rule="evenodd" d="M4.91962 14C4.36762 14 3.91962 13.552 3.91962 13C3.91962 12.695 3.91962 11.847 3.91962 11.5C3.91962 10.395 4.81462 9.50001 5.91962 9.50001C6.56361 9.50001 7.27561 9.50001 7.91961 9.50001C9.02461 9.50001 9.91961 8.60501 9.91961 7.50001C9.91961 6.559 9.91961 5.941 9.91961 5C9.91961 3.895 10.8146 3 11.9196 3C13.0246 3 13.9196 3.895 13.9196 5C13.9196 5.941 13.9196 6.559 13.9196 7.50001C13.9196 8.60501 14.8146 9.50001 15.9196 9.50001C16.5636 9.50001 17.2756 9.50001 17.9196 9.50001C19.0246 9.50001 19.9196 10.395 19.9196 11.5C19.9196 11.847 19.9196 12.695 19.9196 13C19.9196 13.552 19.4716 14 18.9196 14C16.0466 14 7.79261 14 4.91962 14Z" stroke="black" stroke-width="1.5" stroke-miterlimit="1.5" stroke-linecap="round" stroke-linejoin="round"/>
</svg>
