<svg width="24" height="24" viewBox="0 0 24 24" fill="none" xmlns="http://www.w3.org/2000/svg">
<path d="M9 21C9 17.5 7.65685 16.5 6 16.5C4.34315 16.5 3 17.5 3 21" stroke="black" stroke-width="1.5" stroke-linecap="round" stroke-linejoin="round"/>
<path d="M15 21C15 17.5 13.6569 16.5 12 16.5C10.3431 16.5 9 17.5 9 21" stroke="black" stroke-width="1.5" stroke-linecap="round" stroke-linejoin="round"/>
<path d="M15 21C15 17.5 16.3431 16.5 18 16.5C19.6569 16.5 21 17.5 21 21" stroke="black" stroke-width="1.5" stroke-linecap="round" stroke-linejoin="round"/>
<circle cx="18" cy="14" r="2" stroke="black" stroke-width="1.5"/>
<circle cx="12" cy="14" r="2" stroke="black" stroke-width="1.5"/>
<circle cx="6" cy="14" r="2" stroke="black" stroke-width="1.5"/>
<circle cx="9" cy="9.5" r="2" stroke="black" stroke-width="1.5"/>
<circle cx="12" cy="5" r="2" stroke="black" stroke-width="1.5"/>
<circle cx="15" cy="9.5" r="2" stroke="black" stroke-width="1.5"/>
</svg>
