<svg width="24" height="24" viewBox="0 0 24 24" fill="none" xmlns="http://www.w3.org/2000/svg">
<path d="M12 12C13.3807 12 14.5 10.8807 14.5 9.49999C14.5 8.11929 13.3807 7 12 7C10.6193 7 9.5 8.11929 9.5 9.49999C9.5 10.8807 10.6193 12 12 12Z" stroke="black" stroke-width="1.5" stroke-miterlimit="1.5" stroke-linecap="round" stroke-linejoin="round"/>
<path d="M7 19.978C7.35914 17.2846 9.4588 15 11.9953 15C14.5389 15 16.6486 17.2973 17 20" stroke="black" stroke-width="1.5" stroke-miterlimit="1.5" stroke-linejoin="round"/>
<path d="M12 21C16.9705 21 20.9999 16.9705 20.9999 12C20.9999 7.02943 16.9705 3 12 3C7.02942 3 3 7.02943 3 12C3 16.9705 7.02942 21 12 21Z" stroke="black" stroke-width="1.5" stroke-miterlimit="1.5" stroke-linecap="round" stroke-linejoin="round"/>
</svg>
