<svg width="24" height="24" viewBox="0 0 24 24" fill="none" xmlns="http://www.w3.org/2000/svg">
<path d="M6 12V7C6 5.61929 7.11929 4.5 8.5 4.5C9.88071 4.5 11 5.61929 11 7V12C11 13.3807 9.88071 14.5 8.5 14.5C7.11929 14.5 6 13.3807 6 12Z" stroke="black" stroke-width="1.5" stroke-linejoin="round"/>
<path d="M14 11.5C14 12.9977 13.4205 14.434 12.3891 15.4931C11.3576 16.5521 9.95869 17.1471 8.5 17.1471M8.5 17.1471C7.04131 17.1471 5.64236 16.5521 4.61091 15.4931C3.57946 14.434 3 12.9977 3 11.5M8.5 17.1471L8.5 19.5" stroke="black" stroke-width="1.5" stroke-linecap="round" stroke-linejoin="round"/>
<path d="M12.9425 9.50003C12.6663 9.50003 12.4425 9.27617 12.4425 9.00003V4.90912C12.4425 4.63298 12.6663 4.40912 12.9425 4.40912H15.3695C15.6146 4.40912 15.8132 4.60778 15.8132 4.85283C15.8132 5.09789 15.6146 5.29655 15.3695 5.29655H14.0188C13.7427 5.29655 13.5188 5.52041 13.5188 5.79655V6.00962C13.5188 6.28576 13.7427 6.50962 14.0188 6.50962H15.1458C15.3908 6.50962 15.5895 6.70827 15.5895 6.95333C15.5895 7.19839 15.3908 7.39704 15.1458 7.39704H14.0188C13.7427 7.39704 13.5188 7.6209 13.5188 7.89704V9.00003C13.5188 9.27617 13.295 9.50003 13.0188 9.50003H12.9425Z" fill="black"/>
<path d="M16.5372 4.90912C16.5372 4.63298 16.7611 4.40912 17.0372 4.40912H17.5292C17.7321 4.40912 17.9149 4.53174 17.9918 4.71949L19.2553 7.80197C19.2621 7.81867 19.2784 7.82957 19.2964 7.82957C19.3145 7.82957 19.3307 7.81867 19.3376 7.80197L20.601 4.71949C20.678 4.53174 20.8608 4.40912 21.0637 4.40912H21.5557C21.8318 4.40912 22.0557 4.63298 22.0557 4.90912V9.00003C22.0557 9.27617 21.8318 9.50003 21.5557 9.50003H21.5116C21.2355 9.50003 21.0116 9.27617 21.0116 9.00003V6.21167C21.0116 6.19775 21.0003 6.18646 20.9864 6.18646C20.9761 6.18646 20.9669 6.19273 20.963 6.20229L19.7777 9.16111C19.7017 9.35081 19.5179 9.47517 19.3136 9.47517H19.2798C19.0752 9.47517 18.8912 9.35052 18.8154 9.1605L17.6298 6.18989C17.626 6.18031 17.6167 6.17403 17.6064 6.17403C17.5925 6.17403 17.5812 6.18531 17.5812 6.19922V9.00003C17.5812 9.27617 17.3574 9.50003 17.0812 9.50003H17.0372C16.7611 9.50003 16.5372 9.27617 16.5372 9.00003V4.90912Z" fill="black"/>
</svg>
