<svg width="24" height="24" viewBox="0 0 24 24" fill="none" xmlns="http://www.w3.org/2000/svg">
<path d="M4.5 16.7273C4.22386 16.7273 4 16.5034 4 16.2273V8.5C4 8.22386 4.22386 8 4.5 8H9.27841C9.55455 8 9.77841 8.22386 9.77841 8.5V9.02131C9.77841 9.29745 9.55455 9.52131 9.27841 9.52131H6.34517C6.06903 9.52131 5.84517 9.74516 5.84517 10.0213V11.1009C5.84517 11.377 6.06903 11.6009 6.34517 11.6009H8.89489C9.17103 11.6009 9.39489 11.8247 9.39489 12.1009V12.6222C9.39489 12.8983 9.17103 13.1222 8.89489 13.1222H6.34517C6.06903 13.1222 5.84517 13.346 5.84517 13.6222V16.2273C5.84517 16.5034 5.62131 16.7273 5.34517 16.7273H4.5Z" fill="black"/>
<path d="M11.0195 8.5C11.0195 8.22386 11.2434 8 11.5195 8H12.9597C13.1626 8 13.3454 8.12262 13.4223 8.31037L15.6791 13.8163C15.6908 13.8449 15.7187 13.8636 15.7496 13.8636C15.7806 13.8636 15.8084 13.8449 15.8202 13.8163L18.077 8.31037C18.1539 8.12262 18.3367 8 18.5396 8H19.9798C20.2559 8 20.4798 8.22386 20.4798 8.5V16.2273C20.4798 16.5034 20.2559 16.7273 19.9798 16.7273H19.19C18.9138 16.7273 18.69 16.5034 18.69 16.2273V11.0901C18.69 11.0662 18.6706 11.0469 18.6468 11.0469C18.6291 11.0469 18.6132 11.0576 18.6067 11.074L16.4848 16.3706C16.4088 16.5603 16.225 16.6847 16.0207 16.6847H15.4791C15.2745 16.6847 15.0905 16.56 15.0147 16.37L12.8926 11.0527C12.886 11.0363 12.8702 11.0256 12.8525 11.0256C12.8286 11.0256 12.8093 11.0449 12.8093 11.0688V16.2273C12.8093 16.5034 12.5854 16.7273 12.3093 16.7273H11.5195C11.2434 16.7273 11.0195 16.5034 11.0195 16.2273V8.5Z" fill="black"/>
</svg>
