<svg width="24" height="24" viewBox="0 0 24 24" fill="none" xmlns="http://www.w3.org/2000/svg">
<path d="M16.039 9.5994H21.031V9.59841M3.001 19.8954V14.9034M3.001 14.9034H7.993M3 14.9034L6.181 18.0864C7.20512 19.1105 8.48079 19.847 9.87979 20.2218C11.2788 20.5966 12.7518 20.5965 14.1507 20.2215C15.5497 19.8465 16.8252 19.1098 17.8492 18.0855C18.8732 17.0613 19.6094 15.7855 19.984 14.3864M4.047 10.1164C4.42156 8.71735 5.15784 7.44155 6.1818 6.41727C7.20576 5.39299 8.48133 4.65632 9.88027 4.28133C11.2792 3.90633 12.7522 3.90622 14.1512 4.28101C15.5502 4.6558 16.8259 5.39228 17.85 6.4164L21.031 9.59841M21.031 4.60741V9.5974" stroke="black" stroke-width="2" stroke-linecap="round" stroke-linejoin="round"/>
</svg>
