<svg width="24" height="24" viewBox="0 0 24 24" fill="none" xmlns="http://www.w3.org/2000/svg">
<g clip-path="url(#clip0_12_1055)">
<path fill-rule="evenodd" clip-rule="evenodd" d="M19 5C19 5.417 19 15.231 19 19C19 19.53 18.789 20.039 18.414 20.414C18.039 20.789 17.53 21 17 21C13.938 21 7.397 21 7 21C6.47 21 5.961 20.789 5.586 20.414C5.211 20.039 5 19.53 5 19C5 16.339 5 7.66101 5 5C5 4.47 5.211 3.961 5.586 3.586C5.961 3.211 6.47 3 7 3C8.986 3 15.014 3 17 3C17.53 3 18.039 3.211 18.414 3.586C18.789 3.961 19 4.47 19 5Z" stroke="black" stroke-width="1.5" stroke-miterlimit="1.5" stroke-linecap="round" stroke-linejoin="round"/>
<path d="M8.99895 9.99974L10.9989 11.9997L14.9989 7.99974" stroke="black" stroke-width="1.5" stroke-miterlimit="1.5" stroke-linecap="round" stroke-linejoin="round"/>
<path d="M8.99895 17.0005H14.9989" stroke="black" stroke-width="1.5" stroke-miterlimit="1.5" stroke-linecap="round" stroke-linejoin="round"/>
</g>
<defs>
<clipPath id="clip0_12_1055">
<rect width="24" height="24" fill="white"/>
</clipPath>
</defs>
</svg>
