<svg width="24" height="24" viewBox="0 0 24 24" fill="none" xmlns="http://www.w3.org/2000/svg">
<path d="M18 13L18 21M15 15.5H21" stroke="black" stroke-width="1.5" stroke-linecap="round" stroke-linejoin="round"/>
<path d="M9.66667 7.78451C7.72468 8.4709 6.33333 10.323 6.33333 12.5C6.33333 14.677 7.72468 16.5291 9.66667 17.2155C9.14537 17.3997 8.58439 17.5 8 17.5C5.23858 17.5 3 15.2614 3 12.5C3 9.73858 5.23858 7.5 8 7.5C8.58439 7.5 9.14537 7.60026 9.66667 7.78451Z" stroke="black" stroke-linejoin="round"/>
<path d="M16.8301 4.90192L15.3301 2.5L13.8301 4.90192M16.8301 4.90192L19.6603 5L18.3301 7.5M16.8301 4.90192H13.8301M16.8301 4.90192L18.3301 7.5M18.3301 7.5L19.6603 10L16.8301 10.0981M18.3301 7.5L16.8301 10.0981M16.8301 10.0981L15.3301 12.5L13.8301 10.0981M16.8301 10.0981H13.8301M13.8301 10.0981L11 10L12.3301 7.5M13.8301 10.0981L12.3301 7.5M12.3301 7.5L11 5L13.8301 4.90192M12.3301 7.5L13.8301 4.90192" stroke="black" stroke-linejoin="round"/>
</svg>
