<svg width="24" height="24" viewBox="0 0 24 24" fill="none" xmlns="http://www.w3.org/2000/svg">
<g clip-path="url(#clip0_49_2760)">
<path fill-rule="evenodd" clip-rule="evenodd" d="M4 6C4 5.44772 4.44772 5 5 5H19C19.5523 5 20 5.44772 20 6C20 6.55228 19.5523 7 19 7H5C4.44772 7 4 6.55228 4 6ZM4 12C4 11.4477 4.44772 11 5 11H19C19.5523 11 20 11.4477 20 12C20 12.5523 19.5523 13 19 13H5C4.44772 13 4 12.5523 4 12ZM4 18C4 17.4477 4.44772 17 5 17H13C13.5523 17 14 17.4477 14 18C14 18.5523 13.5523 19 13 19H5C4.44772 19 4 18.5523 4 18Z" fill="black"/>
</g>
<defs>
<clipPath id="clip0_49_2760">
<rect width="24" height="24" fill="white"/>
</clipPath>
</defs>
</svg>
