<svg width="24" height="24" viewBox="0 0 24 24" fill="none" xmlns="http://www.w3.org/2000/svg">
<path d="M21 11.5C21 9.11305 20.0518 6.82387 18.364 5.13604C16.6761 3.44821 14.3869 2.5 12 2.5M21 11.5H3M21 11.5C21 12.1784 20.9234 12.8489 20.775 13.5M12 2.5C13.657 2.5 16 6.53 16 11.5C16 12.1874 15.9552 12.8568 15.8736 13.5M12 2.5C10.343 2.5 8 6.53 8 11.5C8 12.1874 8.04482 12.8568 8.12644 13.5M12 2.5C9.61305 2.5 7.32387 3.44821 5.63604 5.13604C3.94821 6.82387 3 9.11305 3 11.5M12 2.5V13.5M3 11.5C3 12.1784 3.0766 12.8489 3.225 13.5" stroke="black" stroke-width="1.5" stroke-linecap="round" stroke-linejoin="round"/>
<path d="M3.71371 21C3.48705 21 3.28874 20.8475 3.2305 20.6285L2.16708 16.6285C2.08272 16.3111 2.32194 16 2.6503 16H2.95471C3.19299 16 3.39817 16.1682 3.44497 16.4018L3.97699 19.0576C3.97915 19.0684 3.98861 19.0762 3.99959 19.0762C4.00937 19.0762 4.01809 19.07 4.02134 19.0608L4.62903 17.334C4.69946 17.1339 4.88851 17 5.10067 17H5.46591C5.67834 17 5.86757 17.1342 5.9378 17.3347L6.54582 19.0705C6.54905 19.0798 6.55777 19.0859 6.56755 19.0859C6.57853 19.0859 6.58798 19.0782 6.59013 19.0674L7.12236 16.4021C7.16904 16.1683 7.37428 16 7.61268 16H7.91684C8.2452 16 8.48442 16.3111 8.40005 16.6285L7.33664 20.6285C7.2784 20.8475 7.08009 21 6.85342 21H6.42719C6.21209 21 6.02109 20.8624 5.95295 20.6584L5.30675 18.7237C5.30342 18.7138 5.29408 18.707 5.28357 18.707C5.27305 18.707 5.26371 18.7138 5.26038 18.7237L4.61419 20.6584C4.54604 20.8624 4.35504 21 4.13994 21H3.71371Z" fill="black"/>
<path d="M10.4301 21C10.2035 21 10.0052 20.8475 9.94693 20.6285L8.88351 16.6285C8.79915 16.3111 9.03837 16 9.36673 16H9.67115C9.90943 16 10.1146 16.1682 10.1614 16.4018L10.6934 19.0576C10.6956 19.0684 10.705 19.0762 10.716 19.0762C10.7258 19.0762 10.7345 19.07 10.7378 19.0608L11.3455 17.334C11.4159 17.1339 11.6049 17 11.8171 17H12.1823C12.3948 17 12.584 17.1342 12.6542 17.3347L13.2623 19.0705C13.2655 19.0798 13.2742 19.0859 13.284 19.0859C13.295 19.0859 13.3044 19.0782 13.3066 19.0674L13.8388 16.4021C13.8855 16.1683 14.0907 16 14.3291 16H14.6333C14.9616 16 15.2009 16.3111 15.1165 16.6285L14.0531 20.6285C13.9948 20.8475 13.7965 21 13.5699 21H13.1436C12.9285 21 12.7375 20.8624 12.6694 20.6584L12.0232 18.7237C12.0199 18.7138 12.0105 18.707 12 18.707C11.9895 18.707 11.9801 18.7138 11.9768 18.7237L11.3306 20.6584C11.2625 20.8624 11.0715 21 10.8564 21H10.4301Z" fill="black"/>
<path d="M17.1466 21C16.9199 21 16.7216 20.8475 16.6634 20.6285L15.5999 16.6285C15.5156 16.3111 15.7548 16 16.0832 16H16.3876C16.6259 16 16.831 16.1682 16.8778 16.4018L17.4099 19.0576C17.412 19.0684 17.4215 19.0762 17.4325 19.0762C17.4422 19.0762 17.451 19.07 17.4542 19.0608L18.0619 17.334C18.1323 17.1339 18.3214 17 18.5335 17H18.8988C19.1112 17 19.3004 17.1342 19.3707 17.3347L19.9787 19.0705C19.9819 19.0798 19.9906 19.0859 20.0004 19.0859C20.0114 19.0859 20.0208 19.0782 20.023 19.0674L20.5552 16.4021C20.6019 16.1683 20.8071 16 21.0455 16H21.3497C21.6781 16 21.9173 16.3111 21.8329 16.6285L20.7695 20.6285C20.7113 20.8475 20.513 21 20.2863 21H19.8601C19.645 21 19.454 20.8624 19.3858 20.6584L18.7396 18.7237C18.7363 18.7138 18.7269 18.707 18.7164 18.707C18.7059 18.707 18.6966 18.7138 18.6932 18.7237L18.0471 20.6584C17.9789 20.8624 17.7879 21 17.5728 21H17.1466Z" fill="black"/>
</svg>
