<svg width="24" height="24" viewBox="0 0 24 24" fill="none" xmlns="http://www.w3.org/2000/svg">
<path d="M3.72963 14.7273C3.50646 14.7273 3.31031 14.5794 3.24892 14.3648L2.18242 10.6375C2.09102 10.3181 2.33086 10 2.66313 10H2.69692C2.92843 10 3.12966 10.1589 3.18331 10.3841L3.86969 13.2653C3.87239 13.2766 3.8825 13.2846 3.89414 13.2846C3.90557 13.2846 3.91555 13.2769 3.91846 13.2659L4.6788 10.3729C4.73655 10.1532 4.93519 10 5.16238 10H5.32561C5.55302 10 5.75179 10.1535 5.80934 10.3735L6.56742 13.2717C6.57049 13.2834 6.58106 13.2915 6.59315 13.2915C6.60547 13.2915 6.61618 13.2831 6.61903 13.2711L7.30529 10.3844C7.35885 10.159 7.56014 10 7.79173 10H7.82533C8.1576 10 8.39744 10.3181 8.30604 10.6375L7.23954 14.3648C7.17815 14.5794 6.982 14.7273 6.75883 14.7273H6.5369C6.31461 14.7273 6.11901 14.5805 6.05685 14.3671L5.2667 11.6543C5.26364 11.6438 5.25402 11.6365 5.24308 11.6365C5.23214 11.6365 5.22251 11.6438 5.21946 11.6543L4.43144 14.3668C4.36939 14.5804 4.17371 14.7273 3.95129 14.7273H3.72963Z" fill="black"/>
<path d="M10.4645 14.7273C10.2413 14.7273 10.0452 14.5794 9.98378 14.3648L8.91729 10.6375C8.82588 10.3181 9.06573 10 9.39799 10H9.43178C9.66329 10 9.86452 10.1589 9.91817 10.3841L10.6046 13.2653C10.6073 13.2766 10.6174 13.2846 10.629 13.2846C10.6404 13.2846 10.6504 13.2769 10.6533 13.2659L11.4137 10.3729C11.4714 10.1532 11.6701 10 11.8972 10H12.0605C12.2879 10 12.4867 10.1535 12.5442 10.3735L13.3023 13.2717C13.3053 13.2834 13.3159 13.2915 13.328 13.2915C13.3403 13.2915 13.351 13.2831 13.3539 13.2711L14.0402 10.3844C14.0937 10.159 14.295 10 14.5266 10H14.5602C14.8925 10 15.1323 10.3181 15.0409 10.6375L13.9744 14.3648C13.913 14.5794 13.7169 14.7273 13.4937 14.7273H13.2718C13.0495 14.7273 12.8539 14.5805 12.7917 14.3671L12.0016 11.6543C11.9985 11.6438 11.9889 11.6365 11.9779 11.6365C11.967 11.6365 11.9574 11.6438 11.9543 11.6543L11.1663 14.3668C11.1043 14.5804 10.9086 14.7273 10.6862 14.7273H10.4645Z" fill="black"/>
<path d="M17.1994 14.7273C16.9762 14.7273 16.78 14.5794 16.7186 14.3648L15.6522 10.6375C15.5607 10.3181 15.8006 10 16.1329 10H16.1666C16.3982 10 16.5994 10.1589 16.653 10.3841L17.3394 13.2653C17.3421 13.2766 17.3522 13.2846 17.3639 13.2846C17.3753 13.2846 17.3853 13.2769 17.3882 13.2659L18.1485 10.3729C18.2063 10.1532 18.4049 10 18.6321 10H18.7953C19.0227 10 19.2215 10.1535 19.2791 10.3735L20.0372 13.2717C20.0402 13.2834 20.0508 13.2915 20.0629 13.2915C20.0752 13.2915 20.0859 13.2831 20.0888 13.2711L20.775 10.3844C20.8286 10.159 21.0299 10 21.2615 10H21.2951C21.6273 10 21.8672 10.3181 21.7758 10.6375L20.7093 14.3648C20.6479 14.5794 20.4517 14.7273 20.2286 14.7273H20.0066C19.7843 14.7273 19.5887 14.5805 19.5266 14.3671L18.7364 11.6543C18.7334 11.6438 18.7237 11.6365 18.7128 11.6365C18.7019 11.6365 18.6922 11.6438 18.6892 11.6543L17.9012 14.3668C17.8391 14.5804 17.6434 14.7273 17.421 14.7273H17.1994Z" fill="black"/>
</svg>
