<svg width="24" height="24" viewBox="0 0 24 24" fill="none" xmlns="http://www.w3.org/2000/svg">
<path d="M12 21C14.387 21 16.6761 20.0518 18.364 18.364C19.0612 17.6668 19.6322 16.8669 20.0623 16M12 21C9.61305 21 7.32387 20.0518 5.63604 18.364C4.93883 17.6668 4.36783 16.8669 3.93774 16M12 21C10.822 21 9.29735 18.9633 8.51426 16M12 21V16M12 21C13.178 21 14.7027 18.9633 15.4857 16M12 3C14.387 3 16.6761 3.94821 18.364 5.63604C19.0612 6.33325 19.6322 7.13306 20.0623 8M12 3C9.61305 3 7.32387 3.94821 5.63604 5.63604C4.93883 6.33325 4.36783 7.13306 3.93774 8M12 3C10.822 3 9.29735 5.03673 8.51426 8M12 3V8M12 3C13.178 3 14.7027 5.03673 15.4857 8" stroke="black" stroke-width="1.5" stroke-linecap="round" stroke-linejoin="round"/>
<path d="M3.71371 14.5C3.48705 14.5 3.28874 14.3475 3.2305 14.1285L2.16708 10.1285C2.08272 9.81113 2.32194 9.5 2.6503 9.5H2.95471C3.19299 9.5 3.39817 9.66815 3.44497 9.90179L3.97699 12.5576C3.97915 12.5684 3.98861 12.5762 3.99959 12.5762C4.00937 12.5762 4.01809 12.57 4.02134 12.5608L4.62903 10.834C4.69946 10.6339 4.88851 10.5 5.10067 10.5H5.46591C5.67834 10.5 5.86757 10.6342 5.9378 10.8347L6.54582 12.5705C6.54905 12.5798 6.55777 12.5859 6.56755 12.5859C6.57853 12.5859 6.58798 12.5782 6.59013 12.5674L7.12236 9.90209C7.16904 9.66831 7.37428 9.5 7.61268 9.5H7.91684C8.2452 9.5 8.48442 9.81113 8.40005 10.1285L7.33664 14.1285C7.2784 14.3475 7.08009 14.5 6.85342 14.5H6.42719C6.21209 14.5 6.02109 14.3624 5.95295 14.1584L5.30675 12.2237C5.30342 12.2138 5.29408 12.207 5.28357 12.207C5.27305 12.207 5.26371 12.2138 5.26038 12.2237L4.61419 14.1584C4.54604 14.3624 4.35504 14.5 4.13994 14.5H3.71371Z" fill="black"/>
<path d="M10.4301 14.5C10.2035 14.5 10.0052 14.3475 9.94693 14.1285L8.88351 10.1285C8.79915 9.81113 9.03837 9.5 9.36673 9.5H9.67115C9.90943 9.5 10.1146 9.66815 10.1614 9.90179L10.6934 12.5576C10.6956 12.5684 10.705 12.5762 10.716 12.5762C10.7258 12.5762 10.7345 12.57 10.7378 12.5608L11.3455 10.834C11.4159 10.6339 11.6049 10.5 11.8171 10.5H12.1823C12.3948 10.5 12.584 10.6342 12.6542 10.8347L13.2623 12.5705C13.2655 12.5798 13.2742 12.5859 13.284 12.5859C13.295 12.5859 13.3044 12.5782 13.3066 12.5674L13.8388 9.90209C13.8855 9.66831 14.0907 9.5 14.3291 9.5H14.6333C14.9616 9.5 15.2009 9.81113 15.1165 10.1285L14.0531 14.1285C13.9948 14.3475 13.7965 14.5 13.5699 14.5H13.1436C12.9285 14.5 12.7375 14.3624 12.6694 14.1584L12.0232 12.2237C12.0199 12.2138 12.0105 12.207 12 12.207C11.9895 12.207 11.9801 12.2138 11.9768 12.2237L11.3306 14.1584C11.2625 14.3624 11.0715 14.5 10.8564 14.5H10.4301Z" fill="black"/>
<path d="M17.1466 14.5C16.9199 14.5 16.7216 14.3475 16.6634 14.1285L15.5999 10.1285C15.5156 9.81113 15.7548 9.5 16.0832 9.5H16.3876C16.6259 9.5 16.831 9.66815 16.8778 9.90179L17.4099 12.5576C17.412 12.5684 17.4215 12.5762 17.4325 12.5762C17.4422 12.5762 17.451 12.57 17.4542 12.5608L18.0619 10.834C18.1323 10.6339 18.3214 10.5 18.5335 10.5H18.8988C19.1112 10.5 19.3004 10.6342 19.3707 10.8347L19.9787 12.5705C19.9819 12.5798 19.9906 12.5859 20.0004 12.5859C20.0114 12.5859 20.0208 12.5782 20.023 12.5674L20.5552 9.90209C20.6019 9.66831 20.8071 9.5 21.0455 9.5H21.3497C21.6781 9.5 21.9173 9.81113 21.8329 10.1285L20.7695 14.1285C20.7113 14.3475 20.513 14.5 20.2863 14.5H19.8601C19.645 14.5 19.454 14.3624 19.3858 14.1584L18.7396 12.2237C18.7363 12.2138 18.7269 12.207 18.7164 12.207C18.7059 12.207 18.6966 12.2138 18.6932 12.2237L18.0471 14.1584C17.9789 14.3624 17.7879 14.5 17.5728 14.5H17.1466Z" fill="black"/>
</svg>
