<svg width="24" height="24" viewBox="0 0 24 24" fill="none" xmlns="http://www.w3.org/2000/svg">
<g clip-path="url(#clip0_49_2740)">
<path d="M20 12.75C20.0721 12.75 20.129 12.7792 20.1629 12.8143C20.1933 12.8457 20.2033 12.8775 20.1991 12.9148C20.0652 14.1148 19.6691 15.2748 19.0343 16.3106C18.2393 17.6079 17.1011 18.6601 15.7454 19.3508C14.3898 20.0416 12.8695 20.344 11.3527 20.2246C9.83592 20.1052 8.38168 19.5687 7.15078 18.6744C5.91987 17.7801 4.96024 16.5628 4.378 15.1572C3.79575 13.7515 3.61356 12.2122 3.85157 10.7094C4.08959 9.20668 4.73853 7.79901 5.72665 6.64207C6.51566 5.71826 7.49639 4.98303 8.5963 4.48487C8.63048 4.46939 8.66381 4.46905 8.70312 4.48823C8.74695 4.50962 8.7923 4.55478 8.81457 4.62332L9.49738 4.40147L8.81457 4.62332L11.0622 11.5408C11.2965 12.2618 11.9684 12.75 12.7265 12.75H20Z" stroke="black" stroke-width="1.5"/>
<path d="M21.1991 10.0852C21.2033 10.1225 21.1933 10.1543 21.1629 10.1857C21.129 10.2208 21.0721 10.25 21 10.25H13.7265C13.6182 10.25 13.5222 10.1803 13.4888 10.0773L11.2412 3.15979C11.2189 3.09124 11.229 3.02805 11.2519 2.98498C11.2724 2.94636 11.2996 2.92705 11.3363 2.91948C12.3065 2.71974 13.3073 2.69584 14.2906 2.85157C15.5765 3.05524 16.7959 3.56035 17.8492 4.32561C18.9025 5.09087 19.7597 6.09455 20.3508 7.25458C20.8028 8.1416 21.0893 9.10078 21.1991 10.0852Z" stroke="black" stroke-width="1.5"/>
</g>
<defs>
<clipPath id="clip0_49_2740">
<rect width="24" height="24" fill="white"/>
</clipPath>
</defs>
</svg>
