<svg width="24" height="24" viewBox="0 0 24 24" fill="none" xmlns="http://www.w3.org/2000/svg">
<path d="M4.42614 9.29401C4.14999 9.29401 3.92614 9.07015 3.92614 8.79401V8.2727C3.92614 7.99656 4.14999 7.77271 4.42614 7.77271H10.5938C10.8699 7.77271 11.0937 7.99656 11.0937 8.27271V8.79401C11.0937 9.07015 10.8699 9.29401 10.5937 9.29401H8.92187C8.64573 9.29401 8.42187 9.51787 8.42187 9.79401V16C8.42187 16.2761 8.19802 16.5 7.92187 16.5H7.09801C6.82187 16.5 6.59801 16.2761 6.59801 16V9.79401C6.59801 9.51787 6.37415 9.29401 6.09801 9.29401H4.42614Z" fill="black"/>
<path d="M13.4852 7.77271C13.703 7.77271 13.8957 7.91363 13.9617 8.12113L15.948 14.3648C15.9553 14.3878 15.9766 14.4034 16.0007 14.4034C16.0248 14.4034 16.0462 14.3878 16.0535 14.3648L18.0439 8.12085C18.11 7.91349 18.3026 7.77271 18.5202 7.77271H19.499C19.8425 7.77271 20.0837 8.11098 19.9717 8.43566L17.308 16.1629C17.2384 16.3646 17.0486 16.5 16.8352 16.5H15.1703C14.957 16.5 14.7672 16.3647 14.6976 16.1631L12.0301 8.43586C11.918 8.11115 12.1592 7.77271 12.5027 7.77271H13.4852Z" fill="black"/>
</svg>
