<svg width="24" height="24" viewBox="0 0 24 24" fill="none" xmlns="http://www.w3.org/2000/svg">
<path d="M2.5 8.9422C2.22386 8.9422 2 8.71834 2 8.4422V7.5C2 7.22386 2.22386 7 2.5 7H9.37928C9.65542 7 9.87928 7.22386 9.87928 7.5V8.4422C9.87928 8.71834 9.65542 8.9422 9.37928 8.9422H7.65252C7.37637 8.9422 7.15252 9.16605 7.15252 9.4422V15.3786C7.15252 15.6548 6.92866 15.8786 6.65252 15.8786H5.22676C4.95062 15.8786 4.72676 15.6548 4.72676 15.3786V9.4422C4.72676 9.16605 4.5029 8.9422 4.22676 8.9422H2.5Z" fill="black"/>
<path d="M13.0059 16C12.2682 16 11.6367 15.8569 11.1114 15.5708C10.5861 15.2818 10.1833 14.8801 9.90292 14.3656C9.62257 13.8483 9.48239 13.2486 9.48239 12.5665C9.48239 11.8844 9.62257 11.2861 9.90292 10.7717C10.1833 10.2543 10.5861 9.8526 11.1114 9.56647C11.6367 9.27746 12.2682 9.13295 13.0059 9.13295C13.7437 9.13295 14.3752 9.27746 14.9005 9.56647C15.4258 9.8526 15.8286 10.2543 16.109 10.7717C16.3893 11.2861 16.5295 11.8844 16.5295 12.5665C16.5295 13.2486 16.3893 13.8483 16.109 14.3656C15.8286 14.8801 15.4258 15.2818 14.9005 15.5708C14.3752 15.8569 13.7437 16 13.0059 16ZM13.0236 14.2312C13.2302 14.2312 13.4088 14.1633 13.5593 14.0275C13.7098 13.8916 13.8263 13.698 13.909 13.4465C13.9916 13.1951 14.0329 12.896 14.0329 12.5491C14.0329 12.1994 13.9916 11.9003 13.909 11.6517C13.8263 11.4003 13.7098 11.2066 13.5593 11.0708C13.4088 10.935 13.2302 10.8671 13.0236 10.8671C12.8053 10.8671 12.6179 10.935 12.4615 11.0708C12.3051 11.2066 12.1855 11.4003 12.1029 11.6517C12.0203 11.9003 11.979 12.1994 11.979 12.5491C11.979 12.896 12.0203 13.1951 12.1029 13.4465C12.1855 13.698 12.3051 13.8916 12.4615 14.0275C12.6179 14.1633 12.8053 14.2312 13.0236 14.2312Z" fill="black"/>
<path d="M17.8964 15.8786C17.6202 15.8786 17.3964 15.6548 17.3964 15.3786V9.71965C17.3964 9.44351 17.6202 9.21965 17.8964 9.21965H19.269C19.5452 9.21965 19.769 9.44351 19.769 9.71965V10.4455C19.769 10.4676 19.7869 10.4855 19.809 10.4855C19.8272 10.4855 19.8431 10.4733 19.8479 10.4557C19.9722 10.0028 20.1658 9.67023 20.4286 9.45809C20.7001 9.24133 21.0173 9.13295 21.3803 9.13295C21.4865 9.13295 21.5913 9.14162 21.6946 9.15896C21.8783 9.18395 22 9.35116 22 9.53657V10.8088C22 11.0336 21.7762 11.2004 21.5529 11.1749C21.3759 11.1546 21.2239 11.1445 21.097 11.1445C20.8579 11.1445 20.6425 11.198 20.4507 11.3049C20.2618 11.409 20.1128 11.5564 20.0036 11.7471C19.8944 11.935 19.8398 12.1561 19.8398 12.4104V15.3786C19.8398 15.6548 19.616 15.8786 19.3398 15.8786H17.8964Z" fill="black"/>
</svg>
