<svg width="24" height="24" viewBox="0 0 24 24" fill="none" xmlns="http://www.w3.org/2000/svg">
<path fill-rule="evenodd" clip-rule="evenodd" d="M12 2C15.036 2 17.5 4.61721 17.5 7.84198C17.5 10.5129 13.7226 15.9787 12.429 17.7733C12.3278 17.9159 12.1694 18 12 18C11.8306 18 11.6722 17.9159 11.571 17.7733C10.2774 15.9787 6.5 10.5129 6.5 7.84198C6.5 4.61721 8.964 2 12 2ZM12 4.91245C13.1836 4.91245 14.145 5.93362 14.145 7.19081C14.145 8.45034 13.1836 9.47151 12 9.47151C10.8164 9.47151 9.855 8.45034 9.855 7.19081C9.855 5.93362 10.8164 4.91245 12 4.91245Z" fill="black"/>
<path d="M5.72923 6.94486C5.97297 6.60995 5.89906 6.14087 5.56415 5.89713C5.22924 5.65339 4.76015 5.72729 4.51641 6.0622C4.13829 6.58177 3.81282 7.14242 3.54798 7.73634C3.37929 8.11465 3.54922 8.55808 3.92752 8.72677C4.30583 8.89546 4.74926 8.72553 4.91795 8.34723C5.13962 7.85012 5.41222 7.38045 5.72923 6.94486Z" fill="black"/>
<path d="M4.29189 10.6887C4.3347 10.2767 4.03541 9.90806 3.62341 9.86525C3.21142 9.82245 2.84273 10.1217 2.79992 10.5337C2.7669 10.8515 2.75 11.1739 2.75 11.5C2.75 11.8261 2.7669 12.1484 2.79992 12.4662C2.84273 12.8782 3.21142 13.1775 3.62341 13.1347C4.03541 13.0919 4.3347 12.7232 4.29189 12.3112C4.26421 12.0448 4.25 11.7742 4.25 11.5C4.25 11.2258 4.26421 10.9552 4.29189 10.6887Z" fill="black"/>
<path d="M4.91795 14.6528C4.74926 14.2744 4.30583 14.1045 3.92752 14.2732C3.54922 14.4419 3.37929 14.8853 3.54798 15.2636C3.81282 15.8576 4.13829 16.4182 4.51641 16.9378C4.76015 17.2727 5.22924 17.3466 5.56415 17.1029C5.89906 16.8591 5.97296 16.39 5.72922 16.0551C5.41222 15.6195 5.13962 15.1499 4.91795 14.6528Z" fill="black"/>
<path d="M18.6528 15.4778L18.2565 15.622C17.8673 15.7637 17.4369 15.563 17.2952 15.1737C17.1536 14.7845 17.3543 14.3541 17.7435 14.2125L19.8216 13.4561C20.2108 13.3144 20.6412 13.5151 20.7829 13.9044L21.5392 15.9824C21.6809 16.3717 21.4802 16.8021 21.091 16.9437C20.7017 17.0854 20.2714 16.8847 20.1297 16.4955L20.0016 16.1436C19.8423 16.4176 19.6693 16.6826 19.4836 16.9378C19.2398 17.2727 18.7708 17.3466 18.4359 17.1029C18.1009 16.8591 18.027 16.39 18.2708 16.0551C18.4064 15.8687 18.5339 15.6761 18.6528 15.4778Z" fill="black"/>
<path d="M7.44487 17.7708C7.10996 17.527 6.64088 17.6009 6.39714 17.9358C6.1534 18.2707 6.2273 18.7398 6.56221 18.9836C7.08177 19.3617 7.64243 19.6872 8.23635 19.952C8.61466 20.1207 9.05809 19.9508 9.22678 19.5725C9.39547 19.1942 9.22554 18.7507 8.84724 18.582C8.35013 18.3604 7.88046 18.0878 7.44487 17.7708Z" fill="black"/>
<path d="M17.4378 18.9836C17.7727 18.7398 17.8466 18.2708 17.6029 17.9358C17.3591 17.6009 16.89 17.527 16.5551 17.7708C16.1195 18.0878 15.6499 18.3604 15.1528 18.582C14.7745 18.7507 14.6045 19.1942 14.7732 19.5725C14.9419 19.9508 15.3853 20.1207 15.7636 19.952C16.3576 19.6872 16.9182 19.3617 17.4378 18.9836Z" fill="black"/>
<path d="M11.1888 19.2081C10.7768 19.1653 10.4081 19.4646 10.3653 19.8766C10.3225 20.2886 10.6217 20.6573 11.0337 20.7001C11.3516 20.7331 11.6739 20.75 12 20.75C12.3261 20.75 12.6484 20.7331 12.9663 20.7001C13.3783 20.6573 13.6775 20.2886 13.6347 19.8766C13.5919 19.4646 13.2232 19.1653 12.8112 19.2081C12.5448 19.2358 12.2742 19.25 12 19.25C11.7258 19.25 11.4552 19.2358 11.1888 19.2081Z" fill="black"/>
</svg>
