<svg width="24" height="24" viewBox="0 0 24 24" fill="none" xmlns="http://www.w3.org/2000/svg">
<path d="M6 18.5L11.5 3H12.5L18 18.5" stroke="black" stroke-width="1.5" stroke-linecap="round" stroke-linejoin="round"/>
<path d="M13.5 7C12.3694 7.22224 11.7226 7.27714 10.5 7L9.5 9.5C10.6934 10.0962 13.3414 10.0425 14.5 9.5L13.5 7Z" fill="black" stroke="black" stroke-linecap="round" stroke-linejoin="round"/>
<path d="M15.5 13C14.3915 13.7473 9.74707 13.8152 8.5 13L7.5 15.5C8.71667 16.8697 15.3646 16.8152 16.5 15.5L15.5 13Z" fill="black" stroke="black" stroke-linecap="round" stroke-linejoin="round"/>
<path d="M6.50001 16.5H5.14988C4.75469 16.5 4.39657 16.7327 4.23607 17.0939L3.12496 19.5939C2.83105 20.2551 3.31511 21 4.03877 21H19.6126C20.2951 21 20.7771 20.3313 20.5613 19.6838L19.7279 17.1838C19.5918 16.7754 19.2097 16.5 18.7792 16.5H17.5" stroke="black" stroke-width="1.5" stroke-linecap="round" stroke-linejoin="round"/>
</svg>
