<svg width="24" height="24" viewBox="0 0 24 24" fill="none" xmlns="http://www.w3.org/2000/svg">
<path fill-rule="evenodd" clip-rule="evenodd" d="M7.8003 4.63675C8.52398 4.57897 9.21098 4.29432 9.76346 3.82336C10.3875 3.29189 11.1803 3 12 3C12.8197 3 13.6125 3.29189 14.2365 3.82336C14.789 4.29432 15.476 4.57897 16.1997 4.63675C17.0169 4.70206 17.7842 5.05634 18.3639 5.63606C18.9437 6.21579 19.2979 6.98305 19.3633 7.8003C19.4206 8.52369 19.7053 9.21108 20.1766 9.76346C20.7081 10.3875 21 11.1803 21 12C21 12.8197 20.7081 13.6125 20.1766 14.2365C19.7057 14.789 19.421 15.476 19.3633 16.1997C19.2979 17.0169 18.9437 17.7842 18.3639 18.3639C17.7842 18.9437 17.0169 19.2979 16.1997 19.3633C15.476 19.421 14.789 19.7057 14.2365 20.1766C13.6125 20.7081 12.8197 21 12 21C11.1803 21 10.3875 20.7081 9.76346 20.1766C9.21098 19.7057 8.52398 19.421 7.8003 19.3633C6.98305 19.2979 6.21579 18.9437 5.63606 18.3639C5.05634 17.7842 4.70206 17.0169 4.63675 16.1997C4.57897 15.476 4.29432 14.789 3.82336 14.2365C3.29189 13.6125 3 12.8197 3 12C3 11.1803 3.29189 10.3875 3.82336 9.76346C4.29432 9.21098 4.57897 8.52398 4.63675 7.8003C4.70206 6.98305 5.05634 6.21579 5.63606 5.63606C6.21579 5.05634 6.98305 4.70206 7.8003 4.63675ZM16.1704 10.5453C16.3754 10.3332 16.4888 10.049 16.4862 9.75401C16.4836 9.45903 16.3653 9.17686 16.1567 8.96828C15.9482 8.75969 15.666 8.64137 15.371 8.63881C15.076 8.63624 14.7919 8.74964 14.5797 8.95457L10.875 12.6593L9.42033 11.2046C9.20815 10.9997 8.92397 10.8863 8.62899 10.8888C8.33401 10.8914 8.05184 11.0097 7.84326 11.2183C7.63467 11.4269 7.51635 11.7091 7.51379 12.004C7.51122 12.299 7.62462 12.5832 7.82955 12.7954L10.0796 15.0454C10.2906 15.2563 10.5767 15.3748 10.875 15.3748C11.1733 15.3748 11.4594 15.2563 11.6704 15.0454L16.1704 10.5453Z" fill="black"/>
</svg>
