<svg width="24" height="24" viewBox="0 0 24 24" fill="none" xmlns="http://www.w3.org/2000/svg">
<g clip-path="url(#clip0_12_1054)">
<path d="M10.0001 14.2509C11.2427 14.2509 12.2501 13.2435 12.2501 12.0008C12.2501 10.7582 11.2427 9.75085 10.0001 9.75085C8.75743 9.75085 7.75008 10.7582 7.75008 12.0008C7.75008 13.2435 8.75743 14.2509 10.0001 14.2509Z" stroke="black" stroke-width="1.5" stroke-miterlimit="1.5" stroke-linecap="round" stroke-linejoin="round"/>
<path fill-rule="evenodd" clip-rule="evenodd" d="M7.14281 20.9997C6.99141 20.9997 6.84581 20.9397 6.73871 20.8327C6.63109 20.7257 6.57095 20.5802 6.57095 20.4287C6.57201 20.4287 6.57201 20.4282 6.57201 20.4282C6.57201 18.6347 8.10611 16.9997 9.99842 16.9997C11.8907 16.9997 13.4301 18.6347 13.4301 20.4282V20.4287C13.4301 20.5802 13.37 20.7252 13.2629 20.8322C13.1558 20.9397 13.0102 20.9997 12.8588 20.9997C11.5568 20.9997 8.41104 20.9997 7.14281 20.9997Z" stroke="black" stroke-width="1.5" stroke-miterlimit="1.5" stroke-linejoin="round"/>
<path d="M5 17C3.895 17 3 16.105 3 15C3 12.556 3 8.44401 3 6C3 4.895 3.895 4 5 4C7.661 4 12.339 4 15 4C16.105 4 17 4.895 17 6C17 7 17 8.00001 17 8.00001L21 6V16L17 14C17 14 17 14.449 17 15C17 16.105 16.105 17 15 17" stroke="black" stroke-width="1.5" stroke-linecap="round" stroke-linejoin="round"/>
</g>
<defs>
<clipPath id="clip0_12_1054">
<rect width="24" height="24" fill="white"/>
</clipPath>
</defs>
</svg>
