<svg width="24" height="24" viewBox="0 0 24 24" fill="none" xmlns="http://www.w3.org/2000/svg">
<g clip-path="url(#clip0_12_1046)">
<path d="M14.0021 17H15.0021C15.5321 17 16.0411 16.789 16.4161 16.414C16.7911 16.039 17.0021 15.53 17.0021 15V14L21.0021 15V6L17.0021 7V6C17.0021 5.47 16.7911 4.961 16.4161 4.586C16.0411 4.211 15.5321 4 15.0021 4H11.0021" stroke="black" stroke-width="1.5" stroke-linecap="round" stroke-linejoin="round"/>
<path d="M7.30017 12.0003C8.68088 12.0003 9.80017 10.881 9.80017 9.50026C9.80017 8.11955 8.68088 7.00026 7.30017 7.00026C5.91946 7.00026 4.80017 8.11955 4.80017 9.50026C4.80017 10.881 5.91946 12.0003 7.30017 12.0003Z" stroke="black" stroke-width="1.5" stroke-miterlimit="1.5" stroke-linecap="round" stroke-linejoin="round"/>
<path fill-rule="evenodd" clip-rule="evenodd" d="M3.71482 20.0003C3.52557 20.0003 3.34356 19.9253 3.2097 19.7915C3.07584 19.6578 3 19.4759 3 19.2865C3.00132 19.2859 3.00132 19.2859 3.00132 19.2859C3.00132 17.044 4.91895 15.0003 7.28433 15.0003C9.64972 15.0003 11.5739 17.044 11.5739 19.2859C11.5739 19.2859 11.5739 19.2859 11.5739 19.2865C11.5739 19.4759 11.4981 19.6571 11.3642 19.7909C11.2304 19.9253 11.049 20.0003 10.8598 20.0003C9.23164 20.0003 5.3001 20.0003 3.71482 20.0003Z" stroke="black" stroke-width="1.5" stroke-miterlimit="1.5" stroke-linejoin="round"/>
</g>
<defs>
<clipPath id="clip0_12_1046">
<rect width="24" height="24" fill="white"/>
</clipPath>
</defs>
</svg>
